<?xml version="1.0" encoding="utf-8"?>
<!-- Generator: Adobe Illustrator 16.0.0, SVG Export Plug-In . SVG Version: 6.00 Build 0)  -->
<!DOCTYPE svg PUBLIC "-//W3C//DTD SVG 1.1//EN" "http://www.w3.org/Graphics/SVG/1.1/DTD/svg11.dtd">
<svg version="1.1" id="Layer_1" xmlns="http://www.w3.org/2000/svg" xmlns:xlink="http://www.w3.org/1999/xlink" x="0px" y="0px"
	 width="447.403px" height="480px" viewBox="0 0 447.403 480" enable-background="new 0 0 447.403 480" xml:space="preserve">
<g>
	<path d="M286.126,254.315h-0.079l-4.428,2.39l-0.666-2.625l5.564-2.978h2.938v25.47h-3.33V254.315z"/>
</g>
<g>
	<path d="M246.872,156.526l-1.572-1.822l-0.098,0.067c-0.036,1.826-0.971,4.073-3.206,5.595c-3.175,2.161-6.315,1.029-7.858-1.239
		c-2.58-3.79-0.622-8.156,5.458-12.247l-0.222-0.325c-0.881-1.295-2.826-3.385-6.032-1.203c-1.458,0.993-2.671,2.482-3.288,3.945
		l-1.926-1.438c0.723-1.725,2.227-3.553,4.202-4.898c4.794-3.263,8.188-0.786,10.326,2.356l3.991,5.863
		c0.926,1.36,1.895,2.645,2.816,3.581L246.872,156.526z M241.005,148.812c-3.154,2.052-6.311,5.006-4.237,8.051
		c1.257,1.846,3.083,1.882,4.54,0.89c2.041-1.389,2.455-3.566,2.004-5.203c-0.1-0.358-0.256-0.726-0.455-1.017L241.005,148.812z"/>
	<path d="M252.174,136.944L250.851,135l16.715-11.377l1.322,1.944L252.174,136.944z M256.495,143.292l-1.322-1.943l16.714-11.377
		l1.323,1.943L256.495,143.292z"/>
	<path d="M297.628,121.125c-0.481,0.896-1.781,2.538-3.887,3.971c-4.729,3.219-9.988,2.107-13.252-2.688
		c-3.285-4.826-2.363-10.573,2.756-14.057c1.685-1.146,3.461-1.739,4.504-1.88l0.851,2.644c-0.944,0.075-2.257,0.446-3.812,1.504
		c-3.596,2.448-3.73,6.426-1.504,9.698c2.47,3.628,6.322,4.275,9.433,2.158c1.619-1.102,2.401-2.25,2.97-3.158L297.628,121.125z"/>
	<path d="M298.989,116.785c1.217-0.022,3.104-0.454,4.529-1.424c2.072-1.411,2.339-3.109,1.457-4.405
		c-0.926-1.36-2.242-1.554-4.877-0.898c-3.502,0.914-5.889,0.263-7.167-1.616c-1.72-2.527-1.091-5.989,2.278-8.281
		c1.588-1.081,3.289-1.575,4.516-1.652l0.699,2.558c-0.881,0.03-2.367,0.283-3.824,1.276c-1.685,1.146-1.963,2.757-1.17,3.923
		c0.883,1.296,2.22,1.24,4.789,0.628c3.426-0.815,5.746-0.404,7.334,1.929c1.874,2.753,1.058,6.152-2.667,8.688
		c-1.718,1.169-3.591,1.829-5.134,1.93L298.989,116.785z"/>
	<path d="M324.97,102.514c-0.48,0.896-1.78,2.538-3.886,3.971c-4.729,3.219-9.989,2.107-13.253-2.687
		c-3.285-4.826-2.361-10.574,2.756-14.057c1.686-1.147,3.462-1.74,4.503-1.88l0.853,2.644c-0.945,0.074-2.258,0.445-3.812,1.504
		c-3.596,2.447-3.73,6.426-1.503,9.698c2.47,3.628,6.322,4.275,9.433,2.159c1.619-1.103,2.401-2.251,2.969-3.158L324.97,102.514z"/>
	<path d="M326.479,85.228c-4.498-6.608-5.25-13.491-0.358-16.82c4.988-3.396,10.485-0.264,15.226,6.7
		c4.961,7.289,5.838,13.659,0.816,17.077C337.531,95.337,331.925,93.229,326.479,85.228z M337.69,75.795
		c-3.162-4.578-7.156-7.311-10.299-5.172c-2.883,1.962-1.931,7.05,1.068,11.455L337.69,75.795z M329.915,84.217
		c3.924,5.766,8.094,7.714,10.88,5.818c3.045-2.073,1.945-6.821-1.649-12.102L329.915,84.217z"/>
</g>
<line fill="none" stroke="#000000" stroke-width="3" stroke-miterlimit="10" x1="216.403" y1="240.5" x2="361.403" y2="240.5"/>
<line fill="none" stroke="#000000" stroke-width="2" stroke-miterlimit="10" x1="360.403" y1="37" x2="360.403" y2="444"/>
<line fill="none" stroke="#000000" stroke-width="2" stroke-miterlimit="10" x1="214.403" y1="37" x2="214.403" y2="444"/>
<g>
	<line fill="none" stroke="#000000" stroke-width="3" stroke-miterlimit="10" x1="360.903" y1="87.004" x2="368.964" y2="81.434"/>
	
		<line fill="none" stroke="#000000" stroke-width="3" stroke-miterlimit="10" stroke-dasharray="14.7055,14.7055" x1="381.062" y1="73.074" x2="399.209" y2="60.535"/>
	<line fill="none" stroke="#000000" stroke-width="3" stroke-miterlimit="10" x1="405.258" y1="56.355" x2="413.318" y2="50.785"/>
	<g>
		<path d="M428.214,40.493c-5.212,7.444-10.842,17.89-12.984,26.315l-3.865-14.672l-12.355-8.802
			C407.647,44.31,419.409,42.738,428.214,40.493z"/>
	</g>
</g>
<line fill="none" stroke="#000000" stroke-width="4" stroke-miterlimit="10" x1="215.903" y1="187.196" x2="360.903" y2="87.004"/>
<g>
	<g>
		<line fill="none" stroke="#000000" stroke-width="3" stroke-miterlimit="10" x1="82.948" y1="279.065" x2="96.117" y2="269.967"/>
		
			<line fill="none" stroke="#000000" stroke-width="3" stroke-miterlimit="10" stroke-dasharray="25.9191,25.9191" x1="117.44" y1="255.232" x2="192.073" y2="203.663"/>
		
			<line fill="none" stroke="#000000" stroke-width="3" stroke-miterlimit="10" x1="202.735" y1="196.295" x2="215.903" y2="187.196"/>
	</g>
</g>
<g>
	<line fill="none" stroke="#000000" stroke-width="3" stroke-miterlimit="10" x1="82.903" y1="153" x2="82.903" y2="328"/>
	<g>
		<polygon points="74.188,159 82.903,126.478 91.619,159 		"/>
	</g>
</g>
<g>
	<path d="M91.892,234.558c0-7.994,3.252-14.106,9.169-14.106c6.035,0,8.816,5.682,8.816,14.106c0,8.816-2.86,14.577-8.934,14.577
		C95.34,249.135,91.892,244.236,91.892,234.558z M106.469,233.068c-0.04-5.564-1.803-10.07-5.604-10.07
		c-3.487,0-5.564,4.741-5.564,10.07H106.469z M95.301,235.655c0,6.974,2.351,10.933,5.721,10.933c3.683,0,5.447-4.547,5.447-10.933
		H95.301z"/>
</g>
<path fill="none" stroke="#000000" stroke-miterlimit="10" d="M82.948,197.131c27.945,0,52.622,13.99,67.41,35.349"/>
</svg>
