<?xml version="1.0" encoding="UTF-8" standalone="no"?>
<!-- Created with Inkscape (http://www.inkscape.org/) -->

<svg
   xmlns:dc="http://purl.org/dc/elements/1.1/"
   xmlns:cc="http://creativecommons.org/ns#"
   xmlns:rdf="http://www.w3.org/1999/02/22-rdf-syntax-ns#"
   xmlns:svg="http://www.w3.org/2000/svg"
   xmlns="http://www.w3.org/2000/svg"
   xmlns:xlink="http://www.w3.org/1999/xlink"
   xmlns:sodipodi="http://sodipodi.sourceforge.net/DTD/sodipodi-0.dtd"
   xmlns:inkscape="http://www.inkscape.org/namespaces/inkscape"
   width="165mm"
   height="100mm"
   viewBox="0 0 165 100"
   version="1.1"
   id="svg8"
   sodipodi:docname="distance_through_cyl.svg"
   inkscape:version="0.92.2 (unknown)">
  <defs
     id="defs2">
    <marker
       inkscape:isstock="true"
       style="overflow:visible"
       id="marker1724"
       refX="0"
       refY="0"
       orient="auto"
       inkscape:stockid="Arrow1Lstart">
      <path
         transform="matrix(0.8,0,0,0.8,10,0)"
         style="fill:#000000;fill-opacity:1;fill-rule:evenodd;stroke:#000000;stroke-width:1.00000003pt;stroke-opacity:1"
         d="M 0,0 5,-5 -12.5,0 5,5 Z"
         id="path1722"
         inkscape:connector-curvature="0" />
    </marker>
    <linearGradient
       inkscape:collect="always"
       id="linearGradient1648">
      <stop
         style="stop-color:#ffffff;stop-opacity:1;"
         offset="0"
         id="stop1644" />
      <stop
         style="stop-color:#ffffff;stop-opacity:0;"
         offset="1"
         id="stop1646" />
    </linearGradient>
    <marker
       inkscape:stockid="Arrow1Lstart"
       orient="auto"
       refY="0"
       refX="0"
       id="Arrow1Lstart"
       style="overflow:visible"
       inkscape:isstock="true"
       inkscape:collect="always">
      <path
         id="path845"
         d="M 0,0 5,-5 -12.5,0 5,5 Z"
         style="fill:#000000;fill-opacity:1;fill-rule:evenodd;stroke:#000000;stroke-width:1.00000003pt;stroke-opacity:1"
         transform="matrix(0.8,0,0,0.8,10,0)"
         inkscape:connector-curvature="0" />
    </marker>
    <marker
       inkscape:stockid="Arrow1Lend"
       orient="auto"
       refY="0"
       refX="0"
       id="Arrow1Lend"
       style="overflow:visible"
       inkscape:isstock="true">
      <path
         id="path848"
         d="M 0,0 5,-5 -12.5,0 5,5 Z"
         style="fill:#000000;fill-opacity:1;fill-rule:evenodd;stroke:#000000;stroke-width:1.00000003pt;stroke-opacity:1"
         transform="matrix(-0.8,0,0,-0.8,-10,0)"
         inkscape:connector-curvature="0" />
    </marker>
    <radialGradient
       inkscape:collect="always"
       xlink:href="#linearGradient1648"
       id="radialGradient1650"
       cx="139.80396"
       cy="179.02419"
       fx="139.80396"
       fy="179.02419"
       r="4.6774554"
       gradientTransform="matrix(1,0,0,0.53535352,-6.7443382,137.76819)"
       gradientUnits="userSpaceOnUse" />
    <radialGradient
       inkscape:collect="always"
       xlink:href="#linearGradient1648"
       id="radialGradient1654"
       gradientUnits="userSpaceOnUse"
       gradientTransform="matrix(1.2222222,0,0,0.68686868,-28.744821,124.53965)"
       cx="139.80396"
       cy="179.02419"
       fx="139.80396"
       fy="179.02419"
       r="4.6774554" />
  </defs>
  <sodipodi:namedview
     id="base"
     pagecolor="#ffffff"
     bordercolor="#666666"
     borderopacity="1.0"
     inkscape:pageopacity="0.0"
     inkscape:pageshadow="2"
     inkscape:zoom="1.9541667"
     inkscape:cx="222.54402"
     inkscape:cy="172.21244"
     inkscape:document-units="mm"
     inkscape:current-layer="layer1"
     showgrid="false"
     inkscape:snap-bbox="true"
     inkscape:snap-bbox-midpoints="true"
     inkscape:window-width="1366"
     inkscape:window-height="718"
     inkscape:window-x="0"
     inkscape:window-y="0"
     inkscape:window-maximized="1"
     inkscape:snap-global="true"
     inkscape:snap-object-midpoints="true" />
  <metadata
     id="metadata5">
    <rdf:RDF>
      <cc:Work
         rdf:about="">
        <dc:format>image/svg+xml</dc:format>
        <dc:type
           rdf:resource="http://purl.org/dc/dcmitype/StillImage" />
        <dc:title />
      </cc:Work>
    </rdf:RDF>
  </metadata>
  <g
     inkscape:label="Layer 1"
     inkscape:groupmode="layer"
     id="layer1"
     transform="translate(0,-197)">
    <path
       style="fill:none;fill-rule:evenodd;stroke:#4d4d4d;stroke-width:0.26458332px;stroke-linecap:butt;stroke-linejoin:miter;stroke-opacity:1"
       d="m 91.641209,218.22396 v 59.70991"
       id="path819"
       inkscape:connector-curvature="0"
       sodipodi:nodetypes="cc" />
    <path
       inkscape:connector-curvature="0"
       id="path821"
       d="m 162.48892,218.22396 v 59.97718"
       style="fill:none;fill-rule:evenodd;stroke:#4d4d4d;stroke-width:0.26458332px;stroke-linecap:butt;stroke-linejoin:miter;stroke-opacity:1"
       sodipodi:nodetypes="cc" />
    <ellipse
       ry="10.690781"
       rx="35.279575"
       cy="253.77219"
       cx="127.18806"
       id="ellipse823"
       style="opacity:1;fill:none;fill-opacity:1;stroke:#4d4d4d;stroke-width:0.47624999;stroke-linecap:square;stroke-linejoin:miter;stroke-miterlimit:4;stroke-dasharray:none;stroke-dashoffset:0;stroke-opacity:1" />
    <ellipse
       style="opacity:1;fill:none;fill-opacity:1;stroke:#4d4d4d;stroke-width:0.47624999;stroke-linecap:square;stroke-linejoin:miter;stroke-miterlimit:4;stroke-dasharray:none;stroke-dashoffset:0;stroke-opacity:1"
       id="ellipse825"
       cx="127.18806"
       cy="253.77219"
       rx="30"
       ry="9.090909" />
    <path
       style="fill:none;fill-rule:evenodd;stroke:#4d4d4d;stroke-width:0.26499999;stroke-linecap:butt;stroke-linejoin:miter;stroke-miterlimit:4;stroke-dasharray:1.58999992, 1.58999992;stroke-dashoffset:0;stroke-opacity:1"
       d="M 162.48892,218.22396 V 201.65325"
       id="path827"
       inkscape:connector-curvature="0"
       sodipodi:nodetypes="cc" />
    <path
       inkscape:connector-curvature="0"
       id="path829"
       d="M 91.641209,218.22396 V 201.65325"
       style="fill:none;fill-rule:evenodd;stroke:#4d4d4d;stroke-width:0.26499999;stroke-linecap:butt;stroke-linejoin:miter;stroke-miterlimit:4;stroke-dasharray:1.58999992, 1.58999992;stroke-dashoffset:0;stroke-opacity:1"
       sodipodi:nodetypes="cc" />
    <path
       inkscape:connector-curvature="0"
       id="path831"
       d="M 162.48892,294.50458 V 277.93387"
       style="fill:none;fill-rule:evenodd;stroke:#4d4d4d;stroke-width:0.26499999;stroke-linecap:butt;stroke-linejoin:miter;stroke-miterlimit:4;stroke-dasharray:1.58999992, 1.58999992;stroke-dashoffset:0;stroke-opacity:1"
       sodipodi:nodetypes="cc" />
    <path
       style="fill:none;fill-rule:evenodd;stroke:#4d4d4d;stroke-width:0.26499999;stroke-linecap:butt;stroke-linejoin:miter;stroke-miterlimit:4;stroke-dasharray:1.58999992, 1.58999992;stroke-dashoffset:0;stroke-opacity:1"
       d="M 91.641209,294.50458 V 277.93387"
       id="path833"
       inkscape:connector-curvature="0"
       sodipodi:nodetypes="cc" />
    <path
       style="fill:none;fill-rule:evenodd;stroke:#4d4d4d;stroke-width:0.26458332px;stroke-linecap:butt;stroke-linejoin:miter;stroke-opacity:1"
       d="m 126.65351,253.23762 h 30.46873"
       id="path835"
       inkscape:connector-curvature="0" />
    <ellipse
       style="opacity:1;fill:#000000;fill-opacity:1;stroke:#4d4d4d;stroke-width:0.26499999;stroke-linecap:square;stroke-linejoin:miter;stroke-miterlimit:4;stroke-dasharray:none;stroke-dashoffset:0;stroke-opacity:1"
       id="path837"
       cx="138.41341"
       cy="253.104"
       rx="1.3363476"
       ry="0.8018086" />
    <path
       style="fill:none;fill-rule:evenodd;stroke:#4d4d4d;stroke-width:0.26458332px;stroke-linecap:butt;stroke-linejoin:miter;stroke-opacity:1"
       d="M 138.547,252.97035 103.80197,241.21049"
       id="path1563"
       inkscape:connector-curvature="0" />
    <path
       style="fill:none;fill-rule:evenodd;stroke:#4d4d4d;stroke-width:0.26499999;stroke-linecap:butt;stroke-linejoin:miter;stroke-miterlimit:4;stroke-dasharray:0.26499999, 0.26499999;stroke-dashoffset:0;stroke-opacity:1;marker-start:url(#Arrow1Lstart)"
       d="m 103.80197,201.86512 8.49791,12.49927"
       id="path1575"
       inkscape:connector-curvature="0" />
    <path
       style="fill:none;fill-rule:evenodd;stroke:#4d4d4d;stroke-width:0.5291667;stroke-linecap:butt;stroke-linejoin:miter;stroke-miterlimit:4;stroke-dasharray:none;stroke-opacity:1"
       d="m 112.29988,214.36439 c 1.29894,1.91057 2.59789,3.82115 3.89684,5.73172"
       id="path1573"
       inkscape:connector-curvature="0" />
    <path
       style="fill:none;fill-rule:evenodd;stroke:#4d4d4d;stroke-width:0.26499999;stroke-linecap:butt;stroke-linejoin:miter;stroke-miterlimit:4;stroke-dasharray:0.26499999, 0.26499999;stroke-dashoffset:0;stroke-opacity:1"
       d="m 116.19672,220.09611 c 7.45009,10.95808 14.90019,21.91616 22.35028,32.87424"
       id="path1565"
       inkscape:connector-curvature="0" />
    <path
       style="fill:none;fill-rule:evenodd;stroke:#4d4d4d;stroke-width:0.17638889;stroke-linecap:butt;stroke-linejoin:miter;stroke-miterlimit:4;stroke-dasharray:0.70555556, 0.17638889;stroke-dashoffset:0;stroke-opacity:1"
       d="M 116.16318,245.35317 V 221.09846"
       id="path1567"
       inkscape:connector-curvature="0" />
    <path
       style="fill:none;fill-rule:evenodd;stroke:#4d4d4d;stroke-width:0.17638889;stroke-linecap:butt;stroke-linejoin:miter;stroke-miterlimit:4;stroke-dasharray:0.70555556, 0.17638889;stroke-dashoffset:0;stroke-opacity:1"
       d="M 112.28777,244.01682 V 215.41898"
       id="path1569"
       inkscape:connector-curvature="0" />
    <path
       style="opacity:1;fill:none;fill-opacity:1;stroke:#4d4d4d;stroke-width:0.1763889;stroke-linecap:square;stroke-linejoin:miter;stroke-miterlimit:4;stroke-dasharray:none;stroke-dashoffset:0;stroke-opacity:1"
       d="m 128.71328,249.60337 c 2.62242,-0.66797 6.0062,-1.07033 9.70009,-1.07033 8.33072,0 15.0841,2.04648 15.08411,4.57094"
       id="ellipse1581"
       inkscape:connector-curvature="0" />
    <ellipse
       ry="3.2127976"
       rx="5.7168899"
       cy="247.50578"
       cx="142.12671"
       id="ellipse1652"
       style="opacity:1;fill:url(#radialGradient1654);fill-opacity:1;stroke:none;stroke-width:0.17638889;stroke-linecap:square;stroke-linejoin:miter;stroke-miterlimit:4;stroke-dasharray:none;stroke-dashoffset:0;stroke-opacity:1" />
    <g
       aria-label="Φ"
       transform="matrix(0.26458333,0,0,0.26458333,-11.637976,77.322675)"
       style="font-style:normal;font-weight:normal;font-size:40px;line-height:125%;font-family:Sans;letter-spacing:0px;word-spacing:0px;fill:#000000;fill-opacity:1;stroke:none;stroke-width:3.77952766px;stroke-linecap:butt;stroke-linejoin:miter;stroke-opacity:1"
       id="flowRoot1606">
      <path
         d="m 582.50586,636.375 q -2.92969,0.41016 -4.84375,2.10937 -2.53906,2.2461 -2.53906,6.11329 0,3.84765 2.53906,6.09375 1.91406,1.69921 4.84375,2.10937 z m 3.94531,16.42578 q 2.92969,-0.41016 4.84375,-2.10937 2.5,-2.2461 2.5,-6.09375 0,-3.86719 -2.5,-6.11329 -1.91406,-1.69921 -4.84375,-2.10937 z m -3.94531,3.26172 q -4.76563,-0.42969 -7.85156,-3.04688 -3.69141,-3.125 -3.69141,-8.41796 0,-5.29297 3.69141,-8.4375 3.0664,-2.63672 7.85156,-3.06641 v -3.10547 h 3.94531 v 3.10547 q 4.76563,0.44922 7.83203,3.06641 3.67188,3.14453 3.67188,8.4375 0,5.27343 -3.67188,8.41796 -3.0664,2.61719 -7.83203,3.06641 v 3.06641 h -3.94531 z"
         style="stroke:none;stroke-width:3.77952766px"
         id="path901"
         inkscape:connector-curvature="0" />
    </g>
    <ellipse
       style="opacity:1;fill:url(#radialGradient1650);fill-opacity:1;stroke:none;stroke-width:0.17638889;stroke-linecap:square;stroke-linejoin:miter;stroke-miterlimit:4;stroke-dasharray:none;stroke-dashoffset:0;stroke-opacity:1"
       id="path1642"
       cx="133.05962"
       cy="233.60945"
       rx="4.6774554"
       ry="2.5040922" />
    <g
       aria-label="θ"
       transform="matrix(0.26458333,0,0,0.26458333,-14.572715,67.154492)"
       style="font-style:normal;font-weight:normal;font-size:40px;line-height:125%;font-family:Sans;letter-spacing:0px;word-spacing:0px;fill:#000000;fill-opacity:1;stroke:none;stroke-width:3.77952766px;stroke-linecap:butt;stroke-linejoin:miter;stroke-opacity:1"
       id="flowRoot1616">
      <path
         d="M 564.19141,630.38086 H 551.75 q 0.29297,5.83984 1.64062,8.32031 1.67969,3.04688 4.58985,3.04688 2.92969,0 4.55078,-3.06641 1.42578,-2.69531 1.66016,-8.30078 z m -0.0586,-3.32031 q -0.54687,-5.54688 -1.60156,-7.5 -1.67969,-3.08594 -4.55078,-3.08594 -2.98828,0 -4.57031,3.04687 -1.25,2.46094 -1.6211,7.53907 z m -6.15234,-13.51563 q 4.6875,0 7.36328,4.14063 2.67578,4.12109 2.67578,11.42578 0,7.28515 -2.67578,11.42578 -2.67578,4.16016 -7.36328,4.16016 -4.70703,0 -7.36328,-4.16016 -2.67578,-4.14063 -2.67578,-11.42578 0,-7.30469 2.67578,-11.42578 2.65625,-4.14063 7.36328,-4.14063 z"
         style="stroke:none;stroke-width:3.77952766px"
         id="path904"
         inkscape:connector-curvature="0" />
    </g>
    <circle
       style="opacity:1;fill:none;fill-opacity:0.4225352;stroke:#000000;stroke-width:0.17638889;stroke-linecap:square;stroke-linejoin:miter;stroke-miterlimit:4;stroke-dasharray:none;stroke-dashoffset:0;stroke-opacity:1"
       id="path1658"
       cx="34.445534"
       cy="251.90131"
       r="32.339611" />
    <path
       style="opacity:1;fill:none;fill-opacity:0.4225352;stroke:#000000;stroke-width:0.17638889;stroke-linecap:square;stroke-linejoin:miter;stroke-miterlimit:4;stroke-dasharray:none;stroke-dashoffset:0;stroke-opacity:1"
       d="M 62.375199,251.90127 A 27.929665,27.929665 0 0 1 34.445535,279.83094 27.929665,27.929665 0 0 1 6.5158711,251.90127 27.929665,27.929665 0 0 1 34.445535,223.97161 27.929665,27.929665 0 0 1 62.375199,251.90127 Z"
       id="circle1660"
       inkscape:connector-curvature="0" />
    <path
       style="fill:none;fill-rule:evenodd;stroke:#000000;stroke-width:0.26458332px;stroke-linecap:butt;stroke-linejoin:miter;stroke-opacity:1"
       d="m 34.445533,251.90127 h 28.0633"
       id="path1663"
       inkscape:connector-curvature="0" />
    <circle
       style="opacity:1;fill:#000000;fill-opacity:0.93518521;stroke:none;stroke-width:0.17638889;stroke-linecap:square;stroke-linejoin:miter;stroke-miterlimit:4;stroke-dasharray:none;stroke-dashoffset:0;stroke-opacity:1"
       id="path1667"
       cx="41.795444"
       cy="251.90131"
       r="0.93544334" />
    <path
       style="fill:none;fill-rule:evenodd;stroke:#000000;stroke-width:0.26499999;stroke-linecap:butt;stroke-linejoin:miter;stroke-miterlimit:4;stroke-dasharray:0.26499999, 0.26499999;stroke-dashoffset:0;stroke-opacity:1"
       d="M 41.795446,251.90127 18.877086,228.98291"
       id="path1714"
       inkscape:connector-curvature="0" />
    <path
       style="fill:none;fill-rule:evenodd;stroke:#000000;stroke-width:0.5291667;stroke-linecap:butt;stroke-linejoin:miter;stroke-miterlimit:4;stroke-dasharray:none;stroke-opacity:1"
       d="m 18.877086,228.98291 -3.207234,-3.20724"
       id="path1712"
       inkscape:connector-curvature="0" />
    <path
       style="fill:none;fill-rule:evenodd;stroke:#000000;stroke-width:0.26499999;stroke-linecap:butt;stroke-linejoin:miter;stroke-miterlimit:4;stroke-dasharray:0.26499999, 0.26499999;stroke-dashoffset:0;stroke-opacity:1;marker-end:url(#Arrow1Lend)"
       d="M 15.669852,225.77567 7.0306001,216.89073"
       id="path1669"
       inkscape:connector-curvature="0"
       sodipodi:nodetypes="cc" />
    <path
       style="opacity:1;fill:none;fill-opacity:0.93518521;stroke:#4d4d4d;stroke-width:0.17638889;stroke-linecap:square;stroke-linejoin:miter;stroke-miterlimit:4;stroke-dasharray:none;stroke-dashoffset:0;stroke-opacity:1"
       d="m 29.444275,239.68435 c 3.148952,-3.18334 7.519738,-5.1556 12.351171,-5.1556 9.594578,0 17.372521,7.77794 17.372522,17.37252"
       id="path1671"
       inkscape:connector-curvature="0" />
    <g
       aria-label="Φ"
       transform="matrix(0.26458333,0,0,0.26458333,-108.99564,73.474791)"
       style="font-style:normal;font-weight:normal;font-size:40px;line-height:125%;font-family:Sans;letter-spacing:0px;word-spacing:0px;fill:#000000;fill-opacity:1;stroke:none;stroke-width:3.77952766px;stroke-linecap:butt;stroke-linejoin:miter;stroke-opacity:1"
       id="flowRoot1684">
      <path
         d="m 582.50586,636.375 q -2.92969,0.41016 -4.84375,2.10937 -2.53906,2.2461 -2.53906,6.11329 0,3.84765 2.53906,6.09375 1.91406,1.69921 4.84375,2.10937 z m 3.94531,16.42578 q 2.92969,-0.41016 4.84375,-2.10937 2.5,-2.2461 2.5,-6.09375 0,-3.86719 -2.5,-6.11329 -1.91406,-1.69921 -4.84375,-2.10937 z m -3.94531,3.26172 q -4.76563,-0.42969 -7.85156,-3.04688 -3.69141,-3.125 -3.69141,-8.41796 0,-5.29297 3.69141,-8.4375 3.0664,-2.63672 7.85156,-3.06641 v -3.10547 h 3.94531 v 3.10547 q 4.76563,0.44922 7.83203,3.06641 3.67188,3.14453 3.67188,8.4375 0,5.27343 -3.67188,8.41796 -3.0664,2.61719 -7.83203,3.06641 v 3.06641 h -3.94531 z"
         style="stroke:none;stroke-width:3.77952766px"
         id="path925"
         inkscape:connector-curvature="0" />
    </g>
    <g
       aria-label="r1"
       transform="matrix(0.26458333,0,0,0.26458333,-93.360371,91.11458)"
       style="font-style:normal;font-variant:normal;font-weight:normal;font-stretch:normal;font-size:26.66666794px;line-height:125%;font-family:Sans;-inkscape-font-specification:'Sans, Normal';font-variant-ligatures:normal;font-variant-caps:normal;font-variant-numeric:normal;font-feature-settings:normal;text-align:start;letter-spacing:0px;word-spacing:0px;writing-mode:lr-tb;text-anchor:start;fill:#000000;fill-opacity:1;stroke:none;stroke-width:3.77952766px;stroke-linecap:butt;stroke-linejoin:miter;stroke-opacity:1"
       id="flowRoot1700">
      <path
         d="m 579.75706,645.49987 h 4.29688 v -14.83073 l -4.67448,0.9375 v -2.39583 l 4.64844,-0.9375 h 2.6302 v 17.22656 h 4.29688 v 2.21354 h -11.19792 z"
         style="font-style:normal;font-variant:normal;font-weight:normal;font-stretch:normal;font-size:26.66666794px;font-family:Sans;-inkscape-font-specification:'Sans, Normal';font-variant-ligatures:normal;font-variant-caps:normal;font-variant-numeric:normal;font-feature-settings:normal;text-align:start;writing-mode:lr-tb;text-anchor:start;stroke:none;stroke-width:3.77952766px"
         id="path917"
         inkscape:connector-curvature="0" />
    </g>
    <circle
       style="opacity:1;fill:#4d4d4d;fill-opacity:1;stroke:none;stroke-width:0.52916664;stroke-linecap:square;stroke-linejoin:miter;stroke-miterlimit:4;stroke-dasharray:none;stroke-dashoffset:0;stroke-opacity:1"
       id="path2612"
       cx="34.545193"
       cy="251.92337"
       r="0.49609375" />
    <g
       aria-label="d"
       transform="matrix(0.26458333,0,0,0.26458333,-37.100132,38.729753)"
       style="font-style:normal;font-weight:normal;font-size:40px;line-height:125%;font-family:Sans;letter-spacing:0px;word-spacing:0px;fill:#000000;fill-opacity:1;stroke:none;stroke-width:3.77952766px;stroke-linecap:butt;stroke-linejoin:miter;stroke-opacity:1"
       id="flowRoot2620">
      <path
         d="m 586.88086,640.59375 v -11.83594 h 3.59375 v 30.39063 h -3.59375 v -3.28125 q -1.13281,1.95312 -2.87109,2.91015 -1.71875,0.9375 -4.14063,0.9375 -3.96484,0 -6.46484,-3.16406 -2.48047,-3.16406 -2.48047,-8.32031 0,-5.15625 2.48047,-8.32031 2.5,-3.16407 6.46484,-3.16407 2.42188,0 4.14063,0.95703 1.73828,0.9375 2.87109,2.89063 z m -12.24609,7.63672 q 0,3.96484 1.62109,6.23047 1.64062,2.24609 4.49219,2.24609 2.85156,0 4.49218,-2.24609 1.64063,-2.26563 1.64063,-6.23047 0,-3.96485 -1.64063,-6.21094 -1.64062,-2.26562 -4.49218,-2.26562 -2.85157,0 -4.49219,2.26562 -1.62109,2.24609 -1.62109,6.21094 z"
         style="stroke:none;stroke-width:3.77952766px"
         id="path907"
         inkscape:connector-curvature="0" />
    </g>
    <path
       style="fill:none;fill-rule:evenodd;stroke:#000000;stroke-width:0.26499999;stroke-linecap:butt;stroke-linejoin:miter;stroke-opacity:1;stroke-miterlimit:4;stroke-dasharray:0.79499996,0.26499999;stroke-dashoffset:0"
       d="M 138.547,252.97035 V 211.60739"
       id="path905"
       inkscape:connector-curvature="0" />
    <path
       style="fill:none;fill-rule:evenodd;stroke:#000000;stroke-width:0.17638889;stroke-linecap:butt;stroke-linejoin:miter;stroke-opacity:1;stroke-miterlimit:4;stroke-dasharray:none"
       d="m 138.44561,225.22738 c -5.87993,0 -10.28987,1.61437 -14.83345,5.48977"
       id="path908"
       inkscape:connector-curvature="0"
       sodipodi:nodetypes="cc" />
    <g
       aria-label="r'"
       transform="matrix(0.26458333,0,0,0.26458333,-33.029727,194.51081)"
       style="font-style:normal;font-variant:normal;font-weight:normal;font-stretch:normal;font-size:26.66666794px;line-height:125%;font-family:Sans;-inkscape-font-specification:'Sans, Normal';font-variant-ligatures:normal;font-variant-caps:normal;font-variant-numeric:normal;font-feature-settings:normal;text-align:start;letter-spacing:0px;word-spacing:0px;writing-mode:lr-tb;text-anchor:start;fill:#000000;fill-opacity:1;stroke:none;stroke-width:1px;stroke-linecap:butt;stroke-linejoin:miter;stroke-opacity:1"
       id="flowRoot879">
      <path
         d="m 287.41276,229.26758 q -0.40364,-0.23438 -0.88542,-0.33854 -0.46875,-0.11719 -1.04166,-0.11719 -2.03125,0 -3.125,1.32812 -1.08073,1.31511 -1.08073,3.78907 v 7.68229 h -2.40886 V 227.028 h 2.40886 v 2.26562 q 0.75521,-1.32812 1.96614,-1.96615 1.21094,-0.65104 2.94271,-0.65104 0.2474,0 0.54688,0.0391 0.29948,0.026 0.66406,0.0911 z"
         style=""
         id="path886" />
      <path
         d="m 292.21745,222.17122 v 7.22657 h -2.21354 v -7.22657 z"
         style=""
         id="path888" />
    </g>
    <g
       aria-label="r"
       transform="matrix(0.26458333,0,0,0.26458333,-9.8610491,206.09515)"
       style="font-style:normal;font-variant:normal;font-weight:normal;font-stretch:normal;font-size:26.66666794px;line-height:125%;font-family:Sans;-inkscape-font-specification:'Sans, Normal';font-variant-ligatures:normal;font-variant-caps:normal;font-variant-numeric:normal;font-feature-settings:normal;text-align:start;letter-spacing:0px;word-spacing:0px;writing-mode:lr-tb;text-anchor:start;fill:#000000;fill-opacity:1;stroke:none;stroke-width:1px;stroke-linecap:butt;stroke-linejoin:miter;stroke-opacity:1"
       id="flowRoot884">
      <path
         d="m 287.41276,229.26758 q -0.40364,-0.23438 -0.88542,-0.33854 -0.46875,-0.11719 -1.04166,-0.11719 -2.03125,0 -3.125,1.32812 -1.08073,1.31511 -1.08073,3.78907 v 7.68229 h -2.40886 V 227.028 h 2.40886 v 2.26562 q 0.75521,-1.32812 1.96614,-1.96615 1.21094,-0.65104 2.94271,-0.65104 0.2474,0 0.54688,0.0391 0.29948,0.026 0.66406,0.0911 z"
         style=""
         id="path891" />
    </g>
  </g>
  <g
     inkscape:groupmode="layer"
     id="layer2"
     inkscape:label="Layer 2"
     transform="translate(0,-197)" />
</svg>
