<?xml version="1.0" encoding="UTF-8" standalone="no"?>
<!-- Created with Inkscape (http://www.inkscape.org/) -->

<svg
   width="115.187mm"
   height="62.316807mm"
   viewBox="3 -1 120.14668 65"
   version="1.1"
   id="svg1"
   inkscape:version="1.3.2 (1:1.3.2+202311252150+091e20ef0f)"
   sodipodi:docname="exponential_disk_mfp_geometry.svg"
   inkscape:export-filename="exponential_circle_geometry.png"
   inkscape:export-xdpi="300"
   inkscape:export-ydpi="300"
   xmlns:inkscape="http://www.inkscape.org/namespaces/inkscape"
   xmlns:sodipodi="http://sodipodi.sourceforge.net/DTD/sodipodi-0.dtd"
   xmlns="http://www.w3.org/2000/svg"
   xmlns:svg="http://www.w3.org/2000/svg">
  <sodipodi:namedview
     id="namedview1"
     pagecolor="#ffffff"
     bordercolor="#666666"
     borderopacity="1.0"
     inkscape:showpageshadow="2"
     inkscape:pageopacity="0.0"
     inkscape:pagecheckerboard="0"
     inkscape:deskcolor="#d1d1d1"
     inkscape:document-units="mm"
     showguides="true"
     inkscape:zoom="1.4071425"
     inkscape:cx="242.33509"
     inkscape:cy="160.96451"
     inkscape:window-width="1920"
     inkscape:window-height="1011"
     inkscape:window-x="0"
     inkscape:window-y="32"
     inkscape:window-maximized="1"
     inkscape:current-layer="layer1">
    <sodipodi:guide
       position="57.686855,31.158422"
       orientation="0,-1"
       id="guide2"
       inkscape:locked="false" />
    <sodipodi:guide
       position="42.466894,46.378371"
       orientation="1,0"
       id="guide3"
       inkscape:locked="false" />
  </sodipodi:namedview>
  <defs
     id="defs1">
    <marker
       style="overflow:visible"
       id="DartArrow"
       refX="0"
       refY="0"
       orient="auto-start-reverse"
       inkscape:stockid="Dart arrow"
       markerWidth="1"
       markerHeight="1"
       viewBox="0 0 1 1"
       inkscape:isstock="true"
       inkscape:collect="always"
       preserveAspectRatio="xMidYMid">
      <path
         style="fill:context-stroke;fill-rule:evenodd;stroke:none"
         d="M 0,0 5,-5 -12.5,0 5,5 Z"
         transform="scale(-0.5)"
         id="path7" />
    </marker>
    <rect
       x="366.47821"
       y="160.24483"
       width="23.855524"
       height="25.744293"
       id="rect3" />
    <rect
       x="366.47821"
       y="160.24483"
       width="23.855524"
       height="25.744293"
       id="rect3-1" />
    <marker
       style="overflow:visible"
       id="DartArrow-9"
       refX="0"
       refY="0"
       orient="auto-start-reverse"
       inkscape:stockid="Dart arrow"
       markerWidth="1"
       markerHeight="1"
       viewBox="0 0 1 1"
       inkscape:isstock="true"
       inkscape:collect="always"
       preserveAspectRatio="xMidYMid">
      <path
         style="fill:context-stroke;fill-rule:evenodd;stroke:none"
         d="M 0,0 5,-5 -12.5,0 5,5 Z"
         transform="scale(-0.5)"
         id="path7-4" />
    </marker>
    <marker
       style="overflow:visible"
       id="DartArrow-9-4"
       refX="0"
       refY="0"
       orient="auto-start-reverse"
       inkscape:stockid="Dart arrow"
       markerWidth="1"
       markerHeight="1"
       viewBox="0 0 1 1"
       inkscape:isstock="true"
       inkscape:collect="always"
       preserveAspectRatio="xMidYMid">
      <path
         style="fill:context-stroke;fill-rule:evenodd;stroke:none"
         d="M 0,0 5,-5 -12.5,0 5,5 Z"
         transform="scale(-0.5)"
         id="path7-4-1" />
    </marker>
    <marker
       style="overflow:visible"
       id="DartArrow-9-4-2"
       refX="0"
       refY="0"
       orient="auto-start-reverse"
       inkscape:stockid="Dart arrow"
       markerWidth="1"
       markerHeight="1"
       viewBox="0 0 1 1"
       inkscape:isstock="true"
       inkscape:collect="always"
       preserveAspectRatio="xMidYMid">
      <path
         style="fill:context-stroke;fill-rule:evenodd;stroke:none"
         d="M 0,0 5,-5 -12.5,0 5,5 Z"
         transform="scale(-0.5)"
         id="path7-4-1-0" />
    </marker>
    <marker
       style="overflow:visible"
       id="DartArrow-9-4-4"
       refX="0"
       refY="0"
       orient="auto-start-reverse"
       inkscape:stockid="Dart arrow"
       markerWidth="1"
       markerHeight="1"
       viewBox="0 0 1 1"
       inkscape:isstock="true"
       inkscape:collect="always"
       preserveAspectRatio="xMidYMid">
      <path
         style="fill:context-stroke;fill-rule:evenodd;stroke:none"
         d="M 0,0 5,-5 -12.5,0 5,5 Z"
         transform="scale(-0.5)"
         id="path7-4-1-3" />
    </marker>
    <marker
       style="overflow:visible"
       id="DartArrow-9-4-0"
       refX="0"
       refY="0"
       orient="auto-start-reverse"
       inkscape:stockid="Dart arrow"
       markerWidth="1"
       markerHeight="1"
       viewBox="0 0 1 1"
       inkscape:isstock="true"
       inkscape:collect="always"
       preserveAspectRatio="xMidYMid">
      <path
         style="fill:context-stroke;fill-rule:evenodd;stroke:none"
         d="M 0,0 5,-5 -12.5,0 5,5 Z"
         transform="scale(-0.5)"
         id="path7-4-1-31" />
    </marker>
    <rect
       x="366.47821"
       y="160.24483"
       width="46.766235"
       height="25.365997"
       id="rect3-2" />
    <rect
       x="366.47821"
       y="160.24483"
       width="34.24572"
       height="28.5345"
       id="rect3-1-7" />
  </defs>
  <g
     inkscape:label="Layer 1"
     inkscape:groupmode="layer"
     id="layer1"
     transform="translate(-51.147085,-37.549147)">
    <path
       style="color:#000000;fill:#6bb199;fill-opacity:1;-inkscape-stroke:none"
       d="m 101.89254,53.046875 c -5.001589,-10e-7 -9.459512,2.346557 -12.326166,6 -0.475091,0.605487 -0.907895,1.247305 -1.291015,1.919922 -1.300406,2.283025 -2.042969,4.926686 -2.042969,7.740234 0,8.64406 7.016096,15.662111 15.66015,15.66211 8.64405,-10e-7 15.6621,-7.018051 15.6621,-15.66211 0,-2.40845 -0.54504,-4.692762 -1.51758,-6.732422 -0.62359,-1.307828 -1.42246,-2.51507 -2.36718,-3.591797 -2.86989,-3.270902 -7.08604,-5.335936 -11.77734,-5.335937 z m 0,0.880859 c 4.43262,10e-7 8.40411,1.949387 11.11327,5.03711 0.89182,1.016426 1.64605,2.15677 2.23438,3.390625 0.91752,1.924289 1.43164,4.075915 1.43164,6.351562 0,8.167422 -6.61188,14.779296 -14.77929,14.779297 -8.167417,10e-7 -14.777338,-6.611874 -14.777338,-14.779297 0,-2.658408 0.700657,-5.148446 1.927735,-7.302734 0.361517,-0.634688 0.768344,-1.240963 1.216797,-1.8125 2.705919,-3.448592 6.907007,-5.664064 11.632806,-5.664063 z"
       id="path1-5" />
    <path
       id="path1-2-9-0"
       d="m 71.942595,59.595416 0.02054,3.03e-4 0.02059,3.05e-4 0.02054,3.03e-4 0.01973,2.51e-4 0.04145,-0.0014 0.04145,-0.0014 0.08172,0.0012 0.04145,-0.0014 0.02063,3.09e-4 0.0196,2.42e-4 0.164511,-0.0032 0.08169,0.0012 0.04145,-0.0014 0.04145,-0.0014 0.328097,-0.0042 0.164749,-0.0032 0.08148,0.0012 0.04145,-0.0014 0.02063,3.08e-4 0.01968,2.48e-4 1.177392,-0.0143 1.261878,-0.01585 1.162195,-0.01486 1.185793,-0.01607 1.270281,-0.01772 1.171815,-0.01716 1.255113,-0.01918 1.279887,-0.02033 1.180008,-0.01924 1.264705,-0.02143 1.166029,-0.02063 1.18935,-0.02175 1.274065,-0.02429 1.174447,-0.0234 1.259152,-0.02567 1.160175,-0.02441 1.183797,-0.02598 1.268256,-0.02868 1.169827,-0.02772 1.253327,-0.0305 1.276667,-0.03231 1.178219,-0.03094 1.26268,-0.0342 1.16399,-0.03261 1.18661,-0.0344 1.27203,-0.03807 1.1724,-0.03646 1.25709,-0.04057 1.28044,-0.04275 1.1808,-0.04096 1.26644,-0.04515 1.1668,-0.04319 1.25129,-0.04785 1.27483,-0.05054 1.17591,-0.04816 1.25987,-0.05322 1.16194,-0.05072 1.18452,-0.05335 1.26899,-0.05923 1.1703,-0.05649 1.255,-0.06246 1.27857,-0.06584 1.17868,-0.06275 1.26338,-0.0697 1.1647,-0.06636 1.18825,-0.06975 1.27271,-0.07723 0.58642,-0.0366 0.2943,-0.01858 0.14654,-0.0092 0.0733,-0.0034 0.0366,-0.0037 0.0178,-0.0019 0.0191,-0.0018 29.57683,-0.05192 c 0.69866,0.003 1.27443,1.210795 1.286,2.698496 0.0116,1.48771 -0.54543,2.691577 -1.24409,2.688927 l -29.57956,0.05193 -0.0191,-8.3e-4 -0.0179,-8.15e-4 -0.0366,-0.003 -0.0734,-0.0067 -0.14672,-0.01018 -0.29455,-0.02171 -0.58709,-0.03929 -1.27398,-0.08692 -1.18938,-0.07954 -1.16586,-0.07383 -1.26458,-0.07831 -1.17972,-0.07191 -1.27974,-0.07426 -1.25608,-0.07175 -1.17125,-0.06537 -1.26999,-0.06893 -1.1854,-0.06296 -1.16283,-0.05862 -1.26083,-0.06234 -1.17675,-0.0567 -1.27569,-0.06008 -1.2521,-0.05738 -1.16752,-0.0519 -1.26725,-0.05483 -1.18149,-0.04969 -1.28117,-0.05231 -1.2578,-0.05012 -1.17304,-0.04524 -1.27271,-0.04786 -1.1872,-0.04364 -1.16459,-0.0413 -1.26328,-0.04396 -1.178749,-0.03989 -1.277266,-0.04174 -1.253933,-0.03946 -1.170298,-0.03655 -1.268757,-0.03869 -1.184201,-0.03553 -1.160557,-0.03413 -1.259638,-0.03511 -1.174891,-0.03153 -1.274562,-0.03365 -1.189774,-0.03047 -1.166435,-0.02909 -1.265105,-0.03125 -1.180368,-0.02817 -1.280231,-0.03001 -1.255474,-0.02863 -1.172109,-0.02624 -1.270625,-0.02739 -1.186166,-0.02453 -1.162534,-0.02353 -1.262228,-0.02495 -1.17769,-0.02279 -0.01976,-4.33e-4 -0.02067,-3.81e-4 -0.04143,-6.28e-4 -0.08157,-0.0032 -0.164763,-0.0024 -0.328107,-0.0076 -0.04148,-6.3e-4 -0.04143,-6.28e-4 -0.0818,-0.0032 -0.164522,-0.0024 -0.01976,-4.03e-4 -0.02071,-3.84e-4 -0.04143,-6.27e-4 -0.08181,-0.0032 -0.04148,-6.3e-4 -0.04143,-6.27e-4 -0.01972,-3.91e-4 -0.02067,-4.01e-4 -0.02071,-3.93e-4 -7.542537,-4.27e-4 v -1.203451 z"
       style="opacity:0.420667;fill:#ff6600;stroke:none;stroke-width:0.352778;stroke-linecap:butt;stroke-linejoin:miter;stroke-miterlimit:3.25;stroke-dasharray:none;stroke-opacity:1"
       sodipodi:nodetypes="ccccccccccccccccccccccccccccccccccccccccccccccccccccccccccccccccccccccccccccscccccccccccccccccccccccccccccccccccccccccccccccccccccccccccccccccccccccccccccc" />
    <path
       id="path1-2-9-0-2"
       style="opacity:0.983049;fill:#3d45d7;fill-opacity:1;stroke:none;stroke-width:0.352778;stroke-linecap:butt;stroke-linejoin:miter;stroke-miterlimit:3.25;stroke-dasharray:none;stroke-opacity:1"
       d="m 113.87849,58.637764 -0.39998,0.01602 -0.73432,0.0279 c 0.0872,0.09438 0.1767,0.186557 0.26148,0.283187 0.83962,0.956932 1.55182,2.026871 2.12391,3.178101 l 0.82475,0.03979 0.17932,0.0088 c -0.033,-0.07192 -0.0626,-0.145718 -0.0966,-0.217041 -0.57581,-1.207631 -1.30697,-2.324209 -2.15852,-3.336748 z"
       sodipodi:nodetypes="ccccccccc" />
    <circle
       style="fill:none;stroke:#333333;stroke-width:0.493889"
       id="path1"
       cx="101.89321"
       cy="68.70755"
       r="30.911459" />
    <path
       style="fill:none;fill-rule:evenodd;stroke:#000000;stroke-width:0.264583px;stroke-linecap:butt;stroke-linejoin:miter;stroke-opacity:1"
       d="m 114.03751,59.448713 -12.14427,9.258828"
       id="path2"
       sodipodi:nodetypes="cc" />
    <path
       style="fill:none;fill-rule:evenodd;stroke:#000000;stroke-width:0.264583px;stroke-linecap:butt;stroke-linejoin:miter;stroke-opacity:1"
       d="m 101.89323,68.707539 h 30.91145"
       id="path3" />
    <text
       xml:space="preserve"
       transform="matrix(0.26458333,0,0,0.26458333,5.6527059,34.397236)"
       id="text3"
       style="font-size:21.3333px;line-height:125%;font-family:Sans;letter-spacing:0px;word-spacing:0px;white-space:pre;shape-inside:url(#rect3);display:inline;fill:none;stroke:#000000;stroke-width:1px;stroke-linecap:butt;stroke-linejoin:miter;stroke-opacity:1"><tspan
         x="366.47852"
         y="179.11911"
         id="tspan2"><tspan
           style="font-style:italic;font-family:'DejaVu Serif';-inkscape-font-specification:'DejaVu Serif Italic';fill:#000000;stroke:none"
           id="tspan1">ρ</tspan></tspan></text>
    <text
       xml:space="preserve"
       transform="matrix(0.26458333,0,0,0.26458333,10.96852,20.793472)"
       id="text3-2"
       style="font-size:21.3333px;line-height:125%;font-family:Sans;letter-spacing:0px;word-spacing:0px;white-space:pre;shape-inside:url(#rect3-1);display:inline;fill:none;stroke:#000000;stroke-width:1px;stroke-linecap:butt;stroke-linejoin:miter;stroke-opacity:1"><tspan
         x="366.47852"
         y="179.11911"
         id="tspan4"><tspan
           style="font-style:italic;font-family:'DejaVu Serif';-inkscape-font-specification:'DejaVu Serif Italic';fill:#000000;stroke:none"
           id="tspan3">θ</tspan></tspan></text>
    <path
       style="fill:none;fill-rule:evenodd;stroke:#000000;stroke-width:0.493889;stroke-linecap:butt;stroke-linejoin:miter;stroke-opacity:1;marker-start:url(#DartArrow)"
       d="m 137.99701,56.313008 h 22.18714"
       id="path4" />
    <path
       style="fill:none;fill-rule:evenodd;stroke:#000000;stroke-width:0.493889;stroke-linecap:butt;stroke-linejoin:miter;stroke-opacity:1;marker-start:url(#DartArrow-9)"
       d="m 137.99701,48.16626 h 22.18714"
       id="path4-9" />
    <path
       style="fill:none;fill-rule:evenodd;stroke:#000000;stroke-width:0.493889;stroke-linecap:butt;stroke-linejoin:miter;stroke-opacity:1;marker-start:url(#DartArrow-9-4)"
       d="m 137.99701,64.459756 h 22.18714"
       id="path4-9-2" />
    <path
       style="fill:none;fill-rule:evenodd;stroke:#000000;stroke-width:0.493889;stroke-linecap:butt;stroke-linejoin:miter;stroke-opacity:1;marker-start:url(#DartArrow-9-4-2)"
       d="m 137.99701,72.606503 h 22.18714"
       id="path4-9-2-2" />
    <path
       style="fill:none;fill-rule:evenodd;stroke:#000000;stroke-width:0.493889;stroke-linecap:butt;stroke-linejoin:miter;stroke-opacity:1;marker-start:url(#DartArrow-9-4-4)"
       d="m 137.99701,80.753251 h 22.18714"
       id="path4-9-2-6" />
    <path
       style="fill:none;fill-rule:evenodd;stroke:#000000;stroke-width:0.493889;stroke-linecap:butt;stroke-linejoin:miter;stroke-opacity:1;marker-start:url(#DartArrow-9-4-0)"
       d="m 137.99701,88.899999 h 22.18714"
       id="path4-9-2-7" />
    <text
       xml:space="preserve"
       transform="matrix(0.26458333,0,0,0.26458333,4.8765886,50.633416)"
       id="text3-0"
       style="font-size:21.3333px;line-height:125%;font-family:Sans;letter-spacing:0px;word-spacing:0px;white-space:pre;shape-inside:url(#rect3-2);display:inline;fill:none;stroke:#000000;stroke-width:1px;stroke-linecap:butt;stroke-linejoin:miter;stroke-opacity:1"><tspan
         x="366.47852"
         y="179.11911"
         id="tspan6"><tspan
           style="font-family:'DejaVu Serif';-inkscape-font-specification:'DejaVu Serif';fill:#000000;stroke:none"
           id="tspan5">1</tspan></tspan></text>
    <text
       xml:space="preserve"
       transform="matrix(0.26458333,0,0,0.26458333,23.391761,10.2499)"
       id="text3-2-3"
       style="font-size:21.3333px;line-height:125%;font-family:Sans;letter-spacing:0px;word-spacing:0px;white-space:pre;shape-inside:url(#rect3-1-7);display:inline;fill:none;stroke:#000000;stroke-width:1px;stroke-linecap:butt;stroke-linejoin:miter;stroke-opacity:1"><tspan
         x="366.47852"
         y="179.11911"
         id="tspan8"><tspan
           style="font-style:italic;font-family:'DejaVu Serif';-inkscape-font-specification:'DejaVu Serif Italic';fill:#000000;stroke:none"
           id="tspan7">λ</tspan></tspan></text>
  </g>
</svg>
