<?xml version="1.0" encoding="UTF-8" standalone="no"?>
<!-- Created with Inkscape (http://www.inkscape.org/) -->

<svg
   width="120mm"
   height="55.634998mm"
   viewBox="3 -1 100 46.362499"
   version="1.1"
   id="svg1"
   inkscape:version="1.3.2 (1:1.3.2+202311252150+091e20ef0f)"
   sodipodi:docname="exponential_disk_mfp_detailed_geometry.svg"
   inkscape:export-filename="exponential_circle_geometry.png"
   inkscape:export-xdpi="300"
   inkscape:export-ydpi="300"
   xmlns:inkscape="http://www.inkscape.org/namespaces/inkscape"
   xmlns:sodipodi="http://sodipodi.sourceforge.net/DTD/sodipodi-0.dtd"
   xmlns="http://www.w3.org/2000/svg"
   xmlns:svg="http://www.w3.org/2000/svg">
  <sodipodi:namedview
     id="namedview1"
     pagecolor="#ffffff"
     bordercolor="#666666"
     borderopacity="1.0"
     inkscape:showpageshadow="2"
     inkscape:pageopacity="0.0"
     inkscape:pagecheckerboard="0"
     inkscape:deskcolor="#d1d1d1"
     inkscape:document-units="mm"
     showguides="true"
     inkscape:zoom="2.814285"
     inkscape:cx="353.90872"
     inkscape:cy="138.04572"
     inkscape:window-width="1920"
     inkscape:window-height="1011"
     inkscape:window-x="0"
     inkscape:window-y="32"
     inkscape:window-maximized="1"
     inkscape:current-layer="layer1">
    <sodipodi:guide
       position="46.087946,20.158662"
       orientation="0,-1"
       id="guide2"
       inkscape:locked="false" />
    <sodipodi:guide
       position="33.928214,32.318387"
       orientation="1,0"
       id="guide3"
       inkscape:locked="false" />
  </sodipodi:namedview>
  <defs
     id="defs1">
    <marker
       style="overflow:visible"
       id="DartArrow"
       refX="0"
       refY="0"
       orient="auto-start-reverse"
       inkscape:stockid="Dart arrow"
       markerWidth="1"
       markerHeight="1"
       viewBox="0 0 1 1"
       inkscape:isstock="true"
       inkscape:collect="always"
       preserveAspectRatio="xMidYMid">
      <path
         style="fill:context-stroke;fill-rule:evenodd;stroke:none"
         d="M 0,0 5,-5 -12.5,0 5,5 Z"
         transform="scale(-0.5)"
         id="path5" />
    </marker>
    <rect
       x="282.43579"
       y="80.572304"
       width="73.492546"
       height="56.455067"
       id="rect34" />
    <rect
       x="366.47821"
       y="160.24483"
       width="23.855524"
       height="25.744293"
       id="rect3" />
    <rect
       x="366.47821"
       y="160.24483"
       width="23.855524"
       height="25.744293"
       id="rect3-1" />
    <rect
       x="366.47821"
       y="160.24483"
       width="46.766235"
       height="25.365997"
       id="rect3-2" />
    <rect
       x="366.47821"
       y="160.24483"
       width="34.24572"
       height="28.5345"
       id="rect3-1-7" />
  </defs>
  <g
     inkscape:label="Layer 1"
     inkscape:groupmode="layer"
     id="layer1"
     transform="translate(-51.1471,-37.5491)">
    <circle
       style="fill:none;stroke:#999999;stroke-width:0.367967"
       id="path1"
       cx="93.613976"
       cy="68.70755"
       r="30.911459" />
    <circle
       style="fill:#ffffff;fill-opacity:0.388473;stroke:#008080;stroke-width:0.367967;stroke-dasharray:none;stroke-dashoffset:0;stroke-opacity:1"
       id="path20"
       cx="93.613976"
       cy="68.707542"
       r="15.241164" />
    <path
       style="fill:#666666;fill-rule:evenodd;stroke:#666666;stroke-width:0.264583px;stroke-linecap:butt;stroke-linejoin:miter;stroke-opacity:1"
       d="M 105.75826,59.448713 93.613973,68.707541"
       id="path2"
       sodipodi:nodetypes="cc" />
    <path
       style="fill:#666666;fill-rule:evenodd;stroke:#666666;stroke-width:0.264583px;stroke-linecap:butt;stroke-linejoin:miter;stroke-opacity:1"
       d="M 93.613972,68.707539 H 108.9491"
       id="path3" />
    <text
       xml:space="preserve"
       transform="matrix(0.26458333,0,0,0.26458333,-14.143048,14.619507)"
       id="text3"
       style="font-size:21.3333px;line-height:125%;font-family:Sans;letter-spacing:0px;word-spacing:0px;white-space:pre;shape-inside:url(#rect3);display:inline;fill:#666666;stroke:#000000;stroke-width:1px;stroke-linecap:butt;stroke-linejoin:miter;stroke-opacity:1"><tspan
         x="366.47852"
         y="179.11911"
         id="tspan2"><tspan
           style="font-style:italic;font-family:'DejaVu Serif';-inkscape-font-specification:'DejaVu Serif Italic';stroke:none"
           id="tspan1">ρ</tspan></tspan></text>
    <text
       xml:space="preserve"
       transform="matrix(0.26458333,0,0,0.26458333,2.6892521,20.793472)"
       id="text3-2"
       style="font-size:21.3333px;line-height:125%;font-family:Sans;letter-spacing:0px;word-spacing:0px;white-space:pre;shape-inside:url(#rect3-1);display:inline;fill:#666666;stroke:#000000;stroke-width:1px;stroke-linecap:butt;stroke-linejoin:miter;stroke-opacity:1"><tspan
         x="366.47852"
         y="179.11911"
         id="tspan4"><tspan
           style="font-style:italic;font-family:'DejaVu Serif';-inkscape-font-specification:'DejaVu Serif Italic';stroke:none"
           id="tspan3">θ</tspan></tspan></text>
    <text
       xml:space="preserve"
       transform="matrix(0.26458333,0,0,0.26458333,-32.154405,14.435449)"
       id="text3-0"
       style="font-size:21.3333px;line-height:125%;font-family:Sans;letter-spacing:0px;word-spacing:0px;white-space:pre;shape-inside:url(#rect3-2);display:inline;fill:#999999;stroke:#000000;stroke-width:1px;stroke-linecap:butt;stroke-linejoin:miter;stroke-opacity:1"><tspan
         x="366.47852"
         y="179.11911"
         id="tspan6"><tspan
           style="font-family:'DejaVu Serif';-inkscape-font-specification:'DejaVu Serif';stroke:none"
           id="tspan5">1</tspan></tspan></text>
    <path
       style="fill:#ff0000;fill-rule:evenodd;stroke:#ff6600;stroke-width:0.275976px;stroke-linecap:butt;stroke-linejoin:miter;stroke-opacity:1"
       d="m 105.75826,59.448713 h 17.3458"
       id="path5-6" />
    <path
       style="fill:none;fill-rule:evenodd;stroke:#666666;stroke-width:0.165585;stroke-linecap:butt;stroke-linejoin:miter;stroke-opacity:1"
       d="M 93.613973,68.70754 V 34.682592"
       id="path6" />
    <path
       style="fill:#800080;fill-rule:evenodd;stroke:#800080;stroke-width:0.275976px;stroke-linecap:butt;stroke-linejoin:miter;stroke-opacity:1"
       d="M 105.75826,59.448713 H 93.613973"
       id="path7" />
    <g
       inkscape:label=""
       transform="matrix(1.3741079,0,0,1.3741079,93.044771,54.676351)"
       id="g12"
       style="fill:#800080;stroke-width:0.727745">
      <g
         id="g9"
         transform="matrix(0.367967,0,0,0.367967,-0.842599,-0.691687)"
         style="fill:#800080;stroke-width:0.727745">
        <g
           style="fill:#800080;fill-opacity:1;stroke-width:0.727745"
           id="g8">
          <g
             id="use7"
             transform="translate(1.993,8.9110003)"
             style="fill:#800080;stroke-width:0.727745">
            <path
               style="fill:#800080;stroke:none;stroke-width:0.727745"
               d="m 0.328125,1.71875 c -0.03125,0.125 -0.03125,0.140625 -0.03125,0.171875 0,0.140625 0.109375,0.265625 0.28125,0.265625 0.203125,0 0.328125,-0.1875 0.34375,-0.21875 0.0625,-0.078125 0.375,-1.421875 0.640625,-2.5 0.203125,0.40625 0.515625,0.671875 0.984375,0.671875 C 3.71875,0.109375 5,-1.296875 5,-2.78125 c 0,-1.0625 -0.65625,-1.625 -1.375,-1.625 -0.96875,0 -2.015625,1 -2.3125,2.21875 z m 2.21875,-1.828125 C 1.84375,-0.109375 1.6875,-0.90625 1.6875,-1 c 0,-0.03125 0.046875,-0.234375 0.078125,-0.359375 0.28125,-1.125 0.375,-1.484375 0.59375,-1.875 0.4375,-0.734375 0.9375,-0.953125 1.234375,-0.953125 0.375,0 0.6875,0.296875 0.6875,0.984375 0,0.546875 -0.28125,1.65625 -0.546875,2.140625 -0.328125,0.640625 -0.8125,0.953125 -1.1875,0.953125 z m 0,0"
               id="path11" />
          </g>
        </g>
        <g
           style="fill:#800080;fill-opacity:1;stroke-width:0.727745"
           id="g10">
          <g
             id="use8"
             transform="translate(8.8039999,8.9110003)"
             style="fill:#800080;stroke-width:0.727745">
            <path
               style="fill:#800080;stroke:none;stroke-width:0.727745"
               d="m 1.171875,-2.171875 c 0,-1.625 0.8125,-2.046875 1.34375,-2.046875 0.09375,0 0.71875,0.015625 1.0625,0.375 -0.40625,0.03125 -0.46875,0.328125 -0.46875,0.453125 0,0.265625 0.1875,0.453125 0.453125,0.453125 0.265625,0 0.46875,-0.15625 0.46875,-0.46875 0,-0.671875 -0.765625,-1.0625 -1.53125,-1.0625 -1.25,0 -2.15625,1.078125 -2.15625,2.3125 0,1.28125 0.984375,2.265625 2.140625,2.265625 1.328125,0 1.65625,-1.203125 1.65625,-1.296875 0,-0.09375 -0.109375,-0.09375 -0.140625,-0.09375 -0.078125,0 -0.109375,0.03125 -0.125,0.09375 -0.28125,0.921875 -0.9375,1.046875 -1.296875,1.046875 -0.53125,0 -1.40625,-0.421875 -1.40625,-2.03125 z m 0,0"
               id="path12" />
          </g>
          <g
             id="use9"
             transform="translate(13.231379,8.9110003)"
             style="fill:#800080;stroke-width:0.727745">
            <path
               style="fill:#800080;stroke:none;stroke-width:0.727745"
               d="M 4.6875,-2.140625 C 4.6875,-3.40625 3.703125,-4.46875 2.5,-4.46875 c -1.25,0 -2.21875,1.09375 -2.21875,2.328125 0,1.296875 1.03125,2.25 2.203125,2.25 1.203125,0 2.203125,-0.984375 2.203125,-2.25 z m -2.1875,2 c -0.4375,0 -0.875,-0.203125 -1.140625,-0.671875 -0.25,-0.4375 -0.25,-1.046875 -0.25,-1.40625 0,-0.390625 0,-0.921875 0.234375,-1.359375 C 1.609375,-4.03125 2.078125,-4.25 2.484375,-4.25 c 0.4375,0 0.859375,0.21875 1.125,0.65625 0.265625,0.421875 0.265625,1 0.265625,1.375 0,0.359375 0,0.90625 -0.21875,1.34375 C 3.421875,-0.421875 2.984375,-0.140625 2.5,-0.140625 Z m 0,0"
               id="path13" />
          </g>
          <g
             id="use10"
             transform="translate(18.212679,8.9110003)"
             style="fill:#800080;stroke-width:0.727745">
            <path
               style="fill:#800080;stroke:none;stroke-width:0.727745"
               d="m 2.078125,-1.9375 c 0.21875,0.046875 1.03125,0.203125 1.03125,0.921875 0,0.5 -0.34375,0.90625 -1.125,0.90625 -0.84375,0 -1.203125,-0.5625 -1.390625,-1.421875 C 0.5625,-1.65625 0.5625,-1.6875 0.453125,-1.6875 c -0.125,0 -0.125,0.0625 -0.125,0.234375 V -0.125 c 0,0.171875 0,0.234375 0.109375,0.234375 0.046875,0 0.0625,-0.015625 0.25,-0.203125 0.015625,-0.015625 0.015625,-0.03125 0.203125,-0.21875 0.4375,0.40625 0.890625,0.421875 1.09375,0.421875 1.140625,0 1.609375,-0.671875 1.609375,-1.390625 0,-0.515625 -0.296875,-0.828125 -0.421875,-0.9375 C 2.84375,-2.546875 2.453125,-2.625 2.03125,-2.703125 1.46875,-2.8125 0.8125,-2.9375 0.8125,-3.515625 c 0,-0.359375 0.25,-0.765625 1.109375,-0.765625 1.09375,0 1.15625,0.90625 1.171875,1.203125 0,0.09375 0.09375,0.09375 0.109375,0.09375 0.140625,0 0.140625,-0.046875 0.140625,-0.234375 v -1.015625 c 0,-0.15625 0,-0.234375 -0.109375,-0.234375 -0.046875,0 -0.078125,0 -0.203125,0.125 -0.03125,0.03125 -0.125,0.125 -0.171875,0.15625 -0.375,-0.28125 -0.78125,-0.28125 -0.9375,-0.28125 -1.21875,0 -1.59375,0.671875 -1.59375,1.234375 0,0.34375 0.15625,0.625 0.421875,0.84375 0.328125,0.25 0.609375,0.3125 1.328125,0.453125 z m 0,0"
               id="path14" />
          </g>
        </g>
        <g
           style="fill:#800080;fill-opacity:1;stroke-width:0.727745"
           id="g11">
          <g
             id="use11"
             transform="translate(23.802999,8.9110003)"
             style="fill:#800080;stroke-width:0.727745">
            <path
               style="fill:#800080;stroke:none;stroke-width:0.727745"
               d="m 4.53125,-4.984375 c 0,-0.65625 -0.171875,-2.046875 -1.1875,-2.046875 -1.390625,0 -2.921875,2.8125 -2.921875,5.09375 0,0.9375 0.28125,2.046875 1.1875,2.046875 1.40625,0 2.921875,-2.859375 2.921875,-5.09375 z M 1.46875,-3.625 C 1.640625,-4.25 1.84375,-5.046875 2.25,-5.765625 2.515625,-6.25 2.875,-6.8125 3.328125,-6.8125 c 0.484375,0 0.546875,0.640625 0.546875,1.203125 0,0.5 -0.078125,1 -0.3125,1.984375 z m 2,0.328125 C 3.359375,-2.84375 3.15625,-2 2.765625,-1.28125 c -0.34375,0.6875 -0.71875,1.171875 -1.15625,1.171875 -0.328125,0 -0.53125,-0.296875 -0.53125,-1.21875 0,-0.421875 0.0625,-1 0.3125,-1.96875 z m 0,0"
               id="path8" />
          </g>
        </g>
      </g>
    </g>
    <path
       style="fill:#ff0000;fill-rule:evenodd;stroke:#ff6600;stroke-width:0.275977px;stroke-linecap:butt;stroke-linejoin:miter;stroke-dasharray:1, 1;stroke-dashoffset:0;stroke-opacity:1"
       d="M 93.613976,59.448713 H 105.75826"
       id="path5-6-7" />
    <g
       inkscape:label=""
       transform="matrix(1.3498964,0,0,1.3498964,91.774601,47.659548)"
       id="g20"
       style="fill:#ff6600;stroke-width:0.740798">
      <g
         id="surface1"
         transform="matrix(0.367967,0,0,0.367967,-0.44192114,-0.44556996)"
         style="fill:#ff6600;stroke-width:0.740798">
        <g
           style="fill:#ff6600;fill-opacity:1;stroke-width:0.740798"
           id="g15">
          <g
             id="use14"
             transform="translate(1.993,2.79)"
             style="fill:#ff6600;stroke-width:0.740798">
            <path
               style="fill:#ff6600;stroke:none;stroke-width:0.740798"
               d="m 4.234375,11.5625 c 0.296875,0 0.3125,-0.01563 0.40625,-0.203125 l 5.453125,-11.375 c 0.07813,-0.140625 0.07813,-0.15625 0.07813,-0.1875 0,-0.109375 -0.07813,-0.203125 -0.203125,-0.203125 -0.125,0 -0.171875,0.09375 -0.21875,0.203125 L 4.609375,10.53125 2.484375,5.578125 1.09375,6.65625 1.25,6.8125 1.953125,6.265625 Z m 0,0"
               id="path23" />
          </g>
        </g>
        <path
           style="fill:#ff6600;stroke:#ff6600;stroke-width:0.294837;stroke-linecap:butt;stroke-linejoin:miter;stroke-miterlimit:10;stroke-opacity:1"
           d="M -0.001875,1.5625e-4 H 51.755938"
           transform="matrix(1,0,0,-1,11.955,2.59)"
           id="path15" />
        <g
           style="fill:#ff6600;fill-opacity:1;stroke-width:0.740798"
           id="g16">
          <g
             id="use15"
             transform="translate(11.955,12.191)"
             style="fill:#ff6600;stroke-width:0.740798">
            <path
               style="fill:#ff6600;stroke:none;stroke-width:0.740798"
               d="m 2.9375,-6.375 c 0,-0.25 0,-0.265625 -0.234375,-0.265625 C 2.078125,-6 1.203125,-6 0.890625,-6 v 0.3125 c 0.203125,0 0.78125,0 1.296875,-0.265625 v 5.171875 c 0,0.359375 -0.03125,0.46875 -0.921875,0.46875 h -0.3125 V 0 c 0.34375,-0.03125 1.203125,-0.03125 1.609375,-0.03125 0.390625,0 1.265625,0 1.609375,0.03125 v -0.3125 h -0.3125 c -0.90625,0 -0.921875,-0.109375 -0.921875,-0.46875 z m 0,0"
               id="path24" />
          </g>
        </g>
        <g
           style="fill:#ff6600;fill-opacity:1;stroke-width:0.740798"
           id="g17">
          <g
             id="use16"
             transform="translate(19.15,12.191)"
             style="fill:#ff6600;stroke-width:0.740798">
            <path
               style="fill:#ff6600;stroke:none;stroke-width:0.740798"
               d="m 6.5625,-2.296875 c 0.171875,0 0.359375,0 0.359375,-0.203125 0,-0.1875 -0.1875,-0.1875 -0.359375,-0.1875 H 1.171875 c -0.171875,0 -0.34375,0 -0.34375,0.1875 0,0.203125 0.171875,0.203125 0.34375,0.203125 z m 0,0"
               id="path25" />
          </g>
        </g>
        <g
           style="fill:#ff6600;fill-opacity:1;stroke-width:0.740798"
           id="g18">
          <g
             id="use17"
             transform="translate(29.113001,12.191)"
             style="fill:#ff6600;stroke-width:0.740798">
            <path
               style="fill:#ff6600;stroke:none;stroke-width:0.740798"
               d="m 0.328125,1.71875 c -0.03125,0.125 -0.03125,0.140625 -0.03125,0.171875 0,0.140625 0.109375,0.265625 0.28125,0.265625 0.203125,0 0.328125,-0.1875 0.34375,-0.21875 0.0625,-0.078125 0.375,-1.421875 0.640625,-2.5 0.203125,0.40625 0.515625,0.671875 0.984375,0.671875 C 3.71875,0.109375 5,-1.296875 5,-2.78125 c 0,-1.0625 -0.65625,-1.625 -1.375,-1.625 -0.96875,0 -2.015625,1 -2.3125,2.21875 z m 2.21875,-1.828125 C 1.84375,-0.109375 1.6875,-0.90625 1.6875,-1 c 0,-0.03125 0.046875,-0.234375 0.078125,-0.359375 0.28125,-1.125 0.375,-1.484375 0.59375,-1.875 0.4375,-0.734375 0.9375,-0.953125 1.234375,-0.953125 0.375,0 0.6875,0.296875 0.6875,0.984375 0,0.546875 -0.28125,1.65625 -0.546875,2.140625 -0.328125,0.640625 -0.8125,0.953125 -1.1875,0.953125 z m 0,0"
               id="path26" />
          </g>
        </g>
        <g
           style="fill:#ff6600;fill-opacity:1;stroke-width:0.740798"
           id="g19">
          <g
             id="use18"
             transform="translate(34.264,9.3129997)"
             style="fill:#ff6600;stroke-width:0.740798">
            <path
               style="fill:#ff6600;stroke:none;stroke-width:0.740798"
               d="M 3.515625,-1.265625 H 3.28125 c -0.015625,0.15625 -0.09375,0.5625 -0.1875,0.625 C 3.046875,-0.59375 2.515625,-0.59375 2.40625,-0.59375 H 1.125 c 0.734375,-0.640625 0.984375,-0.84375 1.390625,-1.171875 0.515625,-0.40625 1,-0.84375 1,-1.5 0,-0.84375 -0.734375,-1.359375 -1.625,-1.359375 -0.859375,0 -1.453125,0.609375 -1.453125,1.25 0,0.34375 0.296875,0.390625 0.375,0.390625 0.15625,0 0.359375,-0.125 0.359375,-0.375 0,-0.125 -0.046875,-0.375 -0.40625,-0.375 C 0.984375,-4.21875 1.453125,-4.375 1.78125,-4.375 c 0.703125,0 1.0625,0.546875 1.0625,1.109375 0,0.609375 -0.4375,1.078125 -0.65625,1.328125 L 0.515625,-0.265625 C 0.4375,-0.203125 0.4375,-0.1875 0.4375,0 h 2.875 z m 0,0"
               id="path27" />
          </g>
        </g>
        <g
           style="fill:#ff6600;fill-opacity:1;stroke-width:0.740798"
           id="g21">
          <g
             id="use19"
             transform="translate(40.394001,12.191)"
             style="fill:#ff6600;stroke-width:0.740798">
            <path
               style="fill:#ff6600;stroke:none;stroke-width:0.740798"
               d="m 2.078125,-1.9375 c 0.21875,0.046875 1.03125,0.203125 1.03125,0.921875 0,0.5 -0.34375,0.90625 -1.125,0.90625 -0.84375,0 -1.203125,-0.5625 -1.390625,-1.421875 C 0.5625,-1.65625 0.5625,-1.6875 0.453125,-1.6875 c -0.125,0 -0.125,0.0625 -0.125,0.234375 V -0.125 c 0,0.171875 0,0.234375 0.109375,0.234375 0.046875,0 0.0625,-0.015625 0.25,-0.203125 0.015625,-0.015625 0.015625,-0.03125 0.203125,-0.21875 0.4375,0.40625 0.890625,0.421875 1.09375,0.421875 1.140625,0 1.609375,-0.671875 1.609375,-1.390625 0,-0.515625 -0.296875,-0.828125 -0.421875,-0.9375 C 2.84375,-2.546875 2.453125,-2.625 2.03125,-2.703125 1.46875,-2.8125 0.8125,-2.9375 0.8125,-3.515625 c 0,-0.359375 0.25,-0.765625 1.109375,-0.765625 1.09375,0 1.15625,0.90625 1.171875,1.203125 0,0.09375 0.09375,0.09375 0.109375,0.09375 0.140625,0 0.140625,-0.046875 0.140625,-0.234375 v -1.015625 c 0,-0.15625 0,-0.234375 -0.109375,-0.234375 -0.046875,0 -0.078125,0 -0.203125,0.125 -0.03125,0.03125 -0.125,0.125 -0.171875,0.15625 -0.375,-0.28125 -0.78125,-0.28125 -0.9375,-0.28125 -1.21875,0 -1.59375,0.671875 -1.59375,1.234375 0,0.34375 0.15625,0.625 0.421875,0.84375 0.328125,0.25 0.609375,0.3125 1.328125,0.453125 z m 0,0"
               id="path28" />
          </g>
          <g
             id="use20"
             transform="translate(44.32325,12.191)"
             style="fill:#ff6600;stroke-width:0.740798">
            <path
               style="fill:#ff6600;stroke:none;stroke-width:0.740798"
               d="M 1.765625,-4.40625 0.375,-4.296875 v 0.3125 c 0.640625,0 0.734375,0.0625 0.734375,0.546875 V -0.75 c 0,0.4375 -0.109375,0.4375 -0.78125,0.4375 V 0 C 0.640625,-0.015625 1.1875,-0.03125 1.421875,-0.03125 1.78125,-0.03125 2.125,-0.015625 2.46875,0 v -0.3125 c -0.671875,0 -0.703125,-0.046875 -0.703125,-0.4375 z m 0.03125,-1.734375 c 0,-0.3125 -0.234375,-0.53125 -0.515625,-0.53125 -0.3125,0 -0.53125,0.265625 -0.53125,0.53125 0,0.265625 0.21875,0.53125 0.53125,0.53125 0.28125,0 0.515625,-0.21875 0.515625,-0.53125 z m 0,0"
               id="path29" />
          </g>
          <g
             id="use21"
             transform="translate(47.090858,12.191)"
             style="fill:#ff6600;stroke-width:0.740798">
            <path
               style="fill:#ff6600;stroke:none;stroke-width:0.740798"
               d="M 1.09375,-3.421875 V -0.75 c 0,0.4375 -0.109375,0.4375 -0.78125,0.4375 V 0 c 0.359375,-0.015625 0.859375,-0.03125 1.140625,-0.03125 0.25,0 0.765625,0.015625 1.109375,0.03125 v -0.3125 c -0.671875,0 -0.78125,0 -0.78125,-0.4375 V -2.59375 C 1.78125,-3.625 2.5,-4.1875 3.125,-4.1875 c 0.640625,0 0.75,0.53125 0.75,1.109375 V -0.75 c 0,0.4375 -0.109375,0.4375 -0.78125,0.4375 V 0 c 0.34375,-0.015625 0.859375,-0.03125 1.125,-0.03125 0.25,0 0.78125,0.015625 1.109375,0.03125 v -0.3125 c -0.515625,0 -0.765625,0 -0.765625,-0.296875 v -1.90625 c 0,-0.859375 0,-1.15625 -0.3125,-1.515625 -0.140625,-0.171875 -0.46875,-0.375 -1.046875,-0.375 C 2.46875,-4.40625 2,-3.984375 1.71875,-3.359375 V -4.40625 L 0.3125,-4.296875 v 0.3125 c 0.703125,0 0.78125,0.0625 0.78125,0.5625 z m 0,0"
               id="path30" />
          </g>
        </g>
        <g
           style="fill:#ff6600;fill-opacity:1;stroke-width:0.740798"
           id="g22">
          <g
             id="use22"
             transform="translate(52.625999,8)"
             style="fill:#ff6600;stroke-width:0.740798">
            <path
               style="fill:#ff6600;stroke:none;stroke-width:0.740798"
               d="M 3.515625,-1.265625 H 3.28125 c -0.015625,0.15625 -0.09375,0.5625 -0.1875,0.625 C 3.046875,-0.59375 2.515625,-0.59375 2.40625,-0.59375 H 1.125 c 0.734375,-0.640625 0.984375,-0.84375 1.390625,-1.171875 0.515625,-0.40625 1,-0.84375 1,-1.5 0,-0.84375 -0.734375,-1.359375 -1.625,-1.359375 -0.859375,0 -1.453125,0.609375 -1.453125,1.25 0,0.34375 0.296875,0.390625 0.375,0.390625 0.15625,0 0.359375,-0.125 0.359375,-0.375 0,-0.125 -0.046875,-0.375 -0.40625,-0.375 C 0.984375,-4.21875 1.453125,-4.375 1.78125,-4.375 c 0.703125,0 1.0625,0.546875 1.0625,1.109375 0,0.609375 -0.4375,1.078125 -0.65625,1.328125 L 0.515625,-0.265625 C 0.4375,-0.203125 0.4375,-0.1875 0.4375,0 h 2.875 z m 0,0"
               id="path31" />
          </g>
        </g>
        <g
           style="fill:#ff6600;fill-opacity:1;stroke-width:0.740798"
           id="g23">
          <g
             id="use23"
             transform="translate(58.755001,12.191)"
             style="fill:#ff6600;stroke-width:0.740798">
            <path
               style="fill:#ff6600;stroke:none;stroke-width:0.740798"
               d="m 4.53125,-4.984375 c 0,-0.65625 -0.171875,-2.046875 -1.1875,-2.046875 -1.390625,0 -2.921875,2.8125 -2.921875,5.09375 0,0.9375 0.28125,2.046875 1.1875,2.046875 1.40625,0 2.921875,-2.859375 2.921875,-5.09375 z M 1.46875,-3.625 C 1.640625,-4.25 1.84375,-5.046875 2.25,-5.765625 2.515625,-6.25 2.875,-6.8125 3.328125,-6.8125 c 0.484375,0 0.546875,0.640625 0.546875,1.203125 0,0.5 -0.078125,1 -0.3125,1.984375 z m 2,0.328125 C 3.359375,-2.84375 3.15625,-2 2.765625,-1.28125 c -0.34375,0.6875 -0.71875,1.171875 -1.15625,1.171875 -0.328125,0 -0.53125,-0.296875 -0.53125,-1.21875 0,-0.421875 0.0625,-1 0.3125,-1.96875 z m 0,0"
               id="path32" />
          </g>
        </g>
      </g>
    </g>
    <path
       style="fill:none;fill-rule:evenodd;stroke:#000000;stroke-width:0.275975px;stroke-linecap:butt;stroke-linejoin:miter;stroke-opacity:1"
       d="M 105.6994,59.792835 V 62.52702"
       id="path33-9" />
    <path
       style="fill:none;fill-rule:evenodd;stroke:#000000;stroke-width:0.693633;stroke-linecap:butt;stroke-linejoin:miter;stroke-opacity:1"
       d="m 105.6994,61.15993 h 17.44313"
       id="path34"
       sodipodi:nodetypes="cc" />
    <text
       xml:space="preserve"
       transform="matrix(0.34415211,0,0,0.34415211,11.645471,33.870004)"
       id="text34"
       style="font-size:14.9688px;line-height:125%;font-family:Sans;letter-spacing:0px;word-spacing:0px;white-space:pre;shape-inside:url(#rect34);display:inline;fill:none;stroke:#000000;stroke-width:0.8019px;stroke-linecap:butt;stroke-linejoin:miter;stroke-opacity:1"><tspan
         x="282.43555"
         y="93.816144"
         id="tspan8"><tspan
           style="font-family:'DejaVu Serif';-inkscape-font-specification:'DejaVu Serif';fill:#1a1a1a;stroke:none"
           id="tspan7">decay </tspan></tspan><tspan
         x="282.43555"
         y="112.52714"
         id="tspan10"><tspan
           style="font-family:'DejaVu Serif';-inkscape-font-specification:'DejaVu Serif';fill:#1a1a1a;stroke:none"
           id="tspan9">distance</tspan></tspan></text>
    <path
       style="fill:none;fill-rule:evenodd;stroke:#000000;stroke-width:0.275975px;stroke-linecap:butt;stroke-linejoin:miter;stroke-opacity:1"
       d="M 123.09205,59.792835 V 62.52702"
       id="path33-9-8" />
    <path
       style="fill:none;fill-rule:evenodd;stroke:#b3b3b3;stroke-width:0.38749999;stroke-linecap:butt;stroke-linejoin:miter;stroke-opacity:1;marker-start:url(#DartArrow)"
       d="m 131.44579,64.924087 h 21.55343"
       id="path4" />
    <path
       style="fill:none;fill-rule:evenodd;stroke:#b3b3b3;stroke-width:0.38749999;stroke-linecap:butt;stroke-linejoin:miter;stroke-opacity:1;marker-start:url(#DartArrow)"
       d="m 131.44579,56.817779 h 21.55343"
       id="path4-5" />
    <path
       style="fill:none;fill-rule:evenodd;stroke:#b3b3b3;stroke-width:0.38749999;stroke-linecap:butt;stroke-linejoin:miter;stroke-opacity:1;marker-start:url(#DartArrow)"
       d="m 131.44579,48.711472 h 21.55343"
       id="path4-7" />
    <path
       style="fill:none;fill-rule:evenodd;stroke:#b3b3b3;stroke-width:0.38749999;stroke-linecap:butt;stroke-linejoin:miter;stroke-opacity:1;marker-start:url(#DartArrow)"
       d="m 131.44579,40.605164 h 21.55343"
       id="path4-6" />
    <path
       style="fill:none;fill-rule:evenodd;stroke:#b3b3b3;stroke-width:0.38749999;stroke-linecap:butt;stroke-linejoin:miter;stroke-opacity:1;marker-start:url(#DartArrow)"
       d="m 131.44579,73.030394 h 21.55343"
       id="path4-9" />
    <path
       style="fill:none;fill-rule:evenodd;stroke:#b3b3b3;stroke-width:0.38749999;stroke-linecap:butt;stroke-linejoin:miter;stroke-opacity:1;marker-start:url(#DartArrow)"
       d="m 131.44579,81.136702 h 21.55343"
       id="path4-59" />
  </g>
</svg>
