<?xml version="1.0" encoding="utf-8"?>
<!-- Generator: Adobe Illustrator 16.0.0, SVG Export Plug-In . SVG Version: 6.00 Build 0)  -->
<!DOCTYPE svg PUBLIC "-//W3C//DTD SVG 1.1//EN" "http://www.w3.org/Graphics/SVG/1.1/DTD/svg11.dtd">
<svg version="1.1" id="Layer_1" xmlns="http://www.w3.org/2000/svg" xmlns:xlink="http://www.w3.org/1999/xlink" x="0px" y="0px"
	 width="695.006px" height="529px" viewBox="0 0 695.006 529" enable-background="new 0 0 695.006 529" xml:space="preserve">
<linearGradient id="SVGID_1_" gradientUnits="userSpaceOnUse" x1="259.5" y1="66.4287" x2="259.5" y2="195.0715" gradientTransform="matrix(1 0 0 -1 84 504)">
	<stop  offset="0" style="stop-color:#FFFFFF"/>
	<stop  offset="1" style="stop-color:#000000"/>
</linearGradient>
<rect x="60" y="369" fill="url(#SVGID_1_)" width="567" height="80"/>
<line fill="none" stroke="#000000" stroke-width="2" stroke-miterlimit="10" x1="60" y1="370" x2="627" y2="370"/>
<g>
	<g>
		<line fill="none" stroke="#000000" stroke-width="3" stroke-miterlimit="10" x1="60" y1="235.5" x2="78" y2="235.5"/>
		
			<line fill="none" stroke="#000000" stroke-width="3" stroke-miterlimit="10" stroke-dasharray="34,34" x1="112" y1="235.5" x2="575" y2="235.5"/>
		<line fill="none" stroke="#000000" stroke-width="3" stroke-miterlimit="10" x1="592" y1="235.5" x2="609" y2="235.5"/>
		<g>
			<path d="M626.401,235.668c-8.118,3.012-18.189,8.151-24.434,13.595l4.917-13.595l-4.917-13.592
				C608.212,227.52,618.283,232.659,626.401,235.668z"/>
		</g>
	</g>
</g>
<g>
	<g>
		
			<rect x="317.761" y="174.776" transform="matrix(-0.8918 -0.4525 0.4525 -0.8918 537.5005 601.0353)" fill="#A5A5A5" width="45.737" height="122.92"/>
		<polyline fill="#A5A5A5" points="333.224,301.375 344.008,317.917 348.737,270.784 		"/>
		<polyline fill="#A5A5A5" points="292.438,280.682 272.719,281.748 307.952,250.096 		"/>
		<polyline fill="#A5A5A5" points="348.046,171.063 384.819,149.127 388.833,191.757 		"/>
	</g>
	<g>
		<g>
			<path fill="#F7931E" d="M302.28,294.111c-2.347,11.424-12.891,19.094-23.154,23.271c-5.052,2.056-2.845,10.354,2.279,8.271
				c12.948-5.271,26.164-14.751,29.145-29.26C311.658,290.994,303.393,288.697,302.28,294.111L302.28,294.111z"/>
		</g>
	</g>
	<g>
		<g>
			<path fill="#F7931E" d="M308.049,302.531c1.326,12.806-1.271,25.55-0.226,38.349c0.447,5.472,9.026,5.517,8.576,0
				c-1.046-12.799,1.551-25.543,0.226-38.349C316.061,297.087,307.479,297.032,308.049,302.531L308.049,302.531z"/>
		</g>
	</g>
	<g>
		<g>
			<path fill="#F7931E" d="M299.202,310.539c-3.831,7.685-6.963,15.688-10.795,23.373c-2.46,4.933,4.937,9.277,7.404,4.328
				c3.832-7.685,6.964-15.688,10.795-23.373C309.066,309.935,301.67,305.59,299.202,310.539L299.202,310.539z"/>
		</g>
	</g>
	<g>
		<g>
			<path fill="#F7931E" d="M290.357,292.165c-4.819,6.928-13.013,10.812-19.864,15.379c-4.576,3.051-0.288,10.481,4.328,7.404
				c8.241-5.494,17.155-10.14,22.94-18.455C300.929,291.941,293.491,287.66,290.357,292.165L290.357,292.165z"/>
		</g>
	</g>
	<g>
		<g>
			<path fill="#F7931E" d="M320.935,309.988c-1.468,5.556-1.821,11.08-0.938,16.756c0.36,2.312,3.218,3.561,5.274,2.995
				c2.443-0.672,3.354-2.968,2.995-5.274c-0.638-4.094-0.112-8.225,0.938-12.197C330.618,306.915,322.346,304.646,320.935,309.988
				L320.935,309.988z"/>
		</g>
	</g>
</g>
<g>
	<g>
		<line fill="none" stroke="#000000" stroke-width="3" stroke-miterlimit="10" x1="341.5" y1="237" x2="341.5" y2="450"/>
		<g>
			<path d="M341.98,467.685c-3.012-8.117-8.151-18.188-13.595-24.433l13.595,4.917l13.592-4.917
				C350.129,449.495,344.989,459.566,341.98,467.685z"/>
		</g>
	</g>
</g>
<g>
	<g>
		<line fill="none" stroke="#000000" stroke-width="3" stroke-miterlimit="10" x1="341.5" y1="237" x2="341.5" y2="95"/>
		<g>
			<path d="M341.98,77.977c3.012,8.117,8.151,18.189,13.595,24.433l-13.595-4.917l-13.592,4.917
				C333.832,96.166,338.972,86.094,341.98,77.977z"/>
		</g>
	</g>
</g>
<g>
	<g>
		
			<line fill="none" stroke="#000000" stroke-width="2.8585" stroke-miterlimit="10" x1="341.98" y1="237.098" x2="411.631" y2="93.498"/>
		<g>
			<path d="M419.159,77.977c-0.833,8.618-0.604,19.923,1.568,27.916l-10.086-10.357l-14.375-1.507
				C403.89,90.786,412.909,83.967,419.159,77.977z"/>
		</g>
	</g>
</g>
<rect x="311.967" y="24.614" fill="none" width="62.886" height="85.754"/>
<text transform="matrix(1 0 0 1 311.9668 62.3047)" font-family="'CMUSerif-Roman'" font-size="54.3113">F</text>
<text transform="matrix(1 0 0 1 347.377 70.8799)" font-family="'CMUSerif-Roman'" font-size="42.8773">c</text>
<text transform="matrix(1 0 0 1 346.667 161.7124)" font-family="'MyriadPro-It'" font-size="54.3113">θ</text>
<rect x="438.691" y="59.871" fill="none" width="161.981" height="85.755"/>
<text transform="matrix(1 0 0 1 438.6934 97.5645)" font-family="'CMUSerif-Roman'" font-size="54.3113">F</text>
<text transform="matrix(1 0 0 1 474.1035 106.1396)" font-family="'CMUSerif-Roman'" font-size="42.8773">thrust</text>
<rect x="364.372" y="461.963" fill="none" width="161.981" height="55.037"/>
<text transform="matrix(1 0 0 1 364.373 499.6553)" font-family="'CMUSerif-Roman'" font-size="54.3113">F</text>
<text transform="matrix(1 0 0 1 399.7832 508.2305)" font-family="'CMUSerif-Roman'" font-size="42.8773">mg</text>
<rect x="614.016" y="185.03" fill="none" width="35.987" height="85.754"/>
<text transform="matrix(1 0 0 1 614.0156 222.7207)" font-family="'CMUSerif-Roman'" font-size="54.3113">a</text>
</svg>
