<?xml version="1.0" encoding="utf-8" standalone="no"?>
<!DOCTYPE svg PUBLIC "-//W3C//DTD SVG 1.1//EN"
  "http://www.w3.org/Graphics/SVG/1.1/DTD/svg11.dtd">
<svg xmlns:xlink="http://www.w3.org/1999/xlink" width="460.8pt" height="345.6pt" viewBox="0 0 460.8 345.6" xmlns="http://www.w3.org/2000/svg" version="1.1">
 <metadata>
  <rdf:RDF xmlns:dc="http://purl.org/dc/elements/1.1/" xmlns:cc="http://creativecommons.org/ns#" xmlns:rdf="http://www.w3.org/1999/02/22-rdf-syntax-ns#">
   <cc:Work>
    <dc:type rdf:resource="http://purl.org/dc/dcmitype/StillImage"/>
    <dc:date>2024-09-28T21:50:00.060902</dc:date>
    <dc:format>image/svg+xml</dc:format>
    <dc:creator>
     <cc:Agent>
      <dc:title>Matplotlib v3.9.2, https://matplotlib.org/</dc:title>
     </cc:Agent>
    </dc:creator>
   </cc:Work>
  </rdf:RDF>
 </metadata>
 <defs>
  <style type="text/css">*{stroke-linejoin: round; stroke-linecap: butt}</style>
 </defs>
 <g id="figure_1">
  <g id="patch_1">
   <path d="M 0 345.6 
L 460.8 345.6 
L 460.8 0 
L 0 0 
z
" style="fill: #ffffff"/>
  </g>
  <g id="axes_1">
   <g id="patch_2">
    <path d="M 57.6 307.584 
L 414.72 307.584 
L 414.72 41.472 
L 57.6 41.472 
z
" style="fill: #ffffff"/>
   </g>
   <g id="PathCollection_1">
    <defs>
     <path id="m5d4a0c3129" d="M 0 1 
C 0.265203 1 0.51958 0.894634 0.707107 0.707107 
C 0.894634 0.51958 1 0.265203 1 0 
C 1 -0.265203 0.894634 -0.51958 0.707107 -0.707107 
C 0.51958 -0.894634 0.265203 -1 0 -1 
C -0.265203 -1 -0.51958 -0.894634 -0.707107 -0.707107 
C -0.894634 -0.51958 -1 -0.265203 -1 0 
C -1 0.265203 -0.894634 0.51958 -0.707107 0.707107 
C -0.51958 0.894634 -0.265203 1 0 1 
z
" style="stroke: #808080"/>
    </defs>
    <g clip-path="url(#p41bf170238)">
     <use xlink:href="#m5d4a0c3129" x="-1" y="600.622349" style="fill: #808080; stroke: #808080"/>
     <use xlink:href="#m5d4a0c3129" x="25.878104" y="520.649985" style="fill: #808080; stroke: #808080"/>
     <use xlink:href="#m5d4a0c3129" x="57.6" y="441.690228" style="fill: #808080; stroke: #808080"/>
     <use xlink:href="#m5d4a0c3129" x="82.205414" y="388.002966" style="fill: #808080; stroke: #808080"/>
     <use xlink:href="#m5d4a0c3129" x="102.309502" y="348.502415" style="fill: #808080; stroke: #808080"/>
     <use xlink:href="#m5d4a0c3129" x="119.307265" y="317.89376" style="fill: #808080; stroke: #808080"/>
     <use xlink:href="#m5d4a0c3129" x="134.031398" y="293.288841" style="fill: #808080; stroke: #808080"/>
     <use xlink:href="#m5d4a0c3129" x="147.019003" y="272.960279" style="fill: #808080; stroke: #808080"/>
     <use xlink:href="#m5d4a0c3129" x="158.636812" y="255.804828" style="fill: #808080; stroke: #808080"/>
     <use xlink:href="#m5d4a0c3129" x="235.06821" y="163.792903" style="fill: #808080; stroke: #808080"/>
     <use xlink:href="#m5d4a0c3129" x="279.777711" y="123.721868" style="fill: #808080; stroke: #808080"/>
     <use xlink:href="#m5d4a0c3129" x="311.499608" y="100.1464" style="fill: #808080; stroke: #808080"/>
     <use xlink:href="#m5d4a0c3129" x="336.105022" y="84.231996" style="fill: #808080; stroke: #808080"/>
     <use xlink:href="#m5d4a0c3129" x="356.209109" y="72.594798" style="fill: #808080; stroke: #808080"/>
     <use xlink:href="#m5d4a0c3129" x="373.206873" y="63.624435" style="fill: #808080; stroke: #808080"/>
     <use xlink:href="#m5d4a0c3129" x="387.931005" y="56.446553" style="fill: #808080; stroke: #808080"/>
     <use xlink:href="#m5d4a0c3129" x="400.918611" y="50.53955" style="fill: #808080; stroke: #808080"/>
     <use xlink:href="#m5d4a0c3129" x="412.53642" y="45.571419" style="fill: #808080; stroke: #808080"/>
     <use xlink:href="#m5d4a0c3129" x="423.046006" y="41.319251" style="fill: #808080; stroke: #808080"/>
     <use xlink:href="#m5d4a0c3129" x="432.640507" y="37.627449" style="fill: #808080; stroke: #808080"/>
     <use xlink:href="#m5d4a0c3129" x="449.638271" y="31.503917" style="fill: #808080; stroke: #808080"/>
     <use xlink:href="#m5d4a0c3129" x="464.362403" y="26.598851" style="fill: #808080; stroke: #808080"/>
     <use xlink:href="#m5d4a0c3129" x="477.350009" y="22.554122" style="fill: #808080; stroke: #808080"/>
     <use xlink:href="#m5d4a0c3129" x="488.967818" y="19.142409" style="fill: #808080; stroke: #808080"/>
     <use xlink:href="#m5d4a0c3129" x="499.477404" y="16.211941" style="fill: #808080; stroke: #808080"/>
     <use xlink:href="#m5d4a0c3129" x="509.071905" y="13.656851" style="fill: #808080; stroke: #808080"/>
     <use xlink:href="#m5d4a0c3129" x="517.89799" y="11.400516" style="fill: #808080; stroke: #808080"/>
     <use xlink:href="#m5d4a0c3129" x="526.069668" y="9.386977" style="fill: #808080; stroke: #808080"/>
     <use xlink:href="#m5d4a0c3129" x="533.677319" y="7.573836" style="fill: #808080; stroke: #808080"/>
     <use xlink:href="#m5d4a0c3129" x="550.675083" y="3.720213" style="fill: #808080; stroke: #808080"/>
     <use xlink:href="#m5d4a0c3129" x="565.399215" y="0.584744" style="fill: #808080; stroke: #808080"/>
     <use xlink:href="#m5d4a0c3129" x="573.258148" y="-1" style="fill: #808080; stroke: #808080"/>
     <use xlink:href="#m5d4a0c3129" x="816.458044" y="-1" style="fill: #808080; stroke: #808080"/>
     <use xlink:href="#m5d4a0c3129" x="819.298823" y="-0.699047" style="fill: #808080; stroke: #808080"/>
     <use xlink:href="#m5d4a0c3129" x="824.678778" y="-0.133626" style="fill: #808080; stroke: #808080"/>
     <use xlink:href="#m5d4a0c3129" x="829.80841" y="0.401061" style="fill: #808080; stroke: #808080"/>
     <use xlink:href="#m5d4a0c3129" x="834.709981" y="0.908113" style="fill: #808080; stroke: #808080"/>
     <use xlink:href="#m5d4a0c3129" x="839.40291" y="1.389746" style="fill: #808080; stroke: #808080"/>
     <use xlink:href="#m5d4a0c3129" x="843.904237" y="1.848214" style="fill: #808080; stroke: #808080"/>
     <use xlink:href="#m5d4a0c3129" x="854.413824" y="2.90487" style="fill: #808080; stroke: #808080"/>
     <use xlink:href="#m5d4a0c3129" x="864.008325" y="3.852083" style="fill: #808080; stroke: #808080"/>
     <use xlink:href="#m5d4a0c3129" x="872.83441" y="4.708058" style="fill: #808080; stroke: #808080"/>
     <use xlink:href="#m5d4a0c3129" x="881.006088" y="5.486564" style="fill: #808080; stroke: #808080"/>
     <use xlink:href="#m5d4a0c3129" x="888.613739" y="6.198506" style="fill: #808080; stroke: #808080"/>
     <use xlink:href="#m5d4a0c3129" x="895.730221" y="6.852862" style="fill: #808080; stroke: #808080"/>
     <use xlink:href="#m5d4a0c3129" x="902.415128" y="7.456493" style="fill: #808080; stroke: #808080"/>
     <use xlink:href="#m5d4a0c3129" x="908.717826" y="8.015329" style="fill: #808080; stroke: #808080"/>
     <use xlink:href="#m5d4a0c3129" x="914.679667" y="8.534281" style="fill: #808080; stroke: #808080"/>
     <use xlink:href="#m5d4a0c3129" x="920.335635" y="9.017151" style="fill: #808080; stroke: #808080"/>
     <use xlink:href="#m5d4a0c3129" x="930.845222" y="9.888645" style="fill: #808080; stroke: #808080"/>
     <use xlink:href="#m5d4a0c3129" x="940.439722" y="10.652601" style="fill: #808080; stroke: #808080"/>
     <use xlink:href="#m5d4a0c3129" x="949.265808" y="11.325907" style="fill: #808080; stroke: #808080"/>
     <use xlink:href="#m5d4a0c3129" x="957.437486" y="11.921883" style="fill: #808080; stroke: #808080"/>
     <use xlink:href="#m5d4a0c3129" x="965.045137" y="12.451695" style="fill: #808080; stroke: #808080"/>
     <use xlink:href="#m5d4a0c3129" x="972.161619" y="12.92341" style="fill: #808080; stroke: #808080"/>
     <use xlink:href="#m5d4a0c3129" x="978.846526" y="13.345329" style="fill: #808080; stroke: #808080"/>
     <use xlink:href="#m5d4a0c3129" x="985.149224" y="13.721956" style="fill: #808080; stroke: #808080"/>
     <use xlink:href="#m5d4a0c3129" x="991.111065" y="14.059448" style="fill: #808080; stroke: #808080"/>
     <use xlink:href="#m5d4a0c3129" x="996.767033" y="14.361953" style="fill: #808080; stroke: #808080"/>
     <use xlink:href="#m5d4a0c3129" x="1002.146988" y="14.633322" style="fill: #808080; stroke: #808080"/>
     <use xlink:href="#m5d4a0c3129" x="1007.276619" y="14.875959" style="fill: #808080; stroke: #808080"/>
     <use xlink:href="#m5d4a0c3129" x="1012.178191" y="15.093933" style="fill: #808080; stroke: #808080"/>
     <use xlink:href="#m5d4a0c3129" x="1016.87112" y="15.288156" style="fill: #808080; stroke: #808080"/>
     <use xlink:href="#m5d4a0c3129" x="1021.372447" y="15.461764" style="fill: #808080; stroke: #808080"/>
     <use xlink:href="#m5d4a0c3129" x="1025.697205" y="15.616371" style="fill: #808080; stroke: #808080"/>
     <use xlink:href="#m5d4a0c3129" x="1029.858726" y="15.753633" style="fill: #808080; stroke: #808080"/>
     <use xlink:href="#m5d4a0c3129" x="1033.868884" y="15.874945" style="fill: #808080; stroke: #808080"/>
     <use xlink:href="#m5d4a0c3129" x="1037.738305" y="15.981688" style="fill: #808080; stroke: #808080"/>
     <use xlink:href="#m5d4a0c3129" x="1041.476535" y="16.075196" style="fill: #808080; stroke: #808080"/>
     <use xlink:href="#m5d4a0c3129" x="1045.092176" y="16.156539" style="fill: #808080; stroke: #808080"/>
     <use xlink:href="#m5d4a0c3129" x="1048.593016" y="16.226745" style="fill: #808080; stroke: #808080"/>
     <use xlink:href="#m5d4a0c3129" x="1051.986121" y="16.287024" style="fill: #808080; stroke: #808080"/>
     <use xlink:href="#m5d4a0c3129" x="1055.277924" y="16.338247" style="fill: #808080; stroke: #808080"/>
     <use xlink:href="#m5d4a0c3129" x="1058.474298" y="16.381087" style="fill: #808080; stroke: #808080"/>
     <use xlink:href="#m5d4a0c3129" x="1061.580622" y="16.41618" style="fill: #808080; stroke: #808080"/>
     <use xlink:href="#m5d4a0c3129" x="1064.60183" y="16.440278" style="fill: #808080; stroke: #808080"/>
     <use xlink:href="#m5d4a0c3129" x="1067.542463" y="16.478365" style="fill: #808080; stroke: #808080"/>
     <use xlink:href="#m5d4a0c3129" x="1070.406707" y="16.515151" style="fill: #808080; stroke: #808080"/>
     <use xlink:href="#m5d4a0c3129" x="1073.198431" y="16.548848" style="fill: #808080; stroke: #808080"/>
     <use xlink:href="#m5d4a0c3129" x="1075.921216" y="16.580655" style="fill: #808080; stroke: #808080"/>
     <use xlink:href="#m5d4a0c3129" x="1078.578385" y="16.611439" style="fill: #808080; stroke: #808080"/>
     <use xlink:href="#m5d4a0c3129" x="1081.173027" y="16.641902" style="fill: #808080; stroke: #808080"/>
     <use xlink:href="#m5d4a0c3129" x="1083.708017" y="16.67285" style="fill: #808080; stroke: #808080"/>
     <use xlink:href="#m5d4a0c3129" x="1086.186036" y="16.70483" style="fill: #808080; stroke: #808080"/>
     <use xlink:href="#m5d4a0c3129" x="1088.609589" y="16.738579" style="fill: #808080; stroke: #808080"/>
     <use xlink:href="#m5d4a0c3129" x="1090.981018" y="16.774577" style="fill: #808080; stroke: #808080"/>
     <use xlink:href="#m5d4a0c3129" x="1093.302518" y="16.813222" style="fill: #808080; stroke: #808080"/>
     <use xlink:href="#m5d4a0c3129" x="1095.576149" y="16.854923" style="fill: #808080; stroke: #808080"/>
     <use xlink:href="#m5d4a0c3129" x="1097.803845" y="16.899916" style="fill: #808080; stroke: #808080"/>
     <use xlink:href="#m5d4a0c3129" x="1102.128603" y="17.000014" style="fill: #808080; stroke: #808080"/>
     <use xlink:href="#m5d4a0c3129" x="1106.290123" y="17.113001" style="fill: #808080; stroke: #808080"/>
     <use xlink:href="#m5d4a0c3129" x="1110.300282" y="17.23654" style="fill: #808080; stroke: #808080"/>
     <use xlink:href="#m5d4a0c3129" x="1114.169703" y="17.367089" style="fill: #808080; stroke: #808080"/>
     <use xlink:href="#m5d4a0c3129" x="1117.907932" y="17.501165" style="fill: #808080; stroke: #808080"/>
     <use xlink:href="#m5d4a0c3129" x="1121.523574" y="17.636261" style="fill: #808080; stroke: #808080"/>
     <use xlink:href="#m5d4a0c3129" x="1125.024414" y="17.770721" style="fill: #808080; stroke: #808080"/>
     <use xlink:href="#m5d4a0c3129" x="1128.417519" y="17.904149" style="fill: #808080; stroke: #808080"/>
     <use xlink:href="#m5d4a0c3129" x="1131.709321" y="18.036874" style="fill: #808080; stroke: #808080"/>
     <use xlink:href="#m5d4a0c3129" x="1134.905696" y="18.169913" style="fill: #808080; stroke: #808080"/>
     <use xlink:href="#m5d4a0c3129" x="1142.513347" y="18.554672" style="fill: #808080; stroke: #808080"/>
     <use xlink:href="#m5d4a0c3129" x="1149.629829" y="18.950209" style="fill: #808080; stroke: #808080"/>
     <use xlink:href="#m5d4a0c3129" x="1156.314736" y="19.319671" style="fill: #808080; stroke: #808080"/>
     <use xlink:href="#m5d4a0c3129" x="1162.617434" y="19.660203" style="fill: #808080; stroke: #808080"/>
     <use xlink:href="#m5d4a0c3129" x="1168.579275" y="19.977305" style="fill: #808080; stroke: #808080"/>
     <use xlink:href="#m5d4a0c3129" x="1174.235243" y="20.261521" style="fill: #808080; stroke: #808080"/>
     <use xlink:href="#m5d4a0c3129" x="1184.744829" y="20.803885" style="fill: #808080; stroke: #808080"/>
     <use xlink:href="#m5d4a0c3129" x="1188.683362" y="21.000585" style="fill: #808080; stroke: #808080"/>
     <use xlink:href="#m5d4a0c3129" x="1194.33933" y="21.280839" style="fill: #808080; stroke: #808080"/>
     <use xlink:href="#m5d4a0c3129" x="1201.024237" y="21.618247" style="fill: #808080; stroke: #808080"/>
     <use xlink:href="#m5d4a0c3129" x="1206.177453" y="21.848549" style="fill: #808080; stroke: #808080"/>
     <use xlink:href="#m5d4a0c3129" x="1207.326935" y="21.91736" style="fill: #808080; stroke: #808080"/>
     <use xlink:href="#m5d4a0c3129" x="1218.944744" y="22.435137" style="fill: #808080; stroke: #808080"/>
     <use xlink:href="#m5d4a0c3129" x="1229.454331" y="22.890374" style="fill: #808080; stroke: #808080"/>
     <use xlink:href="#m5d4a0c3129" x="1239.048832" y="23.282678" style="fill: #808080; stroke: #808080"/>
     <use xlink:href="#m5d4a0c3129" x="1245.010673" y="23.515439" style="fill: #808080; stroke: #808080"/>
     <use xlink:href="#m5d4a0c3129" x="1250.666641" y="23.727196" style="fill: #808080; stroke: #808080"/>
     <use xlink:href="#m5d4a0c3129" x="1263.654246" y="24.179446" style="fill: #808080; stroke: #808080"/>
     <use xlink:href="#m5d4a0c3129" x="1270.770728" y="24.405126" style="fill: #808080; stroke: #808080"/>
     <use xlink:href="#m5d4a0c3129" x="1275.272055" y="24.53821" style="fill: #808080; stroke: #808080"/>
     <use xlink:href="#m5d4a0c3129" x="1285.781641" y="24.822147" style="fill: #808080; stroke: #808080"/>
     <use xlink:href="#m5d4a0c3129" x="1293.896023" y="25.014689" style="fill: #808080; stroke: #808080"/>
     <use xlink:href="#m5d4a0c3129" x="1295.376142" y="25.047727" style="fill: #808080; stroke: #808080"/>
    </g>
   </g>
   <g id="matplotlib.axis_1">
    <g id="xtick_1">
     <g id="line2d_1">
      <defs>
       <path id="m09daaa5936" d="M 0 0 
L 0 3.5 
" style="stroke: #000000; stroke-width: 0.8"/>
      </defs>
      <g>
       <use xlink:href="#m09daaa5936" x="158.636812" y="307.584" style="stroke: #000000; stroke-width: 0.8"/>
      </g>
     </g>
     <g id="text_1">
      <!-- $\mathdefault{10^{0}}$ -->
      <g transform="translate(149.836812 322.182437) scale(0.1 -0.1)">
       <defs>
        <path id="DejaVuSans-31" d="M 794 531 
L 1825 531 
L 1825 4091 
L 703 3866 
L 703 4441 
L 1819 4666 
L 2450 4666 
L 2450 531 
L 3481 531 
L 3481 0 
L 794 0 
L 794 531 
z
" transform="scale(0.015625)"/>
        <path id="DejaVuSans-30" d="M 2034 4250 
Q 1547 4250 1301 3770 
Q 1056 3291 1056 2328 
Q 1056 1369 1301 889 
Q 1547 409 2034 409 
Q 2525 409 2770 889 
Q 3016 1369 3016 2328 
Q 3016 3291 2770 3770 
Q 2525 4250 2034 4250 
z
M 2034 4750 
Q 2819 4750 3233 4129 
Q 3647 3509 3647 2328 
Q 3647 1150 3233 529 
Q 2819 -91 2034 -91 
Q 1250 -91 836 529 
Q 422 1150 422 2328 
Q 422 3509 836 4129 
Q 1250 4750 2034 4750 
z
" transform="scale(0.015625)"/>
       </defs>
       <use xlink:href="#DejaVuSans-31" transform="translate(0 0.765625)"/>
       <use xlink:href="#DejaVuSans-30" transform="translate(63.623047 0.765625)"/>
       <use xlink:href="#DejaVuSans-30" transform="translate(128.203125 39.046875) scale(0.7)"/>
      </g>
     </g>
    </g>
    <g id="xtick_2">
     <g id="line2d_2">
      <g>
       <use xlink:href="#m09daaa5936" x="412.53642" y="307.584" style="stroke: #000000; stroke-width: 0.8"/>
      </g>
     </g>
     <g id="text_2">
      <!-- $\mathdefault{10^{1}}$ -->
      <g transform="translate(403.73642 322.182437) scale(0.1 -0.1)">
       <use xlink:href="#DejaVuSans-31" transform="translate(0 0.684375)"/>
       <use xlink:href="#DejaVuSans-30" transform="translate(63.623047 0.684375)"/>
       <use xlink:href="#DejaVuSans-31" transform="translate(128.203125 38.965625) scale(0.7)"/>
      </g>
     </g>
    </g>
    <g id="xtick_3">
     <g id="line2d_3">
      <defs>
       <path id="m32752ce82b" d="M 0 0 
L 0 2 
" style="stroke: #000000; stroke-width: 0.6"/>
      </defs>
      <g>
       <use xlink:href="#m32752ce82b" x="57.6" y="307.584" style="stroke: #000000; stroke-width: 0.6"/>
      </g>
     </g>
    </g>
    <g id="xtick_4">
     <g id="line2d_4">
      <g>
       <use xlink:href="#m32752ce82b" x="82.205414" y="307.584" style="stroke: #000000; stroke-width: 0.6"/>
      </g>
     </g>
    </g>
    <g id="xtick_5">
     <g id="line2d_5">
      <g>
       <use xlink:href="#m32752ce82b" x="102.309502" y="307.584" style="stroke: #000000; stroke-width: 0.6"/>
      </g>
     </g>
    </g>
    <g id="xtick_6">
     <g id="line2d_6">
      <g>
       <use xlink:href="#m32752ce82b" x="119.307265" y="307.584" style="stroke: #000000; stroke-width: 0.6"/>
      </g>
     </g>
    </g>
    <g id="xtick_7">
     <g id="line2d_7">
      <g>
       <use xlink:href="#m32752ce82b" x="134.031398" y="307.584" style="stroke: #000000; stroke-width: 0.6"/>
      </g>
     </g>
    </g>
    <g id="xtick_8">
     <g id="line2d_8">
      <g>
       <use xlink:href="#m32752ce82b" x="147.019003" y="307.584" style="stroke: #000000; stroke-width: 0.6"/>
      </g>
     </g>
    </g>
    <g id="xtick_9">
     <g id="line2d_9">
      <g>
       <use xlink:href="#m32752ce82b" x="235.06821" y="307.584" style="stroke: #000000; stroke-width: 0.6"/>
      </g>
     </g>
    </g>
    <g id="xtick_10">
     <g id="line2d_10">
      <g>
       <use xlink:href="#m32752ce82b" x="279.777711" y="307.584" style="stroke: #000000; stroke-width: 0.6"/>
      </g>
     </g>
    </g>
    <g id="xtick_11">
     <g id="line2d_11">
      <g>
       <use xlink:href="#m32752ce82b" x="311.499608" y="307.584" style="stroke: #000000; stroke-width: 0.6"/>
      </g>
     </g>
    </g>
    <g id="xtick_12">
     <g id="line2d_12">
      <g>
       <use xlink:href="#m32752ce82b" x="336.105022" y="307.584" style="stroke: #000000; stroke-width: 0.6"/>
      </g>
     </g>
    </g>
    <g id="xtick_13">
     <g id="line2d_13">
      <g>
       <use xlink:href="#m32752ce82b" x="356.209109" y="307.584" style="stroke: #000000; stroke-width: 0.6"/>
      </g>
     </g>
    </g>
    <g id="xtick_14">
     <g id="line2d_14">
      <g>
       <use xlink:href="#m32752ce82b" x="373.206873" y="307.584" style="stroke: #000000; stroke-width: 0.6"/>
      </g>
     </g>
    </g>
    <g id="xtick_15">
     <g id="line2d_15">
      <g>
       <use xlink:href="#m32752ce82b" x="387.931005" y="307.584" style="stroke: #000000; stroke-width: 0.6"/>
      </g>
     </g>
    </g>
    <g id="xtick_16">
     <g id="line2d_16">
      <g>
       <use xlink:href="#m32752ce82b" x="400.918611" y="307.584" style="stroke: #000000; stroke-width: 0.6"/>
      </g>
     </g>
    </g>
    <g id="text_3">
     <!-- $E_\mathrm{lab}$ / keV -->
     <g transform="translate(204.1 338.899937) scale(0.14 -0.14)">
      <defs>
       <path id="DejaVuSans-Oblique-45" d="M 1081 4666 
L 4031 4666 
L 3928 4134 
L 1606 4134 
L 1338 2753 
L 3566 2753 
L 3463 2222 
L 1234 2222 
L 909 531 
L 3284 531 
L 3181 0 
L 172 0 
L 1081 4666 
z
" transform="scale(0.015625)"/>
       <path id="DejaVuSans-6c" d="M 603 4863 
L 1178 4863 
L 1178 0 
L 603 0 
L 603 4863 
z
" transform="scale(0.015625)"/>
       <path id="DejaVuSans-61" d="M 2194 1759 
Q 1497 1759 1228 1600 
Q 959 1441 959 1056 
Q 959 750 1161 570 
Q 1363 391 1709 391 
Q 2188 391 2477 730 
Q 2766 1069 2766 1631 
L 2766 1759 
L 2194 1759 
z
M 3341 1997 
L 3341 0 
L 2766 0 
L 2766 531 
Q 2569 213 2275 61 
Q 1981 -91 1556 -91 
Q 1019 -91 701 211 
Q 384 513 384 1019 
Q 384 1609 779 1909 
Q 1175 2209 1959 2209 
L 2766 2209 
L 2766 2266 
Q 2766 2663 2505 2880 
Q 2244 3097 1772 3097 
Q 1472 3097 1187 3025 
Q 903 2953 641 2809 
L 641 3341 
Q 956 3463 1253 3523 
Q 1550 3584 1831 3584 
Q 2591 3584 2966 3190 
Q 3341 2797 3341 1997 
z
" transform="scale(0.015625)"/>
       <path id="DejaVuSans-62" d="M 3116 1747 
Q 3116 2381 2855 2742 
Q 2594 3103 2138 3103 
Q 1681 3103 1420 2742 
Q 1159 2381 1159 1747 
Q 1159 1113 1420 752 
Q 1681 391 2138 391 
Q 2594 391 2855 752 
Q 3116 1113 3116 1747 
z
M 1159 2969 
Q 1341 3281 1617 3432 
Q 1894 3584 2278 3584 
Q 2916 3584 3314 3078 
Q 3713 2572 3713 1747 
Q 3713 922 3314 415 
Q 2916 -91 2278 -91 
Q 1894 -91 1617 61 
Q 1341 213 1159 525 
L 1159 0 
L 581 0 
L 581 4863 
L 1159 4863 
L 1159 2969 
z
" transform="scale(0.015625)"/>
       <path id="DejaVuSans-20" transform="scale(0.015625)"/>
       <path id="DejaVuSans-2f" d="M 1625 4666 
L 2156 4666 
L 531 -594 
L 0 -594 
L 1625 4666 
z
" transform="scale(0.015625)"/>
       <path id="DejaVuSans-6b" d="M 581 4863 
L 1159 4863 
L 1159 1991 
L 2875 3500 
L 3609 3500 
L 1753 1863 
L 3688 0 
L 2938 0 
L 1159 1709 
L 1159 0 
L 581 0 
L 581 4863 
z
" transform="scale(0.015625)"/>
       <path id="DejaVuSans-65" d="M 3597 1894 
L 3597 1613 
L 953 1613 
Q 991 1019 1311 708 
Q 1631 397 2203 397 
Q 2534 397 2845 478 
Q 3156 559 3463 722 
L 3463 178 
Q 3153 47 2828 -22 
Q 2503 -91 2169 -91 
Q 1331 -91 842 396 
Q 353 884 353 1716 
Q 353 2575 817 3079 
Q 1281 3584 2069 3584 
Q 2775 3584 3186 3129 
Q 3597 2675 3597 1894 
z
M 3022 2063 
Q 3016 2534 2758 2815 
Q 2500 3097 2075 3097 
Q 1594 3097 1305 2825 
Q 1016 2553 972 2059 
L 3022 2063 
z
" transform="scale(0.015625)"/>
       <path id="DejaVuSans-56" d="M 1831 0 
L 50 4666 
L 709 4666 
L 2188 738 
L 3669 4666 
L 4325 4666 
L 2547 0 
L 1831 0 
z
" transform="scale(0.015625)"/>
      </defs>
      <use xlink:href="#DejaVuSans-Oblique-45" transform="translate(0 0.015625)"/>
      <use xlink:href="#DejaVuSans-6c" transform="translate(63.183594 -16.390625) scale(0.7)"/>
      <use xlink:href="#DejaVuSans-61" transform="translate(82.631836 -16.390625) scale(0.7)"/>
      <use xlink:href="#DejaVuSans-62" transform="translate(125.527344 -16.390625) scale(0.7)"/>
      <use xlink:href="#DejaVuSans-20" transform="translate(172.695312 0.015625)"/>
      <use xlink:href="#DejaVuSans-2f" transform="translate(204.482422 0.015625)"/>
      <use xlink:href="#DejaVuSans-20" transform="translate(238.173828 0.015625)"/>
      <use xlink:href="#DejaVuSans-6b" transform="translate(269.960938 0.015625)"/>
      <use xlink:href="#DejaVuSans-65" transform="translate(327.871094 0.015625)"/>
      <use xlink:href="#DejaVuSans-56" transform="translate(389.394531 0.015625)"/>
     </g>
    </g>
   </g>
   <g id="matplotlib.axis_2">
    <g id="ytick_1">
     <g id="line2d_17">
      <defs>
       <path id="m779c973f87" d="M 0 0 
L -3.5 0 
" style="stroke: #000000; stroke-width: 0.8"/>
      </defs>
      <g>
       <use xlink:href="#m779c973f87" x="57.6" y="307.584" style="stroke: #000000; stroke-width: 0.8"/>
      </g>
     </g>
     <g id="text_4">
      <!-- $\mathdefault{10^{-18}}$ -->
      <g transform="translate(22.7 311.383219) scale(0.1 -0.1)">
       <defs>
        <path id="DejaVuSans-2212" d="M 678 2272 
L 4684 2272 
L 4684 1741 
L 678 1741 
L 678 2272 
z
" transform="scale(0.015625)"/>
        <path id="DejaVuSans-38" d="M 2034 2216 
Q 1584 2216 1326 1975 
Q 1069 1734 1069 1313 
Q 1069 891 1326 650 
Q 1584 409 2034 409 
Q 2484 409 2743 651 
Q 3003 894 3003 1313 
Q 3003 1734 2745 1975 
Q 2488 2216 2034 2216 
z
M 1403 2484 
Q 997 2584 770 2862 
Q 544 3141 544 3541 
Q 544 4100 942 4425 
Q 1341 4750 2034 4750 
Q 2731 4750 3128 4425 
Q 3525 4100 3525 3541 
Q 3525 3141 3298 2862 
Q 3072 2584 2669 2484 
Q 3125 2378 3379 2068 
Q 3634 1759 3634 1313 
Q 3634 634 3220 271 
Q 2806 -91 2034 -91 
Q 1263 -91 848 271 
Q 434 634 434 1313 
Q 434 1759 690 2068 
Q 947 2378 1403 2484 
z
M 1172 3481 
Q 1172 3119 1398 2916 
Q 1625 2713 2034 2713 
Q 2441 2713 2670 2916 
Q 2900 3119 2900 3481 
Q 2900 3844 2670 4047 
Q 2441 4250 2034 4250 
Q 1625 4250 1398 4047 
Q 1172 3844 1172 3481 
z
" transform="scale(0.015625)"/>
       </defs>
       <use xlink:href="#DejaVuSans-31" transform="translate(0 0.765625)"/>
       <use xlink:href="#DejaVuSans-30" transform="translate(63.623047 0.765625)"/>
       <use xlink:href="#DejaVuSans-2212" transform="translate(128.203125 39.046875) scale(0.7)"/>
       <use xlink:href="#DejaVuSans-31" transform="translate(186.855469 39.046875) scale(0.7)"/>
       <use xlink:href="#DejaVuSans-38" transform="translate(231.391602 39.046875) scale(0.7)"/>
      </g>
     </g>
    </g>
    <g id="ytick_2">
     <g id="line2d_18">
      <g>
       <use xlink:href="#m779c973f87" x="57.6" y="273.19621" style="stroke: #000000; stroke-width: 0.8"/>
      </g>
     </g>
     <g id="text_5">
      <!-- $\mathdefault{10^{-16}}$ -->
      <g transform="translate(22.7 276.995428) scale(0.1 -0.1)">
       <defs>
        <path id="DejaVuSans-36" d="M 2113 2584 
Q 1688 2584 1439 2293 
Q 1191 2003 1191 1497 
Q 1191 994 1439 701 
Q 1688 409 2113 409 
Q 2538 409 2786 701 
Q 3034 994 3034 1497 
Q 3034 2003 2786 2293 
Q 2538 2584 2113 2584 
z
M 3366 4563 
L 3366 3988 
Q 3128 4100 2886 4159 
Q 2644 4219 2406 4219 
Q 1781 4219 1451 3797 
Q 1122 3375 1075 2522 
Q 1259 2794 1537 2939 
Q 1816 3084 2150 3084 
Q 2853 3084 3261 2657 
Q 3669 2231 3669 1497 
Q 3669 778 3244 343 
Q 2819 -91 2113 -91 
Q 1303 -91 875 529 
Q 447 1150 447 2328 
Q 447 3434 972 4092 
Q 1497 4750 2381 4750 
Q 2619 4750 2861 4703 
Q 3103 4656 3366 4563 
z
" transform="scale(0.015625)"/>
       </defs>
       <use xlink:href="#DejaVuSans-31" transform="translate(0 0.765625)"/>
       <use xlink:href="#DejaVuSans-30" transform="translate(63.623047 0.765625)"/>
       <use xlink:href="#DejaVuSans-2212" transform="translate(128.203125 39.046875) scale(0.7)"/>
       <use xlink:href="#DejaVuSans-31" transform="translate(186.855469 39.046875) scale(0.7)"/>
       <use xlink:href="#DejaVuSans-36" transform="translate(231.391602 39.046875) scale(0.7)"/>
      </g>
     </g>
    </g>
    <g id="ytick_3">
     <g id="line2d_19">
      <g>
       <use xlink:href="#m779c973f87" x="57.6" y="238.808419" style="stroke: #000000; stroke-width: 0.8"/>
      </g>
     </g>
     <g id="text_6">
      <!-- $\mathdefault{10^{-14}}$ -->
      <g transform="translate(22.7 242.607638) scale(0.1 -0.1)">
       <defs>
        <path id="DejaVuSans-34" d="M 2419 4116 
L 825 1625 
L 2419 1625 
L 2419 4116 
z
M 2253 4666 
L 3047 4666 
L 3047 1625 
L 3713 1625 
L 3713 1100 
L 3047 1100 
L 3047 0 
L 2419 0 
L 2419 1100 
L 313 1100 
L 313 1709 
L 2253 4666 
z
" transform="scale(0.015625)"/>
       </defs>
       <use xlink:href="#DejaVuSans-31" transform="translate(0 0.684375)"/>
       <use xlink:href="#DejaVuSans-30" transform="translate(63.623047 0.684375)"/>
       <use xlink:href="#DejaVuSans-2212" transform="translate(128.203125 38.965625) scale(0.7)"/>
       <use xlink:href="#DejaVuSans-31" transform="translate(186.855469 38.965625) scale(0.7)"/>
       <use xlink:href="#DejaVuSans-34" transform="translate(231.391602 38.965625) scale(0.7)"/>
      </g>
     </g>
    </g>
    <g id="ytick_4">
     <g id="line2d_20">
      <g>
       <use xlink:href="#m779c973f87" x="57.6" y="204.420629" style="stroke: #000000; stroke-width: 0.8"/>
      </g>
     </g>
     <g id="text_7">
      <!-- $\mathdefault{10^{-12}}$ -->
      <g transform="translate(22.7 208.219848) scale(0.1 -0.1)">
       <defs>
        <path id="DejaVuSans-32" d="M 1228 531 
L 3431 531 
L 3431 0 
L 469 0 
L 469 531 
Q 828 903 1448 1529 
Q 2069 2156 2228 2338 
Q 2531 2678 2651 2914 
Q 2772 3150 2772 3378 
Q 2772 3750 2511 3984 
Q 2250 4219 1831 4219 
Q 1534 4219 1204 4116 
Q 875 4013 500 3803 
L 500 4441 
Q 881 4594 1212 4672 
Q 1544 4750 1819 4750 
Q 2544 4750 2975 4387 
Q 3406 4025 3406 3419 
Q 3406 3131 3298 2873 
Q 3191 2616 2906 2266 
Q 2828 2175 2409 1742 
Q 1991 1309 1228 531 
z
" transform="scale(0.015625)"/>
       </defs>
       <use xlink:href="#DejaVuSans-31" transform="translate(0 0.765625)"/>
       <use xlink:href="#DejaVuSans-30" transform="translate(63.623047 0.765625)"/>
       <use xlink:href="#DejaVuSans-2212" transform="translate(128.203125 39.046875) scale(0.7)"/>
       <use xlink:href="#DejaVuSans-31" transform="translate(186.855469 39.046875) scale(0.7)"/>
       <use xlink:href="#DejaVuSans-32" transform="translate(231.391602 39.046875) scale(0.7)"/>
      </g>
     </g>
    </g>
    <g id="ytick_5">
     <g id="line2d_21">
      <g>
       <use xlink:href="#m779c973f87" x="57.6" y="170.032839" style="stroke: #000000; stroke-width: 0.8"/>
      </g>
     </g>
     <g id="text_8">
      <!-- $\mathdefault{10^{-10}}$ -->
      <g transform="translate(22.7 173.832058) scale(0.1 -0.1)">
       <use xlink:href="#DejaVuSans-31" transform="translate(0 0.765625)"/>
       <use xlink:href="#DejaVuSans-30" transform="translate(63.623047 0.765625)"/>
       <use xlink:href="#DejaVuSans-2212" transform="translate(128.203125 39.046875) scale(0.7)"/>
       <use xlink:href="#DejaVuSans-31" transform="translate(186.855469 39.046875) scale(0.7)"/>
       <use xlink:href="#DejaVuSans-30" transform="translate(231.391602 39.046875) scale(0.7)"/>
      </g>
     </g>
    </g>
    <g id="ytick_6">
     <g id="line2d_22">
      <g>
       <use xlink:href="#m779c973f87" x="57.6" y="135.645049" style="stroke: #000000; stroke-width: 0.8"/>
      </g>
     </g>
     <g id="text_9">
      <!-- $\mathdefault{10^{-8}}$ -->
      <g transform="translate(27.1 139.444267) scale(0.1 -0.1)">
       <use xlink:href="#DejaVuSans-31" transform="translate(0 0.765625)"/>
       <use xlink:href="#DejaVuSans-30" transform="translate(63.623047 0.765625)"/>
       <use xlink:href="#DejaVuSans-2212" transform="translate(128.203125 39.046875) scale(0.7)"/>
       <use xlink:href="#DejaVuSans-38" transform="translate(186.855469 39.046875) scale(0.7)"/>
      </g>
     </g>
    </g>
    <g id="ytick_7">
     <g id="line2d_23">
      <g>
       <use xlink:href="#m779c973f87" x="57.6" y="101.257258" style="stroke: #000000; stroke-width: 0.8"/>
      </g>
     </g>
     <g id="text_10">
      <!-- $\mathdefault{10^{-6}}$ -->
      <g transform="translate(27.1 105.056477) scale(0.1 -0.1)">
       <use xlink:href="#DejaVuSans-31" transform="translate(0 0.765625)"/>
       <use xlink:href="#DejaVuSans-30" transform="translate(63.623047 0.765625)"/>
       <use xlink:href="#DejaVuSans-2212" transform="translate(128.203125 39.046875) scale(0.7)"/>
       <use xlink:href="#DejaVuSans-36" transform="translate(186.855469 39.046875) scale(0.7)"/>
      </g>
     </g>
    </g>
    <g id="ytick_8">
     <g id="line2d_24">
      <g>
       <use xlink:href="#m779c973f87" x="57.6" y="66.869468" style="stroke: #000000; stroke-width: 0.8"/>
      </g>
     </g>
     <g id="text_11">
      <!-- $\mathdefault{10^{-4}}$ -->
      <g transform="translate(27.1 70.668687) scale(0.1 -0.1)">
       <use xlink:href="#DejaVuSans-31" transform="translate(0 0.684375)"/>
       <use xlink:href="#DejaVuSans-30" transform="translate(63.623047 0.684375)"/>
       <use xlink:href="#DejaVuSans-2212" transform="translate(128.203125 38.965625) scale(0.7)"/>
       <use xlink:href="#DejaVuSans-34" transform="translate(186.855469 38.965625) scale(0.7)"/>
      </g>
     </g>
    </g>
    <g id="text_12">
     <!-- $\sigma$ / ba -->
     <g transform="translate(15.788437 194.548) rotate(-90) scale(0.14 -0.14)">
      <defs>
       <path id="DejaVuSans-Oblique-3c3" d="M 2219 3044 
Q 1744 3044 1422 2700 
Q 1081 2341 969 1747 
Q 844 1119 1044 756 
Q 1241 397 1706 397 
Q 2166 397 2503 759 
Q 2844 1122 2966 1747 
Q 3075 2319 2881 2700 
Q 2700 3044 2219 3044 
z
M 2309 3503 
L 4219 3500 
L 4106 2925 
L 3463 2925 
Q 3706 2438 3575 1747 
Q 3406 888 2884 400 
Q 2359 -91 1609 -91 
Q 856 -91 525 400 
Q 194 888 363 1747 
Q 528 2609 1050 3097 
Q 1484 3503 2309 3503 
z
" transform="scale(0.015625)"/>
      </defs>
      <use xlink:href="#DejaVuSans-Oblique-3c3" transform="translate(0 0.015625)"/>
      <use xlink:href="#DejaVuSans-20" transform="translate(63.378906 0.015625)"/>
      <use xlink:href="#DejaVuSans-2f" transform="translate(95.166016 0.015625)"/>
      <use xlink:href="#DejaVuSans-20" transform="translate(128.857422 0.015625)"/>
      <use xlink:href="#DejaVuSans-62" transform="translate(160.644531 0.015625)"/>
      <use xlink:href="#DejaVuSans-61" transform="translate(224.121094 0.015625)"/>
     </g>
    </g>
   </g>
   <g id="line2d_25">
    <path d="M 102.398168 346.6 
L 102.718609 342.211259 
L 103.153567 338.665943 
L 103.802804 335.312084 
L 104.662549 332.372347 
L 105.515643 330.268534 
L 106.572812 328.269802 
L 107.82818 326.415919 
L 109.274937 324.710976 
L 110.905459 323.145177 
L 112.910281 321.56027 
L 115.074283 320.134645 
L 117.768436 318.642445 
L 119.278904 317.906991 
L 119.840038 313.176831 
L 120.39833 310.183211 
L 121.13835 307.458378 
L 122.056445 305.041564 
L 123.148163 302.901962 
L 124.408321 300.996672 
L 125.831086 299.286487 
L 127.410055 297.738976 
L 129.309696 296.200624 
L 131.513333 294.715584 
L 134.002446 293.303957 
L 134.819819 288.8332 
L 135.631177 285.97767 
L 136.436609 283.917082 
L 137.395425 282.019201 
L 138.503607 280.282549 
L 139.912242 278.516636 
L 141.456571 276.946536 
L 143.281661 275.415561 
L 145.373442 273.953566 
L 146.989592 272.977043 
L 148.150271 268.445611 
L 149.012833 266.209755 
L 150.0107 264.239835 
L 151.140171 262.484467 
L 152.535933 260.747679 
L 154.051136 259.212355 
L 155.815394 257.729703 
L 157.948739 256.234789 
L 158.607033 255.822987 
L 158.869254 209.782458 
L 159.26142 202.397838 
L 159.782148 197.855262 
L 160.429619 194.488503 
L 161.201598 191.788938 
L 162.095463 189.526181 
L 163.108228 187.574145 
L 164.236579 185.855542 
L 165.600177 184.181673 
L 167.190258 182.591507 
L 168.99692 181.098604 
L 171.126553 179.629353 
L 173.674791 178.154878 
L 176.612334 176.720583 
L 180.123538 175.265851 
L 184.256955 173.807136 
L 189.040758 172.359991 
L 194.766303 170.868041 
L 201.551154 169.339548 
L 209.525595 167.777781 
L 219.030272 166.150344 
L 230.275409 164.45678 
L 235.036776 163.797161 
L 235.886737 153.121519 
L 236.471357 149.86526 
L 237.181709 147.184147 
L 238.015358 144.907285 
L 238.969493 142.929531 
L 240.103664 141.090711 
L 241.412285 139.396698 
L 242.950185 137.780616 
L 244.707686 136.260686 
L 246.792166 134.761931 
L 249.1849 133.319877 
L 252.034303 131.870814 
L 255.359152 130.437133 
L 259.273693 128.998072 
L 263.865544 127.551848 
L 269.288745 126.081558 
L 275.735609 124.570907 
L 279.789474 123.66828 
L 280.487087 121.021158 
L 281.309811 118.755697 
L 282.297595 116.700804 
L 283.44599 114.843402 
L 284.749934 113.160178 
L 286.286335 111.548619 
L 288.045395 110.029581 
L 290.095983 108.555031 
L 292.499594 107.104944 
L 295.308832 105.673996 
L 298.639713 104.2345 
L 302.551046 102.794062 
L 307.150497 101.343413 
L 311.598538 99.949936 
L 312.674953 98.083003 
L 313.933678 96.348755 
L 315.400093 94.715724 
L 317.097016 93.166299 
L 319.074942 91.668685 
L 321.378558 90.209574 
L 324.074983 88.770583 
L 327.248753 87.335627 
L 330.967996 85.903669 
L 335.361451 84.456478 
L 336.203787 84.10753 
L 337.636686 82.492253 
L 339.30645 80.947124 
L 341.252307 79.453548 
L 343.533082 77.989533 
L 346.199583 76.548442 
L 349.339814 75.111436 
L 353.025248 73.676241 
L 356.526071 72.300873 
L 358.364432 70.778986 
L 360.488687 69.312998 
L 362.984926 67.865541 
L 365.907682 66.43317 
L 369.339004 65.004158 
L 373.828661 63.161717 
L 376.043298 61.696573 
L 378.643453 60.249801 
L 381.688279 58.816482 
L 385.274784 57.380725 
L 388.552735 56.050005 
L 391.084379 54.60419 
L 394.056879 53.169013 
L 397.554313 51.734126 
L 402.046604 49.913456 
L 404.966336 48.477469 
L 408.398183 47.043945 
L 412.438008 45.603857 
L 413.184163 45.241268 
L 416.297 43.809061 
L 419.96417 42.373145 
L 425.035219 40.419477 
L 428.654253 38.984629 
L 432.640507 37.627449 
L 432.640507 37.627449 
" clip-path="url(#p41bf170238)" style="fill: none; stroke: #1f77b4; stroke-width: 0.5; stroke-linecap: square"/>
   </g>
   <g id="line2d_26">
    <path d="M -1 272.003148 
L 1.471929 271.297294 
L 4.167751 270.7481 
L 6.799234 270.427725 
L 9.36938 270.333217 
L 11.880981 270.48103 
L 13.849869 270.800464 
L 15.784217 271.339621 
L 17.21303 271.926777 
L 18.623565 272.72041 
L 20.016285 273.79705 
L 20.935087 274.735991 
L 21.846296 275.930454 
L 22.750037 277.505273 
L 23.646432 279.712725 
L 24.091911 281.220742 
L 24.535598 283.199821 
L 24.977506 286.029286 
L 25.417651 290.888377 
L 25.856046 313.42894 
L 25.856904 346.6 
M 57.901601 346.6 
L 57.902849 282.210423 
L 58.229542 276.59493 
L 58.88004 271.016977 
L 59.526722 267.71395 
L 60.48969 264.363069 
L 61.444321 261.961903 
L 62.390758 260.098575 
L 63.640169 258.146535 
L 64.875581 256.612203 
L 66.400633 255.113795 
L 67.904881 253.972305 
L 69.388883 253.122764 
L 70.853178 252.531969 
L 72.298283 252.188801 
L 73.724694 252.102053 
L 74.852684 252.238151 
L 75.969252 252.591166 
L 77.074627 253.217914 
L 77.896447 253.926402 
L 78.712187 254.920194 
L 79.521936 256.336041 
L 80.058484 257.643296 
L 80.592434 259.427966 
L 81.123811 262.069048 
L 81.388543 263.996383 
L 81.65264 266.745482 
L 81.916106 271.414814 
L 82.178944 289.108819 
L 82.179836 346.6 
M 102.499406 346.6 
L 102.500485 263.00531 
L 102.936303 253.840219 
L 103.370404 249.650882 
L 104.01837 245.754073 
L 104.662549 243.085224 
L 105.515643 240.48102 
L 106.362188 238.52001 
L 107.41131 236.64467 
L 108.450544 235.218848 
L 109.480076 234.134682 
L 110.500083 233.334426 
L 111.510742 232.789475 
L 112.512222 232.492437 
L 113.504687 232.456093 
L 114.292278 232.63924 
L 115.074283 233.050143 
L 115.850782 233.753801 
L 116.429588 234.541934 
L 117.005372 235.649662 
L 117.578165 237.246399 
L 118.147998 239.7101 
L 118.526257 242.320871 
L 118.903223 246.910787 
L 119.091223 251.422145 
L 119.278904 266.41612 
L 119.279792 346.6 
M 134.165411 346.6 
L 134.166406 243.778571 
L 134.493596 234.308119 
L 134.982569 228.546059 
L 135.631177 224.259342 
L 136.275993 221.420604 
L 137.076745 218.873263 
L 137.871725 216.992597 
L 138.818196 215.320436 
L 139.756612 214.122439 
L 140.68711 213.314369 
L 141.456571 212.915222 
L 142.2207 212.768876 
L 142.828213 212.850759 
L 143.432397 213.138737 
L 144.033289 213.681489 
L 144.630925 214.565507 
L 145.225338 215.957194 
L 145.669055 217.542641 
L 146.110993 219.984416 
L 146.404638 222.563318 
L 146.697503 227.0632 
L 146.843644 231.415159 
L 146.989592 244.450285 
L 146.99047 346.6 
M 158.737277 346.6 
L 158.738221 224.482653 
L 159.000131 214.7317 
L 159.391833 208.852252 
L 159.911946 204.4047 
L 160.558658 200.721987 
L 161.329737 197.52376 
L 162.349527 194.311335 
L 163.485629 191.503012 
L 164.734386 188.987584 
L 166.214463 186.511716 
L 167.916479 184.12562 
L 169.711378 181.985249 
L 171.827388 179.819949 
L 174.131845 177.788219 
L 176.723769 175.808678 
L 179.582229 173.912842 
L 182.685462 172.120332 
L 186.113652 170.395109 
L 189.933594 168.727471 
L 194.007162 167.193657 
L 198.39407 165.782268 
L 202.964827 164.546922 
L 207.606441 163.521572 
L 212.222098 162.729008 
L 216.652286 162.194208 
L 220.687296 161.92554 
L 224.363147 161.899152 
L 227.569799 162.090995 
L 230.412385 162.480989 
L 232.849291 163.037635 
L 234.905429 163.727423 
L 239.03281 165.264962 
L 239.915444 165.254594 
L 240.728754 165.015718 
L 241.53611 164.534023 
L 242.399009 163.751663 
L 243.437818 162.492114 
L 244.827866 160.426591 
L 247.965841 155.220759 
L 250.84651 150.672069 
L 253.431861 147.009788 
L 256.06651 143.670097 
L 258.85142 140.506108 
L 261.825414 137.468112 
L 265.021751 134.520684 
L 268.516301 131.60168 
L 272.325522 128.71029 
L 276.504332 125.818675 
L 281.223497 122.830146 
L 285.416953 120.111804 
L 288.854098 117.597485 
L 293.431099 113.942875 
L 303.012635 106.247364 
L 308.068114 102.516235 
L 313.096126 99.084804 
L 331.270059 87.231121 
L 338.333353 82.89215 
L 349.17675 76.551146 
L 358.19271 71.509971 
L 368.344286 66.117028 
L 377.927316 61.267074 
L 388.226018 56.308062 
L 398.527151 51.598775 
L 409.009608 47.049324 
L 419.779993 42.616839 
L 430.821153 38.314064 
L 432.640507 37.627449 
L 432.640507 37.627449 
" clip-path="url(#p41bf170238)" style="fill: none; stroke: #ff7f0e; stroke-width: 0.5; stroke-linecap: square"/>
   </g>
   <g id="line2d_27">
    <path d="M 103.365961 346.6 
L 120.95381 315.142283 
L 135.954056 290.279442 
L 149.298861 269.593725 
L 159.26142 255.052894 
L 235.625908 163.293064 
L 280.747558 123.001085 
L 312.934327 99.218446 
L 338.050057 83.106118 
L 358.707074 71.276528 
L 376.317026 62.108264 
L 391.704348 54.730367 
L 405.401204 48.622656 
L 417.771027 43.453502 
L 429.084277 38.995826 
L 432.640507 37.627449 
L 432.640507 37.627449 
" clip-path="url(#p41bf170238)" style="fill: none; stroke: #2ca02c; stroke-width: 0.5; stroke-linecap: square"/>
   </g>
   <g id="line2d_28">
    <path d="M 103.327309 346.6 
L 110.500083 333.4477 
L 117.95838 320.234347 
L 125.299698 307.673572 
L 132.681915 295.473498 
L 140.222843 283.44201 
L 147.716447 271.903587 
L 155.275546 260.671896 
L 162.855907 249.803583 
L 170.539102 239.177325 
L 178.162261 229.009988 
L 185.90889 219.049641 
L 193.625623 209.488291 
L 201.373164 200.238738 
L 209.194219 191.244814 
L 217.116561 182.473472 
L 225.083839 173.983523 
L 233.116763 165.7465 
L 241.288322 157.686381 
L 249.473177 149.924199 
L 257.735198 142.39393 
L 266.066934 135.099662 
L 274.503573 128.008819 
L 283.022052 121.139059 
L 291.638746 114.474961 
L 300.358944 108.011364 
L 309.212875 101.725834 
L 318.183088 95.630671 
L 327.277191 89.720414 
L 336.49186 83.996938 
L 345.86377 78.437936 
L 355.386127 73.0487 
L 365.063185 67.827319 
L 374.923083 62.760326 
L 384.971899 57.846957 
L 395.214587 53.08661 
L 405.680856 48.468063 
L 416.385746 43.987999 
L 427.342555 39.64416 
L 432.640507 37.627449 
L 432.640507 37.627449 
" clip-path="url(#p41bf170238)" style="fill: none; stroke: #d62728; stroke-width: 0.5; stroke-linecap: square"/>
   </g>
   <g id="patch_3">
    <path d="M 57.6 307.584 
L 57.6 41.472 
" style="fill: none; stroke: #000000; stroke-width: 0.8; stroke-linejoin: miter; stroke-linecap: square"/>
   </g>
   <g id="patch_4">
    <path d="M 414.72 307.584 
L 414.72 41.472 
" style="fill: none; stroke: #000000; stroke-width: 0.8; stroke-linejoin: miter; stroke-linecap: square"/>
   </g>
   <g id="patch_5">
    <path d="M 57.6 307.584 
L 414.72 307.584 
" style="fill: none; stroke: #000000; stroke-width: 0.8; stroke-linejoin: miter; stroke-linecap: square"/>
   </g>
   <g id="patch_6">
    <path d="M 57.6 41.472 
L 414.72 41.472 
" style="fill: none; stroke: #000000; stroke-width: 0.8; stroke-linejoin: miter; stroke-linecap: square"/>
   </g>
   <g id="text_13">
    <!-- D-T cross section -->
    <g transform="translate(185.281875 35.472) scale(0.12 -0.12)">
     <defs>
      <path id="DejaVuSans-44" d="M 1259 4147 
L 1259 519 
L 2022 519 
Q 2988 519 3436 956 
Q 3884 1394 3884 2338 
Q 3884 3275 3436 3711 
Q 2988 4147 2022 4147 
L 1259 4147 
z
M 628 4666 
L 1925 4666 
Q 3281 4666 3915 4102 
Q 4550 3538 4550 2338 
Q 4550 1131 3912 565 
Q 3275 0 1925 0 
L 628 0 
L 628 4666 
z
" transform="scale(0.015625)"/>
      <path id="DejaVuSans-2d" d="M 313 2009 
L 1997 2009 
L 1997 1497 
L 313 1497 
L 313 2009 
z
" transform="scale(0.015625)"/>
      <path id="DejaVuSans-54" d="M -19 4666 
L 3928 4666 
L 3928 4134 
L 2272 4134 
L 2272 0 
L 1638 0 
L 1638 4134 
L -19 4134 
L -19 4666 
z
" transform="scale(0.015625)"/>
      <path id="DejaVuSans-63" d="M 3122 3366 
L 3122 2828 
Q 2878 2963 2633 3030 
Q 2388 3097 2138 3097 
Q 1578 3097 1268 2742 
Q 959 2388 959 1747 
Q 959 1106 1268 751 
Q 1578 397 2138 397 
Q 2388 397 2633 464 
Q 2878 531 3122 666 
L 3122 134 
Q 2881 22 2623 -34 
Q 2366 -91 2075 -91 
Q 1284 -91 818 406 
Q 353 903 353 1747 
Q 353 2603 823 3093 
Q 1294 3584 2113 3584 
Q 2378 3584 2631 3529 
Q 2884 3475 3122 3366 
z
" transform="scale(0.015625)"/>
      <path id="DejaVuSans-72" d="M 2631 2963 
Q 2534 3019 2420 3045 
Q 2306 3072 2169 3072 
Q 1681 3072 1420 2755 
Q 1159 2438 1159 1844 
L 1159 0 
L 581 0 
L 581 3500 
L 1159 3500 
L 1159 2956 
Q 1341 3275 1631 3429 
Q 1922 3584 2338 3584 
Q 2397 3584 2469 3576 
Q 2541 3569 2628 3553 
L 2631 2963 
z
" transform="scale(0.015625)"/>
      <path id="DejaVuSans-6f" d="M 1959 3097 
Q 1497 3097 1228 2736 
Q 959 2375 959 1747 
Q 959 1119 1226 758 
Q 1494 397 1959 397 
Q 2419 397 2687 759 
Q 2956 1122 2956 1747 
Q 2956 2369 2687 2733 
Q 2419 3097 1959 3097 
z
M 1959 3584 
Q 2709 3584 3137 3096 
Q 3566 2609 3566 1747 
Q 3566 888 3137 398 
Q 2709 -91 1959 -91 
Q 1206 -91 779 398 
Q 353 888 353 1747 
Q 353 2609 779 3096 
Q 1206 3584 1959 3584 
z
" transform="scale(0.015625)"/>
      <path id="DejaVuSans-73" d="M 2834 3397 
L 2834 2853 
Q 2591 2978 2328 3040 
Q 2066 3103 1784 3103 
Q 1356 3103 1142 2972 
Q 928 2841 928 2578 
Q 928 2378 1081 2264 
Q 1234 2150 1697 2047 
L 1894 2003 
Q 2506 1872 2764 1633 
Q 3022 1394 3022 966 
Q 3022 478 2636 193 
Q 2250 -91 1575 -91 
Q 1294 -91 989 -36 
Q 684 19 347 128 
L 347 722 
Q 666 556 975 473 
Q 1284 391 1588 391 
Q 1994 391 2212 530 
Q 2431 669 2431 922 
Q 2431 1156 2273 1281 
Q 2116 1406 1581 1522 
L 1381 1569 
Q 847 1681 609 1914 
Q 372 2147 372 2553 
Q 372 3047 722 3315 
Q 1072 3584 1716 3584 
Q 2034 3584 2315 3537 
Q 2597 3491 2834 3397 
z
" transform="scale(0.015625)"/>
      <path id="DejaVuSans-74" d="M 1172 4494 
L 1172 3500 
L 2356 3500 
L 2356 3053 
L 1172 3053 
L 1172 1153 
Q 1172 725 1289 603 
Q 1406 481 1766 481 
L 2356 481 
L 2356 0 
L 1766 0 
Q 1100 0 847 248 
Q 594 497 594 1153 
L 594 3053 
L 172 3053 
L 172 3500 
L 594 3500 
L 594 4494 
L 1172 4494 
z
" transform="scale(0.015625)"/>
      <path id="DejaVuSans-69" d="M 603 3500 
L 1178 3500 
L 1178 0 
L 603 0 
L 603 3500 
z
M 603 4863 
L 1178 4863 
L 1178 4134 
L 603 4134 
L 603 4863 
z
" transform="scale(0.015625)"/>
      <path id="DejaVuSans-6e" d="M 3513 2113 
L 3513 0 
L 2938 0 
L 2938 2094 
Q 2938 2591 2744 2837 
Q 2550 3084 2163 3084 
Q 1697 3084 1428 2787 
Q 1159 2491 1159 1978 
L 1159 0 
L 581 0 
L 581 3500 
L 1159 3500 
L 1159 2956 
Q 1366 3272 1645 3428 
Q 1925 3584 2291 3584 
Q 2894 3584 3203 3211 
Q 3513 2838 3513 2113 
z
" transform="scale(0.015625)"/>
     </defs>
     <use xlink:href="#DejaVuSans-44"/>
     <use xlink:href="#DejaVuSans-2d" x="77.001953"/>
     <use xlink:href="#DejaVuSans-54" x="103.960938"/>
     <use xlink:href="#DejaVuSans-20" x="165.044922"/>
     <use xlink:href="#DejaVuSans-63" x="196.832031"/>
     <use xlink:href="#DejaVuSans-72" x="251.8125"/>
     <use xlink:href="#DejaVuSans-6f" x="290.675781"/>
     <use xlink:href="#DejaVuSans-73" x="351.857422"/>
     <use xlink:href="#DejaVuSans-73" x="403.957031"/>
     <use xlink:href="#DejaVuSans-20" x="456.056641"/>
     <use xlink:href="#DejaVuSans-73" x="487.84375"/>
     <use xlink:href="#DejaVuSans-65" x="539.943359"/>
     <use xlink:href="#DejaVuSans-63" x="601.466797"/>
     <use xlink:href="#DejaVuSans-74" x="656.447266"/>
     <use xlink:href="#DejaVuSans-69" x="695.65625"/>
     <use xlink:href="#DejaVuSans-6f" x="723.439453"/>
     <use xlink:href="#DejaVuSans-6e" x="784.621094"/>
    </g>
   </g>
   <g id="legend_1">
    <g id="patch_7">
     <path d="M 64.6 122.862625 
L 214.667187 122.862625 
Q 216.667187 122.862625 216.667187 120.862625 
L 216.667187 48.472 
Q 216.667187 46.472 214.667187 46.472 
L 64.6 46.472 
Q 62.6 46.472 62.6 48.472 
L 62.6 120.862625 
Q 62.6 122.862625 64.6 122.862625 
z
" style="fill: #ffffff; opacity: 0.8; stroke: #cccccc; stroke-linejoin: miter"/>
    </g>
    <g id="PathCollection_2">
     <g>
      <use xlink:href="#m5d4a0c3129" x="76.6" y="55.445438" style="fill: #808080; stroke: #808080"/>
     </g>
    </g>
    <g id="text_14">
     <!-- Data -->
     <g transform="translate(94.6 58.070438) scale(0.1 -0.1)">
      <use xlink:href="#DejaVuSans-44"/>
      <use xlink:href="#DejaVuSans-61" x="77.001953"/>
      <use xlink:href="#DejaVuSans-74" x="138.28125"/>
      <use xlink:href="#DejaVuSans-61" x="177.490234"/>
     </g>
    </g>
    <g id="line2d_29">
     <path d="M 66.6 69.248563 
L 76.6 69.248563 
L 86.6 69.248563 
" style="fill: none; stroke: #1f77b4; stroke-width: 0.5; stroke-linecap: square"/>
    </g>
    <g id="text_15">
     <!-- Linear interp. lin. space -->
     <g transform="translate(94.6 72.748563) scale(0.1 -0.1)">
      <defs>
       <path id="DejaVuSans-4c" d="M 628 4666 
L 1259 4666 
L 1259 531 
L 3531 531 
L 3531 0 
L 628 0 
L 628 4666 
z
" transform="scale(0.015625)"/>
       <path id="DejaVuSans-70" d="M 1159 525 
L 1159 -1331 
L 581 -1331 
L 581 3500 
L 1159 3500 
L 1159 2969 
Q 1341 3281 1617 3432 
Q 1894 3584 2278 3584 
Q 2916 3584 3314 3078 
Q 3713 2572 3713 1747 
Q 3713 922 3314 415 
Q 2916 -91 2278 -91 
Q 1894 -91 1617 61 
Q 1341 213 1159 525 
z
M 3116 1747 
Q 3116 2381 2855 2742 
Q 2594 3103 2138 3103 
Q 1681 3103 1420 2742 
Q 1159 2381 1159 1747 
Q 1159 1113 1420 752 
Q 1681 391 2138 391 
Q 2594 391 2855 752 
Q 3116 1113 3116 1747 
z
" transform="scale(0.015625)"/>
       <path id="DejaVuSans-2e" d="M 684 794 
L 1344 794 
L 1344 0 
L 684 0 
L 684 794 
z
" transform="scale(0.015625)"/>
      </defs>
      <use xlink:href="#DejaVuSans-4c"/>
      <use xlink:href="#DejaVuSans-69" x="55.712891"/>
      <use xlink:href="#DejaVuSans-6e" x="83.496094"/>
      <use xlink:href="#DejaVuSans-65" x="146.875"/>
      <use xlink:href="#DejaVuSans-61" x="208.398438"/>
      <use xlink:href="#DejaVuSans-72" x="269.677734"/>
      <use xlink:href="#DejaVuSans-20" x="310.791016"/>
      <use xlink:href="#DejaVuSans-69" x="342.578125"/>
      <use xlink:href="#DejaVuSans-6e" x="370.361328"/>
      <use xlink:href="#DejaVuSans-74" x="433.740234"/>
      <use xlink:href="#DejaVuSans-65" x="472.949219"/>
      <use xlink:href="#DejaVuSans-72" x="534.472656"/>
      <use xlink:href="#DejaVuSans-70" x="575.585938"/>
      <use xlink:href="#DejaVuSans-2e" x="639.0625"/>
      <use xlink:href="#DejaVuSans-20" x="670.849609"/>
      <use xlink:href="#DejaVuSans-6c" x="702.636719"/>
      <use xlink:href="#DejaVuSans-69" x="730.419922"/>
      <use xlink:href="#DejaVuSans-6e" x="758.203125"/>
      <use xlink:href="#DejaVuSans-2e" x="821.582031"/>
      <use xlink:href="#DejaVuSans-20" x="853.369141"/>
      <use xlink:href="#DejaVuSans-73" x="885.15625"/>
      <use xlink:href="#DejaVuSans-70" x="937.255859"/>
      <use xlink:href="#DejaVuSans-61" x="1000.732422"/>
      <use xlink:href="#DejaVuSans-63" x="1062.011719"/>
      <use xlink:href="#DejaVuSans-65" x="1116.992188"/>
     </g>
    </g>
    <g id="line2d_30">
     <path d="M 66.6 83.926688 
L 76.6 83.926688 
L 86.6 83.926688 
" style="fill: none; stroke: #ff7f0e; stroke-width: 0.5; stroke-linecap: square"/>
    </g>
    <g id="text_16">
     <!-- Cubic interp. lin. space -->
     <g transform="translate(94.6 87.426688) scale(0.1 -0.1)">
      <defs>
       <path id="DejaVuSans-43" d="M 4122 4306 
L 4122 3641 
Q 3803 3938 3442 4084 
Q 3081 4231 2675 4231 
Q 1875 4231 1450 3742 
Q 1025 3253 1025 2328 
Q 1025 1406 1450 917 
Q 1875 428 2675 428 
Q 3081 428 3442 575 
Q 3803 722 4122 1019 
L 4122 359 
Q 3791 134 3420 21 
Q 3050 -91 2638 -91 
Q 1578 -91 968 557 
Q 359 1206 359 2328 
Q 359 3453 968 4101 
Q 1578 4750 2638 4750 
Q 3056 4750 3426 4639 
Q 3797 4528 4122 4306 
z
" transform="scale(0.015625)"/>
       <path id="DejaVuSans-75" d="M 544 1381 
L 544 3500 
L 1119 3500 
L 1119 1403 
Q 1119 906 1312 657 
Q 1506 409 1894 409 
Q 2359 409 2629 706 
Q 2900 1003 2900 1516 
L 2900 3500 
L 3475 3500 
L 3475 0 
L 2900 0 
L 2900 538 
Q 2691 219 2414 64 
Q 2138 -91 1772 -91 
Q 1169 -91 856 284 
Q 544 659 544 1381 
z
M 1991 3584 
L 1991 3584 
z
" transform="scale(0.015625)"/>
      </defs>
      <use xlink:href="#DejaVuSans-43"/>
      <use xlink:href="#DejaVuSans-75" x="69.824219"/>
      <use xlink:href="#DejaVuSans-62" x="133.203125"/>
      <use xlink:href="#DejaVuSans-69" x="196.679688"/>
      <use xlink:href="#DejaVuSans-63" x="224.462891"/>
      <use xlink:href="#DejaVuSans-20" x="279.443359"/>
      <use xlink:href="#DejaVuSans-69" x="311.230469"/>
      <use xlink:href="#DejaVuSans-6e" x="339.013672"/>
      <use xlink:href="#DejaVuSans-74" x="402.392578"/>
      <use xlink:href="#DejaVuSans-65" x="441.601562"/>
      <use xlink:href="#DejaVuSans-72" x="503.125"/>
      <use xlink:href="#DejaVuSans-70" x="544.238281"/>
      <use xlink:href="#DejaVuSans-2e" x="607.714844"/>
      <use xlink:href="#DejaVuSans-20" x="639.501953"/>
      <use xlink:href="#DejaVuSans-6c" x="671.289062"/>
      <use xlink:href="#DejaVuSans-69" x="699.072266"/>
      <use xlink:href="#DejaVuSans-6e" x="726.855469"/>
      <use xlink:href="#DejaVuSans-2e" x="790.234375"/>
      <use xlink:href="#DejaVuSans-20" x="822.021484"/>
      <use xlink:href="#DejaVuSans-73" x="853.808594"/>
      <use xlink:href="#DejaVuSans-70" x="905.908203"/>
      <use xlink:href="#DejaVuSans-61" x="969.384766"/>
      <use xlink:href="#DejaVuSans-63" x="1030.664062"/>
      <use xlink:href="#DejaVuSans-65" x="1085.644531"/>
     </g>
    </g>
    <g id="line2d_31">
     <path d="M 66.6 98.604813 
L 76.6 98.604813 
L 86.6 98.604813 
" style="fill: none; stroke: #2ca02c; stroke-width: 0.5; stroke-linecap: square"/>
    </g>
    <g id="text_17">
     <!-- Lin. interp. log. space -->
     <g transform="translate(94.6 102.104813) scale(0.1 -0.1)">
      <defs>
       <path id="DejaVuSans-67" d="M 2906 1791 
Q 2906 2416 2648 2759 
Q 2391 3103 1925 3103 
Q 1463 3103 1205 2759 
Q 947 2416 947 1791 
Q 947 1169 1205 825 
Q 1463 481 1925 481 
Q 2391 481 2648 825 
Q 2906 1169 2906 1791 
z
M 3481 434 
Q 3481 -459 3084 -895 
Q 2688 -1331 1869 -1331 
Q 1566 -1331 1297 -1286 
Q 1028 -1241 775 -1147 
L 775 -588 
Q 1028 -725 1275 -790 
Q 1522 -856 1778 -856 
Q 2344 -856 2625 -561 
Q 2906 -266 2906 331 
L 2906 616 
Q 2728 306 2450 153 
Q 2172 0 1784 0 
Q 1141 0 747 490 
Q 353 981 353 1791 
Q 353 2603 747 3093 
Q 1141 3584 1784 3584 
Q 2172 3584 2450 3431 
Q 2728 3278 2906 2969 
L 2906 3500 
L 3481 3500 
L 3481 434 
z
" transform="scale(0.015625)"/>
      </defs>
      <use xlink:href="#DejaVuSans-4c"/>
      <use xlink:href="#DejaVuSans-69" x="55.712891"/>
      <use xlink:href="#DejaVuSans-6e" x="83.496094"/>
      <use xlink:href="#DejaVuSans-2e" x="146.875"/>
      <use xlink:href="#DejaVuSans-20" x="178.662109"/>
      <use xlink:href="#DejaVuSans-69" x="210.449219"/>
      <use xlink:href="#DejaVuSans-6e" x="238.232422"/>
      <use xlink:href="#DejaVuSans-74" x="301.611328"/>
      <use xlink:href="#DejaVuSans-65" x="340.820312"/>
      <use xlink:href="#DejaVuSans-72" x="402.34375"/>
      <use xlink:href="#DejaVuSans-70" x="443.457031"/>
      <use xlink:href="#DejaVuSans-2e" x="506.933594"/>
      <use xlink:href="#DejaVuSans-20" x="538.720703"/>
      <use xlink:href="#DejaVuSans-6c" x="570.507812"/>
      <use xlink:href="#DejaVuSans-6f" x="598.291016"/>
      <use xlink:href="#DejaVuSans-67" x="659.472656"/>
      <use xlink:href="#DejaVuSans-2e" x="722.949219"/>
      <use xlink:href="#DejaVuSans-20" x="754.736328"/>
      <use xlink:href="#DejaVuSans-73" x="786.523438"/>
      <use xlink:href="#DejaVuSans-70" x="838.623047"/>
      <use xlink:href="#DejaVuSans-61" x="902.099609"/>
      <use xlink:href="#DejaVuSans-63" x="963.378906"/>
      <use xlink:href="#DejaVuSans-65" x="1018.359375"/>
     </g>
    </g>
    <g id="line2d_32">
     <path d="M 66.6 113.282938 
L 76.6 113.282938 
L 86.6 113.282938 
" style="fill: none; stroke: #d62728; stroke-width: 0.5; stroke-linecap: square"/>
    </g>
    <g id="text_18">
     <!-- Cubic interp. log. space -->
     <g transform="translate(94.6 116.782938) scale(0.1 -0.1)">
      <use xlink:href="#DejaVuSans-43"/>
      <use xlink:href="#DejaVuSans-75" x="69.824219"/>
      <use xlink:href="#DejaVuSans-62" x="133.203125"/>
      <use xlink:href="#DejaVuSans-69" x="196.679688"/>
      <use xlink:href="#DejaVuSans-63" x="224.462891"/>
      <use xlink:href="#DejaVuSans-20" x="279.443359"/>
      <use xlink:href="#DejaVuSans-69" x="311.230469"/>
      <use xlink:href="#DejaVuSans-6e" x="339.013672"/>
      <use xlink:href="#DejaVuSans-74" x="402.392578"/>
      <use xlink:href="#DejaVuSans-65" x="441.601562"/>
      <use xlink:href="#DejaVuSans-72" x="503.125"/>
      <use xlink:href="#DejaVuSans-70" x="544.238281"/>
      <use xlink:href="#DejaVuSans-2e" x="607.714844"/>
      <use xlink:href="#DejaVuSans-20" x="639.501953"/>
      <use xlink:href="#DejaVuSans-6c" x="671.289062"/>
      <use xlink:href="#DejaVuSans-6f" x="699.072266"/>
      <use xlink:href="#DejaVuSans-67" x="760.253906"/>
      <use xlink:href="#DejaVuSans-2e" x="823.730469"/>
      <use xlink:href="#DejaVuSans-20" x="855.517578"/>
      <use xlink:href="#DejaVuSans-73" x="887.304688"/>
      <use xlink:href="#DejaVuSans-70" x="939.404297"/>
      <use xlink:href="#DejaVuSans-61" x="1002.880859"/>
      <use xlink:href="#DejaVuSans-63" x="1064.160156"/>
      <use xlink:href="#DejaVuSans-65" x="1119.140625"/>
     </g>
    </g>
   </g>
  </g>
 </g>
 <defs>
  <clipPath id="p41bf170238">
   <rect x="57.6" y="41.472" width="357.12" height="266.112"/>
  </clipPath>
 </defs>
</svg>
