<?xml version="1.0" encoding="UTF-8" standalone="no"?>
<svg
   width="490pt"
   height="368.43033pt"
   viewBox="0 0 490.00001 368.43033"
   version="1.1"
   id="svg2"
   sodipodi:docname="sin_and_sinsq.svg"
   inkscape:version="1.4 (1:1.4+202410161351+e7c3feb100)"
   xmlns:inkscape="http://www.inkscape.org/namespaces/inkscape"
   xmlns:sodipodi="http://sodipodi.sourceforge.net/DTD/sodipodi-0.dtd"
   xmlns:xlink="http://www.w3.org/1999/xlink"
   xmlns="http://www.w3.org/2000/svg"
   xmlns:svg="http://www.w3.org/2000/svg">
  <sodipodi:namedview
     id="namedview2"
     pagecolor="#ffffff"
     bordercolor="#666666"
     borderopacity="1.0"
     inkscape:showpageshadow="2"
     inkscape:pageopacity="0.0"
     inkscape:pagecheckerboard="0"
     inkscape:deskcolor="#d1d1d1"
     inkscape:document-units="pt"
     inkscape:zoom="0.821875"
     inkscape:cx="351.02662"
     inkscape:cy="298.09886"
     inkscape:window-width="1189"
     inkscape:window-height="1211"
     inkscape:window-x="1256"
     inkscape:window-y="46"
     inkscape:window-maximized="0"
     inkscape:current-layer="svg2" />
  <defs
     id="defs2">
    <linearGradient
       id="linearGradient44"
       inkscape:collect="always">
      <stop
         style="stop-color:#00ffff;stop-opacity:1;"
         offset="0"
         id="stop44" />
      <stop
         style="stop-color:#72ffff;stop-opacity:1;"
         offset="0.21499388"
         id="stop46" />
      <stop
         style="stop-color:#00cccc;stop-opacity:1;"
         offset="1"
         id="stop45" />
    </linearGradient>
    <linearGradient
       id="linearGradient10"
       inkscape:collect="always">
      <stop
         style="stop-color:#ffffff;stop-opacity:1;"
         offset="0.44993666"
         id="stop10" />
      <stop
         style="stop-color:#ffffff;stop-opacity:0;"
         offset="1"
         id="stop11" />
    </linearGradient>
    <marker
       style="overflow:visible"
       id="RoundedArrow"
       refX="0"
       refY="0"
       orient="auto-start-reverse"
       inkscape:stockid="Rounded arrow"
       markerWidth="1"
       markerHeight="1"
       viewBox="0 0 1 1"
       inkscape:isstock="true"
       inkscape:collect="always"
       preserveAspectRatio="xMidYMid">
      <path
         transform="scale(0.7)"
         d="m -0.21114562,-4.1055728 6.42229122,3.21114561 a 1,1 90 0 1 0,1.78885438 L -0.21114562,4.1055728 A 1.236068,1.236068 31.717474 0 1 -2,3 v -6 a 1.236068,1.236068 148.28253 0 1 1.78885438,-1.1055728 z"
         style="fill:context-stroke;fill-rule:evenodd;stroke:none"
         id="path8" />
    </marker>
    <radialGradient
       inkscape:collect="always"
       xlink:href="#linearGradient10"
       id="radialGradient11"
       cx="46.682251"
       cy="91.138672"
       fx="46.682251"
       fy="91.138672"
       r="26.57361"
       gradientTransform="matrix(1,0,0,1.5619024,50.316237,-63.73413)"
       gradientUnits="userSpaceOnUse" />
    <linearGradient
       inkscape:collect="always"
       xlink:href="#linearGradient44"
       id="linearGradient45"
       x1="394.12656"
       y1="186.55232"
       x2="474.20212"
       y2="186.55232"
       gradientUnits="userSpaceOnUse" />
    <linearGradient
       inkscape:collect="always"
       xlink:href="#linearGradient44"
       id="linearGradient48"
       gradientUnits="userSpaceOnUse"
       x1="394.12656"
       y1="186.55232"
       x2="474.20212"
       y2="186.55232"
       gradientTransform="matrix(1,0,0,0.80172519,0,69.237229)" />
  </defs>
  <ellipse
     style="font-variation-settings:normal;opacity:1;vector-effect:none;fill:none;fill-opacity:0.388473;stroke:#000053;stroke-width:2;stroke-linecap:butt;stroke-linejoin:miter;stroke-miterlimit:4;stroke-dasharray:none;stroke-dashoffset:0;stroke-opacity:1;-inkscape-stroke:none;stop-color:#000000;stop-opacity:1"
     id="path39"
     cx="27.018621"
     cy="193.09036"
     rx="71.495491"
     ry="15.58478" />
  <g
     id="surface7"
     transform="translate(19.7139,14.629537)">
    <path
       style="fill:none;stroke:#a8a8a8;stroke-width:2;stroke-linecap:square;stroke-linejoin:miter;stroke-miterlimit:3.25;stroke-opacity:1"
       d="m 73.199219,185 v 0.33203 l 0.0039,0.33203 V 186 l 0.0039,0.33203 v 0.33203 l 0.0039,0.33203 0.0039,0.33594 0.0039,0.33203 0.0078,0.33203 0.0039,0.33203 0.0078,0.33594 0.02344,0.9961 0.01953,0.66796 0.04687,1.32813 0.01172,0.33594 0.07813,1.66015 0.03516,0.66797 0.07422,1.32813 0.02344,0.33203 0.01953,0.33203 0.04688,0.66406 0.09766,1.32813 0.02344,0.33203 0.08203,0.99609 0.117188,1.32813 0.0625,0.66406 0.06641,0.66016 0.140625,1.32812 0.304688,2.64453 0.04687,0.35938 0.04297,0.35547 0.09375,0.71875 0.195313,1.42968 0.429687,2.85547 0.05469,0.35547 0.05859,0.35938 0.117187,0.71093 0.242188,1.42188 0.523437,2.83984 0.06641,0.35547 0.07031,0.35547 0.140625,0.70703 0.292969,1.41406 0.617187,2.82422 1.371094,5.60938 0.08594,0.32422 0.08984,0.32421 0.175781,0.65235 0.355469,1.30078 0.746094,2.58984 1.613281,5.14844 0.105469,0.31641 0.109375,0.32031 0.214844,0.64062 0.4375,1.27344 0.90625,2.53906 1.933594,5.03516 0.121093,0.30859 0.125,0.30469 0.25,0.61328 0.507813,1.22266 1.039062,2.42969 2.195313,4.80859 0.140625,0.30078 0.144531,0.29688 0.285156,0.59375 0.582031,1.1875 1.1875,2.36328 2.484376,4.66797 0.171874,0.3125 0.175782,0.3125 0.347656,0.6289 0.710938,1.2461 1.445312,2.47656 3.019534,4.875 0.19141,0.30078 0.58594,0.90234 0.78906,1.19922 1.60937,2.3711 3.33594,4.66797 0.19922,0.26953 0.19922,0.26562 0.40234,0.53906 0.8086,1.06641 1.64062,2.11328 3.37891,4.14844 0.21484,0.25781 0.21875,0.25391 0.43359,0.51172 0.8711,1.01172 1.76953,2.00781 3.63281,3.93359 0.5,0.52344 0.50391,0.52344 1.01172,1.03906 2.05468,2.04687 4.20313,3.9961 0.26953,0.24219 0.26562,0.24609 0.53907,0.48828 1.08203,0.96484 2.18359,1.90625 4.46485,3.70313 0.27734,0.22266 0.28125,0.22265 0.55469,0.44141 1.125,0.8789 2.26562,1.72266 4.61328,3.33984 0.58594,0.40625 0.58594,0.40235 1.17578,0.80078 2.375,1.57422 4.82422,3.02344 0.57031,0.34375 0.57031,0.33984 1.14453,0.67187 2.30079,1.32422 4.66796,2.53516 0.29688,0.15234 0.29297,0.15235 0.58984,0.30468 1.1836,0.60547 2.38281,1.17578 4.8125,2.24219 0.33203,0.14844 0.32812,0.14453 0.66016,0.29297 1.32031,0.57031 2.65625,1.10938 5.3711,2.08984 0.33593,0.12109 0.33985,0.125 0.67578,0.2461 1.35547,0.48047 2.72656,0.93359 5.49609,1.72266 0.32422,0.0976 0.32032,0.0937 0.64843,0.1875 1.29297,0.36328 2.59375,0.70313 0.32813,0.0859 0.32422,0.082 0.65234,0.16797 1.30469,0.32422 2.61328,0.62109 1.3125,0.29687 1.3125,0.28516 2.63672,0.53906 0.32812,0.0625 0.33203,0.0625 0.66016,0.12891 1.32031,0.24219 2.65235,0.45703 0.32421,0.0547 0.32422,0.0508 0.65235,0.10156 1.30078,0.19922 0.32812,0.0508 0.32422,0.0469 0.65235,0.0937 1.30859,0.17969 0.32422,0.043 0.32812,0.043 0.65235,0.082 1.30859,0.16016 2.62109,0.28515 0.32813,0.0352 0.98437,0.0937 1.3125,0.12109 1.3125,0.10938 1.3125,0.0976 0.33204,0.0234 0.32812,0.0234 0.65625,0.043 0.65625,0.0391 0.66016,0.0391 0.32812,0.0195 0.32813,0.0156 0.66015,0.0352 0.65625,0.0312 0.66016,0.0273 0.35547,0.0117 0.35937,0.0156 0.35547,0.0117 0.35938,0.0117 0.35547,0.0117 0.35937,0.0117 0.71484,0.0195 0.35547,0.008 0.35938,0.008 0.35547,0.008 0.35937,0.004 0.35547,0.004 0.35938,0.008 0.35546,0.004 h 0.35938 l 0.35547,0.004 0.35937,0.004 h 1.07032 l 0.35937,-0.004 h 0.35547 l 0.35937,-0.004 0.35547,-0.004 0.35938,-0.004 0.35547,-0.004 0.35937,-0.008 0.35547,-0.004 0.35938,-0.008 0.35546,-0.008 0.35938,-0.008 0.35547,-0.0117 0.35937,-0.008 0.35547,-0.0117 0.35938,-0.0117 0.35547,-0.0117 0.35937,-0.0156 0.71484,-0.0273 0.35547,-0.0156 0.35938,-0.0156 0.71094,-0.0352 1.42968,-0.0781 0.35547,-0.0195 0.35938,-0.0234 0.71093,-0.0469 1.42969,-0.0976 0.35547,-0.0274 0.35547,-0.0312 0.71094,-0.0547 1.42578,-0.125 0.66406,-0.0625 0.66406,-0.0664 1.32813,-0.13672 0.33203,-0.0352 0.33203,-0.0391 0.66406,-0.0742 1.32422,-0.15625 0.32813,-0.043 0.33203,-0.0391 0.66406,-0.0859 1.32031,-0.17968 2.64063,-0.38672 0.32812,-0.0508 0.33203,-0.0508 0.65625,-0.10546 1.31641,-0.22266 2.62891,-0.46484 5.23047,-1.0586 0.35546,-0.0781 0.35157,-0.0781 0.70703,-0.16015 1.40625,-0.32813 2.8125,-0.6875 0.34765,-0.0898 0.35157,-0.0899 0.69922,-0.17968 1.39843,-0.375 2.78516,-0.78125 0.69531,-0.20313 0.69141,-0.20703 1.38281,-0.41797 2.75781,-0.875 5.46875,-1.88672 0.33594,-0.12109 0.33203,-0.125 0.66406,-0.2461 1.32813,-0.5 2.64453,-1.03906 5.23438,-2.20312 0.32421,-0.14063 0.32813,-0.14453 0.64453,-0.28906 1.29297,-0.58985 2.57031,-1.20703 5.07813,-2.54297 0.29687,-0.15234 0.29297,-0.15625 0.58203,-0.30859 1.16797,-0.625 2.32031,-1.27735 4.57813,-2.66015 0.57031,-0.34375 0.5625,-0.34375 1.12891,-0.69532 2.23437,-1.41796 4.41016,-2.9375 0.29297,-0.20313 0.29687,-0.20703 0.58985,-0.41016 1.17187,-0.82812 2.32422,-1.6875 4.5625,-3.49219 0.5625,-0.44531 0.5625,-0.44922 1.11328,-0.90625 2.20703,-1.83984 4.32031,-3.78516 0.25,-0.22656 0.2461,-0.22266 0.49609,-0.45312 0.98047,-0.91407 1.94531,-1.84375 3.80078,-3.78125 0.23438,-0.24218 0.23437,-0.23829 0.46485,-0.48437 0.92578,-0.96875 1.82422,-1.96484 3.5625,-4.00782 0.23437,-0.27734 0.23828,-0.27734 0.46875,-0.55079 0.9336,-1.11328 1.83984,-2.25 3.5625,-4.58984 0.21875,-0.28906 0.21485,-0.29297 0.43359,-0.58203 0.85547,-1.17578 1.68359,-2.36719 3.2461,-4.81641 0.19531,-0.30078 0.1914,-0.30078 0.38672,-0.59766 0.76172,-1.20703 1.49219,-2.42969 2.86719,-4.93359 0.17578,-0.30859 0.51562,-0.9375 0.6836,-1.25391 1.32812,-2.52344 2.53516,-5.10937 0.14453,-0.30078 0.42187,-0.90235 0.5586,-1.20703 1.08594,-2.42969 2.0625,-4.90625 0.125,-0.30859 0.12109,-0.30859 0.24609,-0.61719 0.48438,-1.24219 0.93359,-2.49219 1.75781,-5.02343 0.11329,-0.33985 0.10937,-0.34375 0.22656,-0.6875 0.4375,-1.37109 0.83985,-2.76172 0.10156,-0.34766 0.10156,-0.34375 0.19922,-0.69531 0.39063,-1.38672 0.75,-2.78515 0.0898,-0.35157 0.0898,-0.34765 0.17578,-0.69922 0.34766,-1.40234 0.65234,-2.8086 1.16797,-5.64844 0.125,-0.66406 0.1211,-0.66015 0.23828,-1.32813 0.4375,-2.65625 0.0508,-0.33203 0.0508,-0.33594 0.10156,-0.66406 0.19532,-1.33203 0.35546,-2.67188 0.043,-0.33203 0.0391,-0.33594 0.082,-0.66796 0.15234,-1.33985 0.0352,-0.33203 0.0351,-0.33594 0.0703,-0.66797 0.13281,-1.34375 0.0312,-0.33203 0.0273,-0.33593 0.0625,-0.67188 0.10938,-1.34375 0.0234,-0.33594 0.0274,-0.33593 0.0469,-0.66797 0.0899,-1.34766 0.0195,-0.32812 0.0234,-0.32813 0.0351,-0.66016 0.0195,-0.32812 0.0156,-0.33203 0.0312,-0.66016 0.0312,-0.65625 0.0273,-0.66015 0.0117,-0.33204 0.0117,-0.32812 0.0234,-0.66016 0.0117,-0.33203 0.008,-0.32812 0.0117,-0.32813 0.008,-0.33203 0.008,-0.32812 0.004,-0.33204 0.008,-0.32812 0.008,-0.33203 0.004,-0.32813 0.004,-0.33203 0.004,-0.32812 0.004,-0.33203 0.004,-0.32813 v -0.33203 l 0.004,-0.32813 v -0.99218 l -0.004,-0.32813 v -0.33203 l -0.004,-0.32812 v -0.33204 l -0.004,-0.32812 -0.004,-0.33203 -0.008,-0.32813 -0.004,-0.33203 -0.008,-0.32812 -0.004,-0.33203 -0.008,-0.32813 -0.008,-0.33203 -0.0195,-0.66016 -0.0117,-0.32812 -0.008,-0.33203 -0.0234,-0.66016 -0.0117,-0.32812 -0.0156,-0.33204 -0.0273,-0.65625 -0.0156,-0.33203 -0.0156,-0.32812 -0.0312,-0.66016 -0.0742,-1.3164 -0.0234,-0.35938 -0.0195,-0.35547 -0.0469,-0.71484 -0.10547,-1.42969 -0.0273,-0.35937 -0.0273,-0.35547 -0.0586,-0.71485 -0.1289,-1.42578 -0.0312,-0.35547 -0.0352,-0.35547 -0.0703,-0.71484 -0.15235,-1.42578 -0.33593,-2.84375 -0.0469,-0.35547 -0.043,-0.35547 -0.0976,-0.71094 -0.19532,-1.41796 -0.42968,-2.83204 -0.0586,-0.35156 -0.0586,-0.35547 -0.11719,-0.70703 -0.24609,-1.41015 -0.52344,-2.81641 -0.0625,-0.32813 -0.19922,-0.98437 -0.26953,-1.30859 -0.57031,-2.60938 -0.0742,-0.32812 -0.0742,-0.32422 -0.15234,-0.65235 -0.3125,-1.29687 -0.65235,-2.59375 -0.0859,-0.32422 -0.082,-0.32422 -0.17187,-0.64453 -0.35156,-1.28906 -0.73438,-2.57032 -1.58203,-5.10937 -0.22656,-0.6875 -0.23047,-0.6875 -0.46484,-1.37109 -0.97266,-2.73047 -2.07422,-5.41016 -0.27344,-0.67187 -0.27343,-0.66797 -0.5586,-1.33985 -1.15234,-2.65625 -2.4336,-5.26171 -0.15625,-0.31641 -0.46875,-0.96094 -0.63281,-1.27344 -1.30078,-2.52734 -2.72656,-4.996094 -0.35156,-0.617187 -0.35547,-0.613281 -0.71875,-1.230469 -1.46485,-2.4375 -3.04687,-4.804688 -0.36719,-0.554687 -0.36719,-0.550782 -0.74218,-1.097656 -1.50782,-2.183594 -3.11718,-4.292968 -0.39844,-0.53125 -0.40235,-0.527344 -0.80859,-1.054688 -1.64062,-2.085937 -3.375,-4.09375 -0.23047,-0.273437 L 377.16406,72.5 376.69531,71.957031 375.75,70.871094 l -1.92188,-2.144532 -3.9414,-4.191406 -0.5,-0.515625 -0.50781,-0.511719 -1.01563,-1.019531 -2.05469,-2.011719 -4.21484,-3.917968 -0.25,-0.226563 -0.75,-0.667969 -1.00781,-0.886718 -2.03907,-1.75 -4.15625,-3.40625 -0.26171,-0.207032 -0.26563,-0.207031 -0.52734,-0.414062 -1.0625,-0.824219 -2.14063,-1.617188 -4.35937,-3.140624 -0.27344,-0.1875 -0.26953,-0.1875 -1.62891,-1.113282 -2.19531,-1.453125 -4.45313,-2.8125 -0.28125,-0.167969 -0.28125,-0.171874 -0.5664,-0.339844 -1.13281,-0.671875 -2.27735,-1.320313 -4.61719,-2.53125 -0.3164,-0.167968 -0.31641,-0.164063 -0.63281,-0.332031 -1.26953,-0.652344 -2.5586,-1.273438 -5.17578,-2.417968 -0.32812,-0.144532 -0.32422,-0.144531 -0.65625,-0.289062 -1.3125,-0.566407 L 311.27344,25 l -5.32813,-2.070312 -0.3125,-0.113282 -0.3125,-0.117187 -0.625,-0.226563 -1.25781,-0.445312 -2.51953,-0.867188 -5.08203,-1.617187 -0.31641,-0.09766 -0.96094,-0.28125 -1.28125,-0.371093 -2.5664,-0.707031 -5.17188,-1.300782 -0.70312,-0.164062 -0.70313,-0.160156 -1.41406,-0.3125 -2.82813,-0.59375 -0.35156,-0.07031 -0.35547,-0.07031 -0.71093,-0.136718 -1.41797,-0.265625 -2.84766,-0.496094 -0.35547,-0.05859 -0.35937,-0.05469 -0.71094,-0.113282 -1.42969,-0.21875 -0.35937,-0.05469 -0.35547,-0.05078 -0.71485,-0.101563 -1.43359,-0.195312 -0.35547,-0.04687 -0.35937,-0.04297 -0.71875,-0.08984 -1.4336,-0.171875 -2.875,-0.304687 -1.34375,-0.125 -1.34375,-0.113281 -0.67187,-0.05469 -0.67188,-0.05078 -1.34765,-0.09375 -0.33594,-0.02344 -1.00781,-0.05859 -0.33985,-0.01953 -0.33593,-0.01953 -0.67188,-0.03516 -0.33984,-0.01563 -1.00782,-0.04687 -0.33984,-0.01563 -1.00781,-0.03516 -0.33985,-0.01172 -0.67187,-0.02344 -0.33984,-0.0078 -0.67188,-0.01563 -0.33984,-0.0078 -0.33594,-0.0078 -0.33594,-0.0039 -0.33984,-0.0078 -0.67188,-0.0078 -0.33984,-0.0039 -0.33594,-0.0039 h -0.33594 l -0.33984,-0.0039 h -1.01172 l -0.33594,0.0039 h -0.33984 l -0.67187,0.0078 -0.33985,0.0039 -0.67187,0.0078 -0.33985,0.0039 -0.67187,0.01563 -0.33985,0.0078 -0.67187,0.01563 -0.33203,0.01172 -0.32813,0.0078 -0.66406,0.02344 -0.32812,0.01172 -0.33204,0.01172 -0.66015,0.02734 -0.33203,0.01563 -0.32813,0.01563 -0.66015,0.03125 -1.32032,0.07422 -0.33203,0.01953 -0.32812,0.01953 -0.66016,0.04297 -1.32031,0.09375 -0.33203,0.02344 -0.32813,0.02344 -0.66015,0.05469 -1.31641,0.113281 -0.33203,0.02734 -0.98438,0.09375 -1.3164,0.132813 -0.32813,0.03516 -0.33203,0.03516 -0.65625,0.07422 -1.3125,0.152344 -0.65625,0.07813 -1.96875,0.257813 -2.61719,0.375 -0.71093,0.109374 -0.70704,0.113282 -1.41796,0.230468 -2.82422,0.5 -0.35157,0.06641 -0.35546,0.06641 -0.70313,0.136719 -1.40625,0.277344 -2.80859,0.59375 -0.35157,0.07812 -0.34765,0.07813 -0.69922,0.160156 -1.39844,0.324218 -2.78515,0.6875 -5.53907,1.511719 -0.64062,0.1875 -0.64063,0.191407 -1.28515,0.390624 -2.55078,0.808594 -5.07032,1.734375 -0.3125,0.113281 -0.3164,0.113282 -0.62891,0.230468 -1.25391,0.46875 -2.5,0.964844 -4.94921,2.042969 -0.66407,0.289063 -0.66406,0.292968 -1.32812,0.589844 -2.63282,1.214844 -5.20703,2.566406 -0.32422,0.164062 -0.32031,0.167969 -0.64453,0.335938 -1.28125,0.679687 -2.55078,1.390625 -5.02344,2.90625 -0.60937,0.367188 -0.60547,0.371093 -1.21094,0.75 -2.40625,1.53125 -4.73047,3.171876 -0.29297,0.207031 -0.29297,0.203125 -0.58203,0.410156 -1.16015,0.828125 -2.29688,1.683594 -4.51562,3.480469 -0.51563,0.414062 -0.51953,0.417969 -1.02734,0.839843 -2.03907,1.707032 -4,3.503906 -0.49218,0.445312 -0.48829,0.449219 -0.97656,0.902344 -1.92968,1.828125 -3.77344,3.742188 -0.25391,0.257812 -0.25,0.257812 -0.5,0.519532 -0.99609,1.042968 -1.96094,2.109376 -3.82031,4.316406 -0.23438,0.273437 -0.23437,0.277344 -0.46485,0.546875 -0.92187,1.109375 -1.81641,2.234375 -3.52343,4.5625 -0.19922,0.269531 -0.20313,0.269531 -0.39844,0.542969 -0.78906,1.089844 -1.55859,2.191406 -3.01172,4.460938 -0.36719,0.5625 -0.36719,0.566406 -0.722652,1.132813 -1.417969,2.289062 -2.726563,4.636719 -0.164062,0.285156 -0.160156,0.289067 -0.324219,0.57422 -0.636719,1.15625 -1.25,2.32422 -2.390625,4.69921 -0.289063,0.59375 -0.285156,0.59375 -0.566406,1.19141 -1.105469,2.39453 -2.101562,4.83985 -0.136719,0.33203 -0.136719,0.32812 -0.269531,0.66406 -0.535156,1.32813 -1.03125,2.66797 -1.933594,5.38672 -0.113281,0.33984 -0.117188,0.33984 -0.667969,2.03907 -0.855468,2.73046 -1.570313,5.50391 -0.08594,0.32422 -0.08594,0.32031 -0.167968,0.64844 -0.332032,1.29297 -0.628906,2.59375 -0.07813,0.32422 -0.07422,0.32812 -0.148437,0.64844 -0.292969,1.30469 -0.546875,2.61328 -0.06641,0.32812 -0.06641,0.32422 -0.128906,0.65625 -0.25,1.3125 -0.46875,2.62891 -0.05469,0.32812 -0.05859,0.32813 -0.316406,1.98047 -0.386719,2.64062 -0.05078,0.3711 -0.05078,0.36718 -0.09766,0.73828 -0.1875,1.48047 -0.04297,0.3711 -0.04297,0.36718 -0.08594,0.74219 -0.160156,1.48047 -0.03906,0.37109 -0.03516,0.3711 -0.07422,0.74219 -0.132812,1.48437 -0.125,1.48438 -0.109375,1.48828 -0.04687,0.74218 -0.04687,0.7461 -0.02344,0.37109 -0.01953,0.3711 -0.04297,0.74609 -0.01563,0.37109 -0.01953,0.3711 -0.03516,0.74609 -0.01563,0.37109 -0.01172,0.3711 -0.02734,0.74609 -0.01563,0.3711 -0.01172,0.375 -0.0078,0.37109 -0.01172,0.37109 -0.0078,0.375 -0.01172,0.3711 -0.0039,0.37109 -0.0078,0.375 -0.0078,0.37109 -0.0039,0.375 -0.0078,0.74219 -0.0039,0.375 v 0.3711 l -0.0039,0.375 V 185"
       transform="translate(-66,-5)"
       id="path1" />
    <path
       style="fill:none;stroke:#545454;stroke-width:2;stroke-linecap:square;stroke-linejoin:miter;stroke-miterlimit:3.25;stroke-opacity:1"
       d="m 73.199219,185 v 0.0625 l 0.0039,0.0195 v 0.11719 l 0.0039,0.0156 v 0.0352 l 0.0039,0.0781 v 0.043 l 0.0039,0.043 0.0039,0.0977 0.0039,0.0273 v 0.0273 l 0.0039,0.0547 0.0078,0.11719 0.0039,0.0312 v 0.0312 l 0.0039,0.0664 0.01172,0.13672 0.02734,0.30468 0.0039,0.0469 0.0039,0.043 0.0078,0.0937 0.02344,0.19531 0.04688,0.42578 0.0039,0.0547 0.02344,0.17578 0.03125,0.23828 0.07031,0.51953 0.0078,0.0664 0.01172,0.0703 0.01953,0.14063 0.04687,0.28515 0.09766,0.60938 0.246093,1.35547 0.01953,0.0859 0.01563,0.0859 0.03516,0.17188 0.07031,0.35156 0.15625,0.73047 0.367188,1.57812 0.02734,0.10156 0.02344,0.10547 0.05469,0.20703 0.105469,0.42969 0.234375,0.87891 0.527344,1.86719 0.03516,0.11718 0.03516,0.1211 0.07422,0.23828 0.148438,0.48828 0.3125,0.99609 0.699219,2.09375 0.04687,0.13672 0.04688,0.13281 0.09375,0.27344 0.199218,0.55078 0.410156,1.125 0.902344,2.33203 0.06641,0.16407 0.0625,0.16406 0.132813,0.32422 0.273437,0.66406 0.566407,1.34375 1.238281,2.78516 0.08203,0.17968 0.08203,0.17579 0.167969,0.35937 0.339844,0.72266 0.707031,1.46484 1.527344,3.01172 0.09375,0.17969 0.09766,0.17968 0.1875,0.35938 0.386719,0.72266 0.796875,1.46093 1.703125,2.98438 3.820313,6.17969 0.140624,0.21484 0.140626,0.21094 0.28125,0.42968 0.574218,0.85938 1.179688,1.73437 2.488281,3.50782 5.519532,7.15234 0.35937,0.44531 0.36719,0.44141 0.73828,0.89062 1.50781,1.77735 3.14844,3.57422 6.82813,7.15625 0.42187,0.41406 0.42188,0.41797 0.85156,0.82812 1.73437,1.66016 3.57813,3.30469 7.61328,6.50781 0.26953,0.21875 0.26562,0.21484 0.54297,0.4375 1.08594,0.86328 2.21094,1.72266 4.54687,3.39453 0.28907,0.21094 0.29296,0.20703 0.58204,0.41797 1.17578,0.83203 2.375,1.65234 4.88281,3.23438 0.28906,0.1875 0.28906,0.18359 0.58204,0.3711 1.17187,0.73828 2.36719,1.45703 4.83203,2.84375 0.30859,0.17578 0.30469,0.17188 0.61719,0.34765 1.23437,0.69141 2.5,1.35937 5.08985,2.64453 0.3164,0.15625 0.31641,0.16016 0.63281,0.3125 1.27344,0.625 2.57031,1.22656 5.21875,2.36719 0.32813,0.14063 0.33203,0.14453 0.66015,0.28515 1.32813,0.56641 2.67578,1.10547 5.42188,2.11719 0.74218,0.27343 0.7461,0.27735 1.49609,0.53906 3.00781,1.05078 6.09375,1.97656 0.38282,0.1211 0.38281,0.11718 0.77344,0.23047 1.54296,0.45703 3.10547,0.88282 6.26953,1.625 0.3711,0.0859 0.36719,0.0899 0.73828,0.17578 1.47656,0.34375 2.96875,0.65234 0.37109,0.0781 0.375,0.0781 0.7461,0.15625 1.49218,0.30078 2.9961,0.57032 0.375,0.0664 0.375,0.0703 0.7539,0.13281 1.50782,0.25781 3.01953,0.48438 0.3789,0.0547 0.37891,0.0586 0.75781,0.11328 1.51563,0.21094 3.04297,0.39843 0.41406,0.0508 0.41016,0.0469 0.82812,0.0977 1.65234,0.18359 0.82813,0.0859 0.83203,0.082 2.07031,0.19531 0.41797,0.0352 0.82813,0.0703 1.66406,0.12891 0.41406,0.0312 0.41797,0.0273 0.83203,0.0586 1.66406,0.10157 0.83594,0.0469 0.83203,0.043 0.41797,0.0195 0.41406,0.0195 0.83594,0.0352 0.41797,0.0156 0.41406,0.0156 0.41797,0.0156 0.41797,0.0117 0.41797,0.0156 0.41797,0.0117 0.83203,0.0195 0.41797,0.0117 1.67187,0.0312 0.41407,0.004 1.2539,0.0117 h 2.08985 l 0.41406,-0.004 0.41797,-0.004 0.82031,-0.008 0.41016,-0.008 0.41015,-0.004 0.82031,-0.0156 0.41016,-0.0117 0.41016,-0.008 0.40625,-0.0117 0.82031,-0.0234 0.41016,-0.0156 0.41015,-0.0117 0.41016,-0.0156 0.8164,-0.0352 0.41016,-0.0156 0.41016,-0.0195 0.8164,-0.0391 0.41016,-0.0234 0.41016,-0.0195 0.8164,-0.0469 0.41016,-0.0274 0.40625,-0.0234 0.82031,-0.0547 1.63281,-0.11719 0.40625,-0.0312 0.41016,-0.0312 0.81641,-0.0664 1.6289,-0.14843 0.40625,-0.0352 0.40625,-0.0391 0.81641,-0.082 1.625,-0.17188 1.625,-0.1875 1.62109,-0.19922 3.23438,-0.4414 0.3789,-0.0547 0.375,-0.0586 0.75391,-0.11329 1.5,-0.23828 2.99609,-0.50781 0.375,-0.0664 0.3711,-0.0703 0.74609,-0.13672 1.49219,-0.28515 2.96875,-0.60547 0.37109,-0.082 0.3711,-0.0781 0.73828,-0.16406 1.47656,-0.33203 2.94141,-0.70313 5.82812,-1.54687 0.39063,-0.11328 0.39453,-0.11328 0.78125,-0.22657 1.5625,-0.46875 3.10547,-0.97656 6.13671,-2.11719 0.37891,-0.14062 0.38281,-0.14063 0.75782,-0.28125 1.50781,-0.57812 3,-1.19922 5.90234,-2.55469 0.67969,-0.3125 0.67969,-0.3164 1.35156,-0.63672 2.67969,-1.3125 5.26562,-2.76172 0.64844,-0.35938 0.64453,-0.35937 1.28906,-0.73047 2.55078,-1.49219 4.99219,-3.11719 0.33203,-0.21484 0.33203,-0.21875 0.66016,-0.4375 1.31641,-0.88672 2.59765,-1.80859 5.0586,-3.76563 1.23437,-0.96875 1.21875,-0.98437 2.40625,-2 4.65625,-4.13281 0.28125,-0.26172 0.27735,-0.25782 0.55468,-0.52343 1.09766,-1.05078 2.15625,-2.13672 4.15234,-4.38672 0.25,-0.28125 0.25391,-0.27735 0.5,-0.5625 0.98828,-1.13281 1.9375,-2.28906 3.70313,-4.68359 0.20703,-0.27735 0.21093,-0.27734 0.41016,-0.5586 0.82031,-1.12109 1.59375,-2.26172 3.03125,-4.60547 0.1836,-0.28906 0.53906,-0.87891 0.71094,-1.17187 1.38281,-2.36719 2.59766,-4.80859 0.16796,-0.32813 0.16407,-0.32812 0.33203,-0.66016 0.64844,-1.32422 1.24609,-2.66797 0.30469,-0.67187 0.29687,-0.67188 0.58203,-1.34765 1.11328,-2.71485 0.26563,-0.67968 0.26172,-0.6836 0.51562,-1.37109 0.97657,-2.75391 0.11718,-0.34375 0.11719,-0.34765 0.22656,-0.69141 0.44532,-1.38672 0.83593,-2.78906 0.1875,-0.65625 0.17969,-0.65234 0.35156,-1.3125 0.65625,-2.62891 0.0781,-0.33203 0.0781,-0.32813 0.15235,-0.66015 0.28906,-1.32422 0.53125,-2.64844 0.0625,-0.33594 0.0625,-0.33203 0.12109,-0.66406 0.22657,-1.33203 0.10937,-0.66406 0.10156,-0.66797 0.19922,-1.33594 0.0469,-0.33594 0.043,-0.33203 0.0898,-0.67187 0.16406,-1.33594 0.0781,-0.67188 0.0742,-0.66797 0.13281,-1.34375 0.0312,-0.32812 0.0273,-0.32813 0.0586,-0.66015 0.0273,-0.32813 0.0234,-0.32812 0.0508,-0.66016 0.0234,-0.32812 0.0195,-0.33203 0.043,-0.66016 0.0195,-0.32813 0.0156,-0.32812 0.0352,-0.66016 0.0156,-0.33203 0.0117,-0.32812 0.0156,-0.33203 0.0234,-0.65625 0.0117,-0.33204 0.008,-0.32812 0.0117,-0.33203 0.008,-0.32813 0.004,-0.33203 0.008,-0.32812 0.004,-0.33203 0.004,-0.32813 0.004,-0.33203 v -0.32813 l 0.004,-0.33203 v -0.66015 l -0.004,-0.32813 v -0.33203 l -0.004,-0.32812 -0.008,-0.33204 -0.004,-0.32812 -0.008,-0.33203 -0.004,-0.32813 -0.0117,-0.33203 -0.008,-0.32812 -0.0117,-0.33203 -0.008,-0.32813 -0.0117,-0.33203 -0.0273,-0.66016 -0.0156,-0.32812 -0.0156,-0.33203 -0.0352,-0.65625 -0.0195,-0.33203 -0.0195,-0.32813 -0.043,-0.66016 -0.0195,-0.32812 -0.0234,-0.33203 -0.0508,-0.65625 -0.10938,-1.31641 -0.0351,-0.35937 -0.0312,-0.35547 -0.0703,-0.71485 -0.15625,-1.42578 -0.17187,-1.42187 -0.19141,-1.42578 -0.0508,-0.35547 -0.0508,-0.35156 -0.10547,-0.71094 -0.22656,-1.41797 -0.50391,-2.83203 -0.0664,-0.35156 -0.0703,-0.35547 -0.14062,-0.70313 -0.29688,-1.41015 -0.64453,-2.8086 -0.0859,-0.34765 -0.0859,-0.35157 -0.17578,-0.69922 -0.36328,-1.39453 -0.78516,-2.78125 -0.0937,-0.32422 -0.0977,-0.32031 -0.19922,-0.64844 -0.40234,-1.28515 -0.85156,-2.56641 -0.11328,-0.32031 -0.10938,-0.32031 -0.22656,-0.63672 -0.46484,-1.27344 -0.96875,-2.53125 -0.125,-0.31641 -0.12891,-0.3164 -0.25391,-0.62891 -0.52343,-1.2539 -1.08594,-2.4961 -2.34766,-4.92969 -0.33594,-0.66406 -0.33984,-0.66015 -0.69531,-1.3125 -1.42969,-2.60938 -3.0625,-5.1289 -0.20312,-0.31641 -0.19922,-0.31641 -0.40625,-0.63281 -0.82032,-1.25391 -1.6875,-2.48828 -3.5664,-4.875 -0.22656,-0.29297 -0.23047,-0.29296 -0.45703,-0.58985 -0.92579,-1.16406 -1.89843,-2.30469 -3.96094,-4.5039 -0.25391,-0.27344 -0.2539,-0.27735 -0.51563,-0.55078 -1.03906,-1.08984 -2.11719,-2.156251 -4.39062,-4.1875 -0.52344,-0.476563 -0.52734,-0.476562 -1.06641,-0.941406 -2.16016,-1.859376 -4.44922,-3.601562 -0.28125,-0.21875 -0.28515,-0.222656 -0.57031,-0.433594 -1.14844,-0.867188 -2.32422,-1.703124 -4.76563,-3.285157 -0.65625,-0.429687 -0.66015,-0.429688 -1.32813,-0.851562 -2.6875,-1.660156 -5.49609,-3.167969 -0.35156,-0.191407 -0.34766,-0.191406 -0.70312,-0.378906 -1.40625,-0.75 -2.84375,-1.453125 -5.79297,-2.753906 -0.34375,-0.15625 -0.33985,-0.152344 -0.6875,-0.304687 -1.3789,-0.597657 -2.77735,-1.164062 -5.63281,-2.1875 -0.35547,-0.128907 -0.35937,-0.132812 -0.71094,-0.253906 -1.42969,-0.507813 -2.8789,-0.972656 -5.82032,-1.796875 -0.35547,-0.105469 -0.36328,-0.101562 -0.71875,-0.207031 -1.4414,-0.398438 -2.90235,-0.761719 -0.36328,-0.09375 -0.36328,-0.08984 -0.73047,-0.179688 -1.46094,-0.355469 -2.92968,-0.667969 -0.36719,-0.07812 -0.37109,-0.08203 -0.73438,-0.15625 -1.47656,-0.304687 -2.96094,-0.570313 -0.37109,-0.07031 -1.11328,-0.199219 -1.48829,-0.257813 -2.98828,-0.476562 -0.40234,-0.0625 -0.40625,-0.05859 -0.8125,-0.121094 -1.62891,-0.222656 -0.8125,-0.109375 -0.8164,-0.101562 -1.63282,-0.199219 -0.40625,-0.04687 -0.41015,-0.04687 -0.81641,-0.08984 -1.63672,-0.167968 -0.41015,-0.04297 -0.41016,-0.03906 -0.82031,-0.07422 -2.05078,-0.175782 -1.64063,-0.125 -0.41406,-0.02734 -1.23047,-0.08203 -0.41406,-0.02344 -0.82031,-0.05078 -1.64844,-0.08594 -0.41016,-0.01953 -0.41015,-0.01563 -0.82422,-0.03516 -0.41407,-0.01562 -0.41015,-0.01563 -0.82422,-0.02734 -0.41406,-0.01172 -0.41016,-0.01172 -0.41406,-0.01172 -0.41016,-0.0078 -0.41406,-0.01172 -0.41016,-0.0078 -0.41406,-0.0078 -0.41406,-0.0039 -0.38281,-0.0078 -0.38282,-0.0039 -0.38672,-0.0039 h -0.38281 l -0.38672,-0.0039 h -1.92187 l -0.38672,0.0039 h -0.38281 l -0.38672,0.0039 -0.38281,0.0078 -0.38672,0.0039 -0.38282,0.0039 -0.38671,0.0078 -0.38282,0.0078 -0.38672,0.0078 -0.38281,0.0078 -0.38672,0.01172 -0.38281,0.0078 -0.76953,0.02344 -0.38281,0.01172 -0.38672,0.01563 -0.76953,0.02734 -0.76563,0.03125 -0.76953,0.03516 -0.38281,0.01953 -0.38672,0.01953 -0.76563,0.03906 -0.38671,0.02344 -0.38282,0.01953 -0.76562,0.04688 -0.38672,0.02344 -0.38281,0.02734 -0.76563,0.05078 -1.53125,0.113281 -0.38672,0.02734 -0.38281,0.03125 -0.76562,0.06641 -1.52735,0.132813 -3.05469,0.304687 -0.41406,0.04687 -0.41406,0.04297 -0.82422,0.09375 -1.65234,0.199219 -3.29297,0.433594 -0.82031,0.117187 -0.82032,0.121094 -1.64062,0.246093 -3.26563,0.539063 -0.41015,0.07031 -0.40625,0.07031 -0.8125,0.144531 -1.625,0.300781 -3.24219,0.636719 -6.42578,1.421875 -0.3711,0.08984 -0.375,0.08984 -0.74218,0.179687 -1.48438,0.371094 -2.96094,0.769531 -5.85546,1.660156 -0.72657,0.21875 -0.72656,0.222657 -1.44922,0.449219 -2.875,0.925781 -5.6875,1.96875 -0.34765,0.125 -0.34375,0.125 -0.69141,0.253906 -1.37109,0.511719 -2.73047,1.050781 -5.38672,2.195313 -0.33594,0.144531 -0.33203,0.140625 -0.66406,0.285156 -1.32422,0.578125 -2.62891,1.175781 -5.17187,2.445313 -0.34766,0.167969 -0.34375,0.171874 -0.69141,0.339844 -1.375,0.691406 -2.72265,1.402344 -5.33985,2.902344 -10.23046,6.128906 -0.28907,0.183594 -0.28906,0.1875 -0.57812,0.371094 -1.14454,0.746094 -2.26171,1.507812 -4.42188,3.066406 -8.40234,6.332032 -0.27735,0.21875 -0.27343,0.21875 -0.54297,0.4375 -1.08203,0.875 -2.13282,1.765624 -4.125,3.56641 -7.71093,7.23047 -0.22266,0.22265 -0.22656,0.22266 -0.44531,0.44922 -0.88672,0.89062 -1.73438,1.79297 -3.33984,3.58203 -6.14844,7.13282 -0.67187,0.82812 -0.66016,0.82422 -1.296873,1.64453 -2.476563,3.26953 -4.503906,6.41016 -0.140625,0.21094 -0.144531,0.21484 -0.28125,0.42578 -0.554688,0.85156 -1.074219,1.6836 -2.03125,3.3164 -0.242187,0.40625 -0.238281,0.41016 -0.472656,0.80859 -0.914063,1.60547 L 84,152.46094 l -0.09766,0.17968 -0.28125,0.53907 -0.367188,0.71093 -0.707031,1.41016 -1.324219,2.74609 -0.15625,0.33594 -0.15625,0.33203 -0.300781,0.66797 -0.585937,1.3086 -1.074219,2.53515 -0.0625,0.14844 -0.0625,0.15234 -0.121094,0.30078 -0.238281,0.59766 -0.457032,1.17188 -0.835937,2.26171 -0.05078,0.13672 -0.04687,0.13672 -0.09766,0.26953 -0.1875,0.53907 -0.355468,1.05468 -0.640625,2.01172 -0.03906,0.13281 -0.03906,0.12891 -0.07813,0.26172 -0.152344,0.51172 -0.285156,1 -0.496094,1.875 -0.02734,0.10937 -0.02734,0.11328 -0.05469,0.21875 -0.105469,0.4336 -0.195312,0.83594 -0.324219,1.53906 -0.01953,0.0859 -0.01563,0.082 -0.03125,0.16797 -0.0625,0.32421 -0.113282,0.6211 -0.01172,0.0781 -0.01172,0.0742 -0.02734,0.14453 -0.04687,0.28907 -0.08594,0.54296 -0.01172,0.0664 -0.0078,0.0625 -0.01953,0.12891 -0.03516,0.24609 -0.0625,0.46875 -0.0039,0.0547 -0.0078,0.0547 -0.01563,0.10546 -0.02344,0.21094 -0.04297,0.38281 -0.0078,0.10157 -0.01172,0.0977 -0.01563,0.1836 -0.0039,0.0469 -0.01172,0.12891 -0.01563,0.16015 v 0.0352 l -0.0039,0.0391 -0.0039,0.0703 -0.01172,0.13671 v 0.0312 l -0.0039,0.0312 -0.0039,0.0586 -0.0039,0.10937 v 0.0234 l -0.0039,0.0273 v 0.043 l -0.0039,0.0234 v 0.082 l -0.0039,0.0156 v 0.11718 l -0.0039,0.0117 V 185"
       transform="translate(-66,-5)"
       id="path2" />
  </g>
  <path
     style="fill:none;fill-rule:evenodd;stroke:#000080;stroke-width:2.5;stroke-linecap:butt;stroke-linejoin:miter;stroke-opacity:1;marker-start:url(#RoundedArrow)"
     d="M 26.913119,26.244174 V 194.69204 335.66746"
     id="path3"
     sodipodi:nodetypes="ccc" />
  <path
     style="fill:none;fill-rule:evenodd;stroke:#000080;stroke-width:1.25;stroke-linecap:butt;stroke-linejoin:miter;stroke-opacity:1"
     d="M 26.917025,194.55141 192.94046,62.820943"
     id="path4"
     sodipodi:nodetypes="cc" />
  <path
     id="path5"
     style="fill:none;fill-opacity:0.388473;stroke:#000080;stroke-width:2.5"
     d="m 26.913119,33.816764 c 51.164087,2e-6 96.711751,24.046768 125.957701,61.455021"
     sodipodi:nodetypes="cc" />
  <ellipse
     style="fill:url(#radialGradient11);stroke:none;stroke-width:2.5;stroke-dasharray:none;stroke-opacity:1"
     id="path10"
     cx="96.998421"
     cy="78.615555"
     rx="26.57361"
     ry="41.505386"
     transform="rotate(19.726045)" />
  <g
     inkscape:label=""
     transform="matrix(2.368905,0,0,2.368905,48.416667,84.485639)"
     id="g10"
     style="fill:#000080;stroke-width:0.422136">
    <g
       id="g9"
       transform="translate(-2.70252,-1.73725)"
       style="fill:#000080;stroke-width:0.422136">
      <g
         style="fill:#000080;fill-opacity:1;stroke-width:0.422136"
         id="g8">
        <g
           id="g7"
           transform="translate(1.993,19.205999)"
           style="fill:#000080;stroke-width:0.422136">
          <path
             style="fill:#000080;stroke:none;stroke-width:0.422136"
             d="m 14.03125,-14.421875 c 0,-1.484375 -1.265625,-3.046875 -3.53125,-3.046875 -3.1875,0 -5.21875,3.90625 -5.859375,6.484375 L 0.71875,4.5625 c -0.046875,0.203125 0.09375,0.25 0.21875,0.25 0.171875,0 0.296875,-0.03125 0.328125,-0.15625 L 3,-2.28125 C 3.25,-0.890625 4.609375,0.25 6.078125,0.25 c 3.53125,0 6.875,-2.78125 6.875,-6.46875 0,-0.9375 -0.21875,-1.890625 -0.734375,-2.671875 -0.296875,-0.484375 -0.671875,-0.828125 -1.0625,-1.125 1.78125,-0.9375 2.875,-2.453125 2.875,-4.40625 z m -4.3125,4.390625 c -0.40625,0.140625 -0.796875,0.1875 -1.265625,0.1875 -0.34375,0 -0.671875,0.03125 -1.125,-0.125 0.25,-0.171875 0.625,-0.21875 1.140625,-0.21875 0.453125,0 0.90625,0.04687 1.25,0.15625 z m 3.015625,-4.609375 c 0,1.359375 -0.671875,3.34375 -2.28125,4.25 C 9.984375,-10.5625 9.34375,-10.6875 8.796875,-10.6875 c -0.515625,0 -2,-0.04687 -2,0.75 0,0.671875 1.359375,0.59375 1.78125,0.59375 0.640625,0 1.203125,-0.140625 1.8125,-0.328125 0.78125,0.65625 1.125,1.5 1.125,2.734375 0,1.4375 -0.390625,2.59375 -0.859375,3.671875 C 9.84375,-1.4375 7.90625,-0.25 6.1875,-0.25 c -1.796875,0 -2.75,-1.4375 -2.75,-3.125 0,-0.21875 0,-0.546875 0.109375,-0.90625 l 1.609375,-6.515625 c 0.8125,-3.25 2.890625,-6.171875 5.296875,-6.171875 1.78125,0 2.28125,1.234375 2.28125,2.328125 z m 0,0"
             id="path7" />
        </g>
      </g>
    </g>
  </g>
  <g
     inkscape:label=""
     transform="matrix(1.728873,0,0,1.728873,41.046395,1.728873e-6)"
     id="g11"
     style="fill:#000080;stroke:none;stroke-width:0.578411">
    <g
       id="surface1"
       transform="translate(-2.9305,-1.595)"
       style="fill:#000080;stroke:none;stroke-width:0.578411">
      <g
         style="fill:#000080;fill-opacity:1;stroke:none;stroke-width:0.578411"
         id="g3">
        <g
           id="use2"
           transform="translate(1.993,17.969999)"
           style="fill:#000080;stroke:none;stroke-width:0.578411">
          <path
             style="fill:#000080;stroke:none;stroke-width:0.578411"
             d="m 10.40625,-7.953125 c 0,-1.515625 -0.01563,-4.09375 -1.0625,-6.078125 -0.921875,-1.734375 -2.375,-2.34375 -3.671875,-2.34375 -1.1875,0 -2.703125,0.546875 -3.640625,2.328125 -0.984375,1.859375 -1.09375,4.15625 -1.09375,6.09375 0,1.40625 0.03125,3.5625 0.796875,5.453125 1.0625,2.546875 2.96875,2.890625 3.9375,2.890625 1.140625,0 2.875,-0.46875 3.890625,-2.8125 0.75,-1.71875 0.84375,-3.71875 0.84375,-5.53125 z M 5.671875,0 C 4.09375,0 3.140625,-1.359375 2.796875,-3.25 2.53125,-4.703125 2.53125,-6.84375 2.53125,-8.234375 c 0,-1.90625 0,-3.484375 0.3125,-5 0.484375,-2.109375 1.859375,-2.75 2.828125,-2.75 1.015625,0 2.328125,0.671875 2.796875,2.703125 0.328125,1.40625 0.359375,3.078125 0.359375,5.046875 0,1.625 0,3.59375 -0.296875,5.0625 C 8,-0.46875 6.546875,0 5.671875,0 Z m 0,0"
             id="path11" />
        </g>
      </g>
    </g>
  </g>
  <g
     inkscape:label=""
     transform="matrix(2.7546012,0,0,2.7546012,30.065194,332.47981)"
     id="g18"
     style="fill:#000080;stroke-width:0.363029">
    <g
       id="g17"
       transform="translate(-2.63362,-1.9765)"
       style="fill:#000080;stroke-width:0.363029">
      <g
         style="fill:#000080;fill-opacity:1;stroke-width:0.363029"
         id="g16">
        <g
           id="g15"
           transform="translate(1.993,12.664)"
           style="fill:#000080;stroke-width:0.363029">
          <path
             style="fill:#000080;stroke:none;stroke-width:0.363029"
             d="M 6.421875,-9.34375 H 9.21875 C 8.546875,-6.5625 8.125,-4.765625 8.125,-2.78125 c 0,0.359375 0,3.03125 1.015625,3.03125 0.53125,0 0.96875,-0.46875 0.96875,-0.890625 0,-0.125 0,-0.171875 -0.171875,-0.546875 -0.671875,-1.71875 -0.671875,-3.84375 -0.671875,-4.015625 0,-0.15625 0,-1.90625 0.515625,-4.140625 h 2.78125 c 0.328125,0 1.140625,0 1.140625,-0.796875 0,-0.546875 -0.46875,-0.546875 -0.921875,-0.546875 H 4.640625 c -0.578125,0 -1.421875,0 -2.5625,1.21875 -0.640625,0.71875 -1.4375,2.03125 -1.4375,2.1875 0,0.140625 0.125,0.1875 0.28125,0.1875 0.171875,0 0.1875,-0.0625 0.3125,-0.21875 C 2.53125,-9.34375 3.8125,-9.34375 4.4375,-9.34375 H 5.84375 C 5.296875,-7.484375 4.6875,-5.328125 2.65625,-0.984375 2.453125,-0.59375 2.453125,-0.546875 2.453125,-0.390625 2.453125,0.125 2.90625,0.25 3.125,0.25 3.84375,0.25 4.046875,-0.390625 4.34375,-1.4375 4.734375,-2.703125 4.734375,-2.75 4.984375,-3.734375 Z m 0,0"
             id="path14" />
        </g>
      </g>
    </g>
  </g>
  <g
     inkscape:label=""
     transform="matrix(1.6191637,0,0,1.6191637,162.27239,74.569354)"
     id="g33"
     style="fill:#333333;stroke-width:0.617603">
    <g
       id="g32"
       transform="translate(-2.618,-1.595)"
       style="fill:#333333;stroke-width:0.617603">
      <g
         style="fill:#333333;fill-opacity:1;stroke-width:0.617603"
         id="g28">
        <g
           id="g25"
           transform="translate(1.993,26.965)"
           style="fill:#333333;stroke-width:0.617603">
          <path
             style="fill:#333333;stroke:none;stroke-width:0.617603"
             d="m 7.65625,-10.453125 c 0,-0.453125 -0.03125,-0.46875 -0.171875,-0.46875 -0.09375,0 -0.125,0.01563 -0.421875,0.390625 -0.078125,0.09375 -0.296875,0.34375 -0.375,0.4375 -0.796875,-0.828125 -1.90625,-0.859375 -2.328125,-0.859375 -2.75,0 -3.734375,1.4375 -3.734375,2.875 0,2.234375 2.515625,2.75 3.234375,2.90625 1.5625,0.3125 2.109375,0.40625 2.640625,0.859375 0.3125,0.296875 0.859375,0.84375 0.859375,1.734375 0,1.046875 -0.59375,2.375 -2.875,2.375 -2.15625,0 -2.921875,-1.625 -3.375,-3.8125 -0.0625,-0.34375 -0.0625,-0.375 -0.265625,-0.375 -0.203125,0 -0.21875,0.03125 -0.21875,0.53125 v 3.5625 c 0,0.453125 0.015625,0.46875 0.171875,0.46875 0.125,0 0.140625,-0.015625 0.265625,-0.21875 0.15625,-0.21875 0.53125,-0.828125 0.671875,-1.0625 0.5,0.65625 1.359375,1.3125 2.75,1.3125 C 6.9375,0.203125 8.25,-1.140625 8.25,-3.078125 8.25,-4.34375 7.578125,-5 7.265625,-5.296875 6.515625,-6.078125 5.65625,-6.25 4.609375,-6.4375 3.25,-6.734375 1.515625,-7.09375 1.515625,-8.59375 c 0,-0.65625 0.34375,-2.015625 2.84375,-2.015625 2.65625,0 2.796875,2.484375 2.859375,3.28125 0.015625,0.109375 0.140625,0.140625 0.21875,0.140625 0.21875,0 0.21875,-0.078125 0.21875,-0.5 z m 0,0"
             id="path24" />
        </g>
        <g
           id="g26"
           transform="translate(10.901484,26.965)"
           style="fill:#333333;stroke-width:0.617603">
          <path
             style="fill:#333333;stroke:none;stroke-width:0.617603"
             d="m 3.84375,-15.265625 c 0,-0.546875 -0.453125,-1.015625 -1.015625,-1.015625 -0.546875,0 -1.015625,0.453125 -1.015625,1.015625 0,0.546875 0.4375,1.015625 1.015625,1.015625 0.546875,0 1.015625,-0.4375 1.015625,-1.015625 z m -2.90625,4.6875 V -9.9375 c 1.390625,0 1.59375,0.15625 1.59375,1.34375 v 6.890625 c 0,0.9375 -0.109375,1.0625 -1.6875,1.0625 V 0 C 1.4375,-0.046875 2.5,-0.046875 3.125,-0.046875 c 0.59375,0 1.609375,0 2.171875,0.046875 v -0.640625 c -1.453125,0 -1.5,-0.15625 -1.5,-1.046875 v -9.171875 z m 0,0"
             id="path16" />
        </g>
        <g
           id="g27"
           transform="translate(17.088345,26.965)"
           style="fill:#333333;stroke-width:0.617603">
          <path
             style="fill:#333333;stroke:none;stroke-width:0.617603"
             d="m 10.28125,-7.53125 c 0,-1.265625 -0.25,-3.328125 -3.171875,-3.328125 -1.953125,0 -2.96875,1.515625 -3.34375,2.515625 h -0.03125 v -2.515625 L 0.8125,-10.578125 V -9.9375 c 1.46875,0 1.6875,0.15625 1.6875,1.34375 v 6.890625 c 0,0.9375 -0.09375,1.0625 -1.6875,1.0625 V 0 C 1.40625,-0.046875 2.5,-0.046875 3.140625,-0.046875 c 0.65625,0 1.765625,0 2.359375,0.046875 v -0.640625 c -1.578125,0 -1.6875,-0.109375 -1.6875,-1.0625 V -6.46875 c 0,-2.28125 1.390625,-3.984375 3.125,-3.984375 1.828125,0 2.03125,1.625 2.03125,2.828125 v 5.921875 c 0,0.9375 -0.09375,1.0625 -1.6875,1.0625 V 0 c 0.59375,-0.046875 1.6875,-0.046875 2.328125,-0.046875 0.65625,0 1.765625,0 2.359375,0.046875 v -0.640625 c -1.578125,0 -1.6875,-0.109375 -1.6875,-1.0625 z m 0,0"
             id="path17" />
        </g>
      </g>
      <g
         style="fill:#333333;fill-opacity:1;stroke-width:0.617603"
         id="g12">
        <g
           id="use12"
           transform="translate(29.750999,17.969999)"
           style="fill:#333333;stroke-width:0.617603">
          <path
             style="fill:#333333;stroke:none;stroke-width:0.617603"
             d="m 10.328125,-3.84375 h -0.4375 C 9.640625,-2.078125 9.4375,-1.78125 9.34375,-1.640625 9.21875,-1.4375 7.4375,-1.4375 7.09375,-1.4375 H 2.328125 c 0.890625,-0.96875 2.625,-2.71875 4.734375,-4.75 1.515625,-1.4375 3.265625,-3.125 3.265625,-5.578125 C 10.328125,-14.6875 8,-16.375 5.40625,-16.375 c -2.734375,0 -4.390625,2.390625 -4.390625,4.625 0,0.96875 0.71875,1.09375 1.015625,1.09375 0.25,0 0.984375,-0.140625 0.984375,-1.015625 0,-0.765625 -0.640625,-0.984375 -0.984375,-0.984375 -0.140625,0 -0.296875,0.01563 -0.390625,0.0625 0.46875,-2.09375 1.90625,-3.140625 3.421875,-3.140625 2.15625,0 3.5625,1.703125 3.5625,3.96875 0,2.15625 -1.265625,4.015625 -2.671875,5.625 L 1.015625,-0.5625 V 0 h 8.71875 z m 0,0"
             id="path28" />
        </g>
      </g>
      <g
         style="fill:#333333;fill-opacity:1;stroke-width:0.617603"
         id="g29">
        <g
           id="use13"
           transform="translate(41.616001,26.965)"
           style="fill:#333333;stroke-width:0.617603">
          <path
             style="fill:#333333;stroke:none;stroke-width:0.617603"
             d="m 7.578125,6.046875 c 0,-0.03125 0,-0.078125 -0.0625,-0.15625 -1.140625,-1.15625 -4.1875,-4.328125 -4.1875,-12.0625 0,-7.734375 2.984375,-10.875 4.203125,-12.109375 0,-0.03125 0.046875,-0.07813 0.046875,-0.15625 0,-0.07813 -0.0625,-0.125 -0.171875,-0.125 -0.265625,0 -2.375,1.828125 -3.59375,4.5625 -1.234375,2.75 -1.578125,5.421875 -1.578125,7.8125 0,1.78125 0.171875,4.796875 1.65625,8 1.1875,2.578125 3.21875,4.375 3.515625,4.375 0.125,0 0.171875,-0.046875 0.171875,-0.140625 z m 0,0"
             id="path29" />
        </g>
      </g>
      <g
         style="fill:#333333;fill-opacity:1;stroke-width:0.617603"
         id="g30">
        <g
           id="use14"
           transform="translate(50.394001,26.965)"
           style="fill:#333333;stroke-width:0.617603">
          <path
             style="fill:#333333;stroke:none;stroke-width:0.617603"
             d="m 14.03125,-14.421875 c 0,-1.484375 -1.265625,-3.046875 -3.53125,-3.046875 -3.1875,0 -5.21875,3.90625 -5.859375,6.484375 L 0.71875,4.5625 c -0.046875,0.203125 0.09375,0.25 0.21875,0.25 0.171875,0 0.296875,-0.03125 0.328125,-0.15625 L 3,-2.28125 C 3.25,-0.890625 4.609375,0.25 6.078125,0.25 c 3.53125,0 6.875,-2.78125 6.875,-6.46875 0,-0.9375 -0.21875,-1.890625 -0.734375,-2.671875 -0.296875,-0.484375 -0.671875,-0.828125 -1.0625,-1.125 1.78125,-0.9375 2.875,-2.453125 2.875,-4.40625 z m -4.3125,4.390625 c -0.40625,0.140625 -0.796875,0.1875 -1.265625,0.1875 -0.34375,0 -0.671875,0.03125 -1.125,-0.125 0.25,-0.171875 0.625,-0.21875 1.140625,-0.21875 0.453125,0 0.90625,0.04687 1.25,0.15625 z m 3.015625,-4.609375 c 0,1.359375 -0.671875,3.34375 -2.28125,4.25 C 9.984375,-10.5625 9.34375,-10.6875 8.796875,-10.6875 c -0.515625,0 -2,-0.04687 -2,0.75 0,0.671875 1.359375,0.59375 1.78125,0.59375 0.640625,0 1.203125,-0.140625 1.8125,-0.328125 0.78125,0.65625 1.125,1.5 1.125,2.734375 0,1.4375 -0.390625,2.59375 -0.859375,3.671875 C 9.84375,-1.4375 7.90625,-0.25 6.1875,-0.25 c -1.796875,0 -2.75,-1.4375 -2.75,-3.125 0,-0.21875 0,-0.546875 0.109375,-0.90625 l 1.609375,-6.515625 c 0.8125,-3.25 2.890625,-6.171875 5.296875,-6.171875 1.78125,0 2.28125,1.234375 2.28125,2.328125 z m 0,0"
             id="path30" />
        </g>
      </g>
      <g
         style="fill:#333333;fill-opacity:1;stroke-width:0.617603"
         id="g31">
        <g
           id="use15"
           transform="translate(65.470001,26.965)"
           style="fill:#333333;stroke-width:0.617603">
          <path
             style="fill:#333333;stroke:none;stroke-width:0.617603"
             d="m 6.515625,-6.171875 c 0,-1.78125 -0.171875,-4.8125 -1.65625,-8 C 3.671875,-16.75 1.640625,-18.5625 1.34375,-18.5625 c -0.078125,0 -0.171875,0.03125 -0.171875,0.15625 0,0.04687 0.015625,0.0625 0.046875,0.125 1.1875,1.234375 4.203125,4.375 4.203125,12.09375 0,7.71875 -3,10.875 -4.203125,12.109375 C 1.1875,5.96875 1.171875,6 1.171875,6.046875 c 0,0.125 0.09375,0.140625 0.171875,0.140625 0.265625,0 2.375,-1.828125 3.59375,-4.546875 1.234375,-2.75 1.578125,-5.4375 1.578125,-7.8125 z m 0,0"
             id="path31" />
        </g>
      </g>
    </g>
  </g>
  <g
     inkscape:label=""
     transform="matrix(1.3170773,0,0,1.3170773,172.06907,334.83266)"
     id="g39"
     style="fill:#999999;stroke-width:0.759257">
    <g
       id="g38"
       transform="translate(-2.618,-1.9975)"
       style="fill:#999999;stroke-width:0.759257">
      <g
         style="fill:#999999;fill-opacity:1;stroke-width:0.759257"
         id="g34">
        <g
           id="use8"
           transform="translate(1.993,20.559999)"
           style="fill:#999999;stroke-width:0.759257">
          <path
             style="fill:#999999;stroke:none;stroke-width:0.759257"
             d="m 7.65625,-10.453125 c 0,-0.453125 -0.03125,-0.46875 -0.171875,-0.46875 -0.09375,0 -0.125,0.01563 -0.421875,0.390625 -0.078125,0.09375 -0.296875,0.34375 -0.375,0.4375 -0.796875,-0.828125 -1.90625,-0.859375 -2.328125,-0.859375 -2.75,0 -3.734375,1.4375 -3.734375,2.875 0,2.234375 2.515625,2.75 3.234375,2.90625 1.5625,0.3125 2.109375,0.40625 2.640625,0.859375 0.3125,0.296875 0.859375,0.84375 0.859375,1.734375 0,1.046875 -0.59375,2.375 -2.875,2.375 -2.15625,0 -2.921875,-1.625 -3.375,-3.8125 -0.0625,-0.34375 -0.0625,-0.375 -0.265625,-0.375 -0.203125,0 -0.21875,0.03125 -0.21875,0.53125 v 3.5625 c 0,0.453125 0.015625,0.46875 0.171875,0.46875 0.125,0 0.140625,-0.015625 0.265625,-0.21875 0.15625,-0.21875 0.53125,-0.828125 0.671875,-1.0625 0.5,0.65625 1.359375,1.3125 2.75,1.3125 C 6.9375,0.203125 8.25,-1.140625 8.25,-3.078125 8.25,-4.34375 7.578125,-5 7.265625,-5.296875 6.515625,-6.078125 5.65625,-6.25 4.609375,-6.4375 3.25,-6.734375 1.515625,-7.09375 1.515625,-8.59375 c 0,-0.65625 0.34375,-2.015625 2.84375,-2.015625 2.65625,0 2.796875,2.484375 2.859375,3.28125 0.015625,0.109375 0.140625,0.140625 0.21875,0.140625 0.21875,0 0.21875,-0.078125 0.21875,-0.5 z m 0,0"
             id="path13" />
        </g>
        <g
           id="use9"
           transform="translate(10.901484,20.559999)"
           style="fill:#999999;stroke-width:0.759257">
          <path
             style="fill:#999999;stroke:none;stroke-width:0.759257"
             d="m 3.84375,-15.265625 c 0,-0.546875 -0.453125,-1.015625 -1.015625,-1.015625 -0.546875,0 -1.015625,0.453125 -1.015625,1.015625 0,0.546875 0.4375,1.015625 1.015625,1.015625 0.546875,0 1.015625,-0.4375 1.015625,-1.015625 z m -2.90625,4.6875 V -9.9375 c 1.390625,0 1.59375,0.15625 1.59375,1.34375 v 6.890625 c 0,0.9375 -0.109375,1.0625 -1.6875,1.0625 V 0 C 1.4375,-0.046875 2.5,-0.046875 3.125,-0.046875 c 0.59375,0 1.609375,0 2.171875,0.046875 v -0.640625 c -1.453125,0 -1.5,-0.15625 -1.5,-1.046875 v -9.171875 z m 0,0"
             id="path33" />
        </g>
        <g
           id="use10"
           transform="translate(17.088345,20.559999)"
           style="fill:#999999;stroke-width:0.759257">
          <path
             style="fill:#999999;stroke:none;stroke-width:0.759257"
             d="m 10.28125,-7.53125 c 0,-1.265625 -0.25,-3.328125 -3.171875,-3.328125 -1.953125,0 -2.96875,1.515625 -3.34375,2.515625 h -0.03125 v -2.515625 L 0.8125,-10.578125 V -9.9375 c 1.46875,0 1.6875,0.15625 1.6875,1.34375 v 6.890625 c 0,0.9375 -0.09375,1.0625 -1.6875,1.0625 V 0 C 1.40625,-0.046875 2.5,-0.046875 3.140625,-0.046875 c 0.65625,0 1.765625,0 2.359375,0.046875 v -0.640625 c -1.578125,0 -1.6875,-0.109375 -1.6875,-1.0625 V -6.46875 c 0,-2.28125 1.390625,-3.984375 3.125,-3.984375 1.828125,0 2.03125,1.625 2.03125,2.828125 v 5.921875 c 0,0.9375 -0.09375,1.0625 -1.6875,1.0625 V 0 c 0.59375,-0.046875 1.6875,-0.046875 2.328125,-0.046875 0.65625,0 1.765625,0 2.359375,0.046875 v -0.640625 c -1.578125,0 -1.6875,-0.109375 -1.6875,-1.0625 z m 0,0"
             id="path15" />
        </g>
        <g
           id="use11"
           transform="translate(29.752073,20.559999)"
           style="fill:#999999;stroke-width:0.759257">
          <path
             style="fill:#999999;stroke:none;stroke-width:0.759257"
             d="m 7.578125,6.046875 c 0,-0.03125 0,-0.078125 -0.0625,-0.15625 -1.140625,-1.15625 -4.1875,-4.328125 -4.1875,-12.0625 0,-7.734375 2.984375,-10.875 4.203125,-12.109375 0,-0.03125 0.046875,-0.07813 0.046875,-0.15625 0,-0.07813 -0.0625,-0.125 -0.171875,-0.125 -0.265625,0 -2.375,1.828125 -3.59375,4.5625 -1.234375,2.75 -1.578125,5.421875 -1.578125,7.8125 0,1.78125 0.171875,4.796875 1.65625,8 1.1875,2.578125 3.21875,4.375 3.515625,4.375 0.125,0 0.171875,-0.046875 0.171875,-0.140625 z m 0,0"
             id="path34" />
        </g>
      </g>
      <g
         style="fill:#999999;fill-opacity:1;stroke-width:0.759257"
         id="g36">
        <g
           id="g35"
           transform="translate(38.528,20.559999)"
           style="fill:#999999;stroke-width:0.759257">
          <path
             style="fill:#999999;stroke:none;stroke-width:0.759257"
             d="m 14.03125,-14.421875 c 0,-1.484375 -1.265625,-3.046875 -3.53125,-3.046875 -3.1875,0 -5.21875,3.90625 -5.859375,6.484375 L 0.71875,4.5625 c -0.046875,0.203125 0.09375,0.25 0.21875,0.25 0.171875,0 0.296875,-0.03125 0.328125,-0.15625 L 3,-2.28125 C 3.25,-0.890625 4.609375,0.25 6.078125,0.25 c 3.53125,0 6.875,-2.78125 6.875,-6.46875 0,-0.9375 -0.21875,-1.890625 -0.734375,-2.671875 -0.296875,-0.484375 -0.671875,-0.828125 -1.0625,-1.125 1.78125,-0.9375 2.875,-2.453125 2.875,-4.40625 z m -4.3125,4.390625 c -0.40625,0.140625 -0.796875,0.1875 -1.265625,0.1875 -0.34375,0 -0.671875,0.03125 -1.125,-0.125 0.25,-0.171875 0.625,-0.21875 1.140625,-0.21875 0.453125,0 0.90625,0.04687 1.25,0.15625 z m 3.015625,-4.609375 c 0,1.359375 -0.671875,3.34375 -2.28125,4.25 C 9.984375,-10.5625 9.34375,-10.6875 8.796875,-10.6875 c -0.515625,0 -2,-0.04687 -2,0.75 0,0.671875 1.359375,0.59375 1.78125,0.59375 0.640625,0 1.203125,-0.140625 1.8125,-0.328125 0.78125,0.65625 1.125,1.5 1.125,2.734375 0,1.4375 -0.390625,2.59375 -0.859375,3.671875 C 9.84375,-1.4375 7.90625,-0.25 6.1875,-0.25 c -1.796875,0 -2.75,-1.4375 -2.75,-3.125 0,-0.21875 0,-0.546875 0.109375,-0.90625 l 1.609375,-6.515625 c 0.8125,-3.25 2.890625,-6.171875 5.296875,-6.171875 1.78125,0 2.28125,1.234375 2.28125,2.328125 z m 0,0"
             id="path35" />
        </g>
      </g>
      <g
         style="fill:#999999;fill-opacity:1;stroke-width:0.759257"
         id="g13">
        <g
           id="g37"
           transform="translate(53.604,20.559999)"
           style="fill:#999999;stroke-width:0.759257">
          <path
             style="fill:#999999;stroke:none;stroke-width:0.759257"
             d="m 6.515625,-6.171875 c 0,-1.78125 -0.171875,-4.8125 -1.65625,-8 C 3.671875,-16.75 1.640625,-18.5625 1.34375,-18.5625 c -0.078125,0 -0.171875,0.03125 -0.171875,0.15625 0,0.04687 0.015625,0.0625 0.046875,0.125 1.1875,1.234375 4.203125,4.375 4.203125,12.09375 0,7.71875 -3,10.875 -4.203125,12.109375 C 1.1875,5.96875 1.171875,6 1.171875,6.046875 c 0,0.125 0.09375,0.140625 0.171875,0.140625 0.265625,0 2.375,-1.828125 3.59375,-4.546875 1.234375,-2.75 1.578125,-5.4375 1.578125,-7.8125 z m 0,0"
             id="path18" />
        </g>
      </g>
    </g>
  </g>
  <path
     id="path39-7"
     style="vector-effect:none;fill:none;fill-opacity:0.388473;stroke:#000080;stroke-width:2;stop-color:#000000"
     d="m 98.514111,193.09036 c -6e-6,8.60723 -32.009622,15.58478 -71.49549,15.58478 -39.485868,0 -71.495486,-6.97755 -71.495491,-15.58478"
     sodipodi:nodetypes="csc" />
  <text
     xml:space="preserve"
     style="font-size:21.4778px;line-height:125%;font-family:'DejaVu Serif';-inkscape-font-specification:'DejaVu Serif';letter-spacing:0px;word-spacing:0px;fill:#4d4d4d;stroke:#000000;stroke-width:0.749999px;stroke-linecap:butt;stroke-linejoin:miter;stroke-opacity:1"
     x="28.386583"
     y="234.19514"
     id="text40"
     transform="rotate(-5.9166534)"><tspan
       sodipodi:role="line"
       id="tspan40"
       style="fill:#4d4d4d;stroke:none;stroke-width:0.749999px"
       x="28.386583"
       y="234.19514">Equator</tspan></text>
  <g
     id="g48"
     style="opacity:0.48994208;stroke:#1a1a1a">
    <ellipse
       style="font-variation-settings:normal;opacity:1;vector-effect:none;fill:url(#linearGradient48);fill-opacity:1;stroke:#1a1a1a;stroke-width:2;stroke-linecap:butt;stroke-linejoin:miter;stroke-miterlimit:4;stroke-dasharray:none;stroke-dashoffset:0;stroke-opacity:1;-inkscape-stroke:none;stop-color:#000000;stop-opacity:1"
       id="path46-3"
       cx="434.16434"
       cy="349.1983"
       rx="39.037781"
       ry="11.982685" />
    <path
       id="rect43"
       style="opacity:1;vector-effect:none;fill:url(#linearGradient45);stroke:#1a1a1a;stroke-width:2;stroke-opacity:1"
       d="M 395.12656,349.1983 V 23.906364 h 38.95233 39.12323 V 349.1983"
       sodipodi:nodetypes="ccccc" />
    <ellipse
       style="opacity:1;vector-effect:none;fill:#00ffff;fill-opacity:1;stroke:#1a1a1a;stroke-width:2;stroke-linecap:butt;stroke-linejoin:miter;stroke-miterlimit:4;stroke-dasharray:none;stroke-dashoffset:0;stroke-opacity:1;-inkscape-stroke:none"
       id="path46"
       cx="434.16437"
       cy="23.852489"
       rx="39.037781"
       ry="6.2183299" />
  </g>
</svg>
