<?xml version="1.0" encoding="utf-8"?>
<!-- Generator: Adobe Illustrator 16.0.0, SVG Export Plug-In . SVG Version: 6.00 Build 0)  -->
<!DOCTYPE svg PUBLIC "-//W3C//DTD SVG 1.1//EN" "http://www.w3.org/Graphics/SVG/1.1/DTD/svg11.dtd">
<svg version="1.1" id="Layer_1" xmlns="http://www.w3.org/2000/svg" xmlns:xlink="http://www.w3.org/1999/xlink" x="0px" y="0px"
	 width="640px" height="364px" viewBox="0 0 640 364" enable-background="new 0 0 640 364" xml:space="preserve">
<path fill="#FFFFFF" stroke="#000000" stroke-width="3.2658" stroke-miterlimit="10" d="M557.137,181.191
	c0,79.703-64.61,144.316-144.317,144.316c-79.703,0-144.316-64.613-144.316-144.316c0-79.706,64.613-144.318,144.316-144.318
	C492.526,36.873,557.137,101.485,557.137,181.191z"/>
<g>
	<g>
		<line fill="none" stroke="#000000" stroke-width="3" stroke-miterlimit="10" x1="13" y1="94.5" x2="570" y2="94.5"/>
		<g>
			<path d="M589.958,94.485c-9.55,3.543-21.398,9.589-28.743,15.993l5.784-15.993l-5.784-15.99
				C568.56,84.899,580.408,90.945,589.958,94.485z"/>
		</g>
	</g>
</g>
<g>
	<g>
		<line fill="none" stroke="#000000" stroke-width="3" stroke-miterlimit="10" x1="635" y1="181.5" x2="625" y2="181.5"/>
		
			<line fill="none" stroke="#000000" stroke-width="3" stroke-miterlimit="10" stroke-dasharray="19,19" x1="606" y1="181.5" x2="46" y2="181.5"/>
		<line fill="none" stroke="#000000" stroke-width="3" stroke-miterlimit="10" x1="37" y1="181.5" x2="27" y2="181.5"/>
	</g>
</g>
<g>
	<g>
		<line fill="none" stroke="#000000" stroke-width="2" stroke-miterlimit="10" x1="217" y1="101" x2="217" y2="173"/>
		<g>
			<polygon points="214,104.314 217,101.646 220,104.314 220,102.05 217,99.384 214,102.05 			"/>
		</g>
		<g>
			<polygon points="214,169.567 217,172.235 220,169.567 220,171.831 217,174.498 214,171.831 			"/>
		</g>
	</g>
</g>
<g>
	<path d="M189.133,151.51c0.079-1.293,0.157-3.213,0.157-4.898v-22.923h3.409v11.912h0.079c1.214-2.116,3.409-3.487,6.465-3.487
		c4.702,0,8.033,3.918,7.994,9.679c0,6.779-4.271,10.149-8.503,10.149c-2.743,0-4.938-1.058-6.348-3.566h-0.118l-0.157,3.135
		H189.133z M192.699,143.908c0,0.431,0.079,0.862,0.157,1.254c0.666,2.39,2.665,4.036,5.172,4.036c3.605,0,5.76-2.939,5.76-7.288
		c0-3.801-1.959-7.053-5.643-7.053c-2.351,0-4.545,1.606-5.251,4.232c-0.078,0.392-0.196,0.862-0.196,1.411V143.908z"/>
</g>
<g>
	<path d="M99.635,240.562h3.448v11.834h0.079c0.548-0.979,1.411-1.842,2.469-2.43c1.019-0.588,2.233-0.979,3.526-0.979
		c2.547,0,6.622,1.567,6.622,8.111v11.285h-3.448v-10.894c0-3.056-1.136-5.643-4.389-5.643c-2.233,0-3.997,1.567-4.624,3.448
		c-0.196,0.471-0.235,0.979-0.235,1.646v11.441h-3.448V240.562z"/>
	<path d="M120.092,255.178v-2.352h20.219v2.352H120.092z M120.092,262.857v-2.351h20.219v2.351H120.092z"/>
	<path d="M159.632,252.121v10.619c0,3.096,0.274,4.663,0.549,5.643h-3.331c-0.313-0.588-0.587-2.272-0.587-5.29v-10.972h-6.23
		c-0.157,4.977-1.293,13.127-2.665,16.262h-3.292c1.411-3.723,2.508-11.246,2.665-16.262c-1.528,0-2.899,0.078-3.879,0.353
		l-0.47-2.037c0.862-0.588,2.43-1.019,5.447-1.019h14.812l-0.392,2.703H159.632z"/>
	<path d="M163.592,269.95l10.932-28.409h2.665l-10.972,28.409H163.592z"/>
	<path d="M178.836,268.383v-2.116l2.704-2.625c6.504-6.191,9.443-9.482,9.482-13.323c0-2.586-1.254-4.977-5.055-4.977
		c-2.312,0-4.232,1.176-5.408,2.155l-1.097-2.429c1.764-1.489,4.271-2.587,7.21-2.587c5.486,0,7.798,3.762,7.798,7.406
		c0,4.702-3.409,8.503-8.777,13.676l-2.038,1.881v0.078h11.442v2.86H178.836z"/>
</g>
<g>
	<path d="M408.44,123.688h3.448v11.834h0.078c0.549-0.979,1.411-1.842,2.469-2.43c1.02-0.587,2.233-0.979,3.527-0.979
		c2.547,0,6.622,1.567,6.622,8.111v11.285h-3.448v-10.894c0-3.056-1.137-5.643-4.389-5.643c-2.234,0-3.997,1.567-4.624,3.448
		c-0.196,0.471-0.235,0.98-0.235,1.646v11.442h-3.448V123.688z"/>
</g>
<g>
	<path d="M451.97,204.524c0-2.234-0.039-4.154-0.156-5.917h3.017l0.118,3.723h0.156c0.862-2.547,2.938-4.154,5.251-4.154
		c0.392,0,0.666,0.039,0.979,0.118v3.252c-0.353-0.079-0.705-0.118-1.176-0.118c-2.429,0-4.153,1.842-4.624,4.428
		c-0.078,0.47-0.156,1.019-0.156,1.606v10.109h-3.409V204.524z"/>
	<path d="M463.491,204.367v-2.351h20.22v2.351H463.491z M463.491,212.047v-2.351h20.22v2.351H463.491z"/>
	<path d="M494.527,195.315h-0.078l-4.428,2.39l-0.666-2.625l5.564-2.978h2.938v25.47h-3.331V195.315z"/>
</g>
<g>
	<g>
		<line fill="none" stroke="#000000" stroke-width="2" stroke-miterlimit="10" x1="298" y1="114" x2="528" y2="114"/>
		<g>
			<rect x="297" y="109" width="2" height="10"/>
		</g>
		<g>
			<rect x="527" y="109" width="2" height="10"/>
		</g>
	</g>
</g>
<line fill="none" stroke="#000000" stroke-width="3" stroke-miterlimit="10" x1="413" y1="181.5" x2="558" y2="181.5"/>
<line fill="none" stroke="#000000" stroke-width="3" stroke-miterlimit="10" x1="96" y1="236.5" x2="119" y2="236.5"/>
</svg>
